<svg width="658" height="413" viewBox="0 0 658 413" fill="none" xmlns="http://www.w3.org/2000/svg">
<path d="M559.898 412.59H45.3463C45.3463 412.59 71.6049 354.458 166.122 343.399C279.044 330.188 174.863 157.499 244.966 81.5145C309.059 12.0497 537.566 64.0374 625.39 156.919C688.595 223.755 645.537 326.775 616.376 379.309C605.005 399.824 583.39 412.59 559.898 412.59Z" fill="#F9FAFB"/>
<path d="M215.907 127.085C215.907 127.085 209.556 113.465 220.756 109.778C231.956 106.091 238.307 115.957 238.41 115.718C238.512 115.479 245.717 114.932 249.678 115.786C253.639 116.639 256.678 118.039 258.863 119.575C261.049 121.077 274.707 115.444 278.259 117.663C281.81 119.882 287.239 126.163 290.551 127.426C293.863 128.655 304.346 126.197 305.644 128.04C306.941 129.884 312.644 133.57 309.366 133.434C306.122 133.297 212.732 136.984 210.137 132.785C207.541 128.552 215.907 127.085 215.907 127.085Z" fill="white"/>
<path d="M307.522 103.429C307.522 103.429 313.122 95.9194 322.546 95.0319C331.971 94.1444 342.078 99.2305 342.078 99.2305C342.078 99.2305 351.844 93.1886 357 91.3794C362.156 89.5362 370.898 83.1529 377.966 86.8054C385.034 90.4578 396.268 91.8573 403.473 92.54C410.678 93.2227 417.951 96.8752 422.527 99.606C427.102 102.337 438.746 101.791 441.615 103.429C444.483 105.068 457.356 108.754 446.805 111.485C436.254 114.216 425.327 118.107 420.717 115.718C416.107 113.328 397.805 111.485 397.805 111.485C397.805 111.485 380.698 117.186 375.541 115.718C370.351 114.25 352.015 115.718 352.015 115.718H334.361C334.361 115.718 328.693 115.376 322.546 115.718C316.4 116.059 309.161 119.029 306.395 115.718C303.561 112.407 307.522 103.429 307.522 103.429Z" fill="white"/>
<path d="M254.834 87.3856C254.834 87.3856 262.244 77.3499 271.054 78.3056C279.829 79.2614 284.541 82.8797 289.971 82.948C295.366 83.0163 301.717 82.9821 306.327 83.0163C310.937 83.0504 317.39 80.2855 321.488 83.0845C325.585 85.8836 326.78 85.8836 319.78 87.6928C312.78 89.5019 291.815 92.1303 283.995 92.0962C276.176 92.0621 259.649 93.8029 256.473 92.8813C253.229 91.9255 254.834 87.3856 254.834 87.3856Z" fill="white"/>
<path d="M535.858 125.446C535.858 125.446 543.268 115.41 552.078 116.366C560.854 117.322 565.566 120.94 570.995 121.009C576.39 121.077 582.741 121.043 587.351 121.077C591.961 121.145 598.415 118.346 602.512 121.145C606.61 123.944 607.805 123.944 600.805 125.753C593.771 127.563 572.839 130.191 565.019 130.157C557.2 130.123 540.673 131.864 537.498 130.942C534.254 129.986 535.858 125.446 535.858 125.446Z" fill="white"/>
<path d="M371.99 268.438H388.722V287.008H398.829V274.685H408.254V260.109H423.756V274.685H433.898V284.755H450.356C450.356 284.755 454.283 273.763 469.615 268.438V274.685H480.302V260.041H488.463V274.685H499.254V268.438H518.137V327.355H371.034L371.99 268.438Z" fill="#ECEEF3"/>
<path d="M430.585 327.355H430.141V295.063H423.551V260.109H423.995V294.62H430.585V327.355Z" fill="#DBE0EA"/>
<path d="M413.137 262.499H410.473V263.591H413.137V262.499Z" fill="#B6BCCC"/>
<path d="M417.371 262.499H414.707V263.591H417.371V262.499Z" fill="#B6BCCC"/>
<path d="M421.639 262.499H418.976V263.591H421.639V262.499Z" fill="#B6BCCC"/>
<path d="M413.137 264.922H410.473V266.014H413.137V264.922Z" fill="#B6BCCC"/>
<path d="M417.371 264.922H414.707V266.014H417.371V264.922Z" fill="#B6BCCC"/>
<path d="M421.639 264.922H418.976V266.014H421.639V264.922Z" fill="#B6BCCC"/>
<path d="M413.137 267.312H410.473V268.404H413.137V267.312Z" fill="#B6BCCC"/>
<path d="M417.371 267.312H414.707V268.404H417.371V267.312Z" fill="#B6BCCC"/>
<path d="M421.639 267.312H418.976V268.404H421.639V267.312Z" fill="#B6BCCC"/>
<path d="M413.137 269.735H410.473V270.827H413.137V269.735Z" fill="#B6BCCC"/>
<path d="M417.371 269.735H414.707V270.827H417.371V269.735Z" fill="#B6BCCC"/>
<path d="M421.639 269.735H418.976V270.827H421.639V269.735Z" fill="#B6BCCC"/>
<path d="M413.137 272.159H410.473V273.251H413.137V272.159Z" fill="#B6BCCC"/>
<path d="M417.371 272.159H414.707V273.251H417.371V272.159Z" fill="#B6BCCC"/>
<path d="M421.639 272.159H418.976V273.251H421.639V272.159Z" fill="#B6BCCC"/>
<path d="M413.137 274.582H410.473V275.675H413.137V274.582Z" fill="#B6BCCC"/>
<path d="M417.371 274.582H414.707V275.675H417.371V274.582Z" fill="#B6BCCC"/>
<path d="M421.639 274.582H418.976V275.675H421.639V274.582Z" fill="#B6BCCC"/>
<path d="M413.137 277.006H410.473V278.098H413.137V277.006Z" fill="#B6BCCC"/>
<path d="M417.371 277.006H414.707V278.098H417.371V277.006Z" fill="#B6BCCC"/>
<path d="M421.639 277.006H418.976V278.098H421.639V277.006Z" fill="#B6BCCC"/>
<path d="M413.137 279.395H410.473V280.488H413.137V279.395Z" fill="#B6BCCC"/>
<path d="M417.371 279.395H414.707V280.488H417.371V279.395Z" fill="#B6BCCC"/>
<path d="M421.639 279.395H418.976V280.488H421.639V279.395Z" fill="#B6BCCC"/>
<path d="M413.137 281.819H410.473V282.911H413.137V281.819Z" fill="#B6BCCC"/>
<path d="M417.371 281.819H414.707V282.911H417.371V281.819Z" fill="#B6BCCC"/>
<path d="M421.639 281.819H418.976V282.911H421.639V281.819Z" fill="#B6BCCC"/>
<path d="M413.137 284.243H410.473V285.335H413.137V284.243Z" fill="#B6BCCC"/>
<path d="M417.371 284.243H414.707V285.335H417.371V284.243Z" fill="#B6BCCC"/>
<path d="M421.639 284.243H418.976V285.335H421.639V284.243Z" fill="#B6BCCC"/>
<path d="M413.137 286.666H410.473V287.758H413.137V286.666Z" fill="#B6BCCC"/>
<path d="M417.371 286.666H414.707V287.758H417.371V286.666Z" fill="#B6BCCC"/>
<path d="M421.639 286.666H418.976V287.758H421.639V286.666Z" fill="#B6BCCC"/>
<path d="M413.137 289.09H410.473V290.182H413.137V289.09Z" fill="#B6BCCC"/>
<path d="M417.371 289.09H414.707V290.182H417.371V289.09Z" fill="#B6BCCC"/>
<path d="M421.639 289.09H418.976V290.182H421.639V289.09Z" fill="#B6BCCC"/>
<path d="M413.137 291.513H410.473V292.606H413.137V291.513Z" fill="#B6BCCC"/>
<path d="M417.371 291.513H414.707V292.606H417.371V291.513Z" fill="#B6BCCC"/>
<path d="M421.639 291.513H418.976V292.606H421.639V291.513Z" fill="#B6BCCC"/>
<path d="M505.741 271.374H502.805V273.353H505.741V271.374Z" fill="#B6BCCC"/>
<path d="M510.419 271.374H507.483V273.353H510.419V271.374Z" fill="#B6BCCC"/>
<path d="M515.098 271.374H512.161V273.353H515.098V271.374Z" fill="#B6BCCC"/>
<path d="M505.741 275.675H502.805V277.654H505.741V275.675Z" fill="#B6BCCC"/>
<path d="M510.419 275.675H507.483V277.654H510.419V275.675Z" fill="#B6BCCC"/>
<path d="M515.098 275.675H512.161V277.654H515.098V275.675Z" fill="#B6BCCC"/>
<path d="M505.741 279.942H502.805V281.921H505.741V279.942Z" fill="#B6BCCC"/>
<path d="M510.419 279.942H507.483V281.921H510.419V279.942Z" fill="#B6BCCC"/>
<path d="M515.098 279.942H512.161V281.921H515.098V279.942Z" fill="#B6BCCC"/>
<path d="M505.741 284.242H502.805V286.222H505.741V284.242Z" fill="#B6BCCC"/>
<path d="M510.419 284.242H507.483V286.222H510.419V284.242Z" fill="#B6BCCC"/>
<path d="M515.098 284.242H512.161V286.222H515.098V284.242Z" fill="#B6BCCC"/>
<path d="M505.741 288.509H502.805V290.489H505.741V288.509Z" fill="#B6BCCC"/>
<path d="M510.419 288.509H507.483V290.489H510.419V288.509Z" fill="#B6BCCC"/>
<path d="M515.098 288.509H512.161V290.489H515.098V288.509Z" fill="#B6BCCC"/>
<path d="M505.741 292.81H502.805V294.79H505.741V292.81Z" fill="#B6BCCC"/>
<path d="M510.419 292.81H507.483V294.79H510.419V292.81Z" fill="#B6BCCC"/>
<path d="M515.098 292.81H512.161V294.79H515.098V292.81Z" fill="#B6BCCC"/>
<path d="M505.741 297.111H502.805V299.091H505.741V297.111Z" fill="#B6BCCC"/>
<path d="M510.419 297.111H507.483V299.091H510.419V297.111Z" fill="#B6BCCC"/>
<path d="M515.098 297.111H512.161V299.091H515.098V297.111Z" fill="#B6BCCC"/>
<path d="M505.741 301.378H502.805V303.358H505.741V301.378Z" fill="#B6BCCC"/>
<path d="M510.419 301.378H507.483V303.358H510.419V301.378Z" fill="#B6BCCC"/>
<path d="M515.098 301.378H512.161V303.358H515.098V301.378Z" fill="#B6BCCC"/>
<path d="M505.741 305.679H502.805V307.659H505.741V305.679Z" fill="#B6BCCC"/>
<path d="M510.419 305.679H507.483V307.659H510.419V305.679Z" fill="#B6BCCC"/>
<path d="M515.098 305.679H512.161V307.659H515.098V305.679Z" fill="#B6BCCC"/>
<path d="M505.741 309.98H502.805V311.96H505.741V309.98Z" fill="#B6BCCC"/>
<path d="M510.419 309.98H507.483V311.96H510.419V309.98Z" fill="#B6BCCC"/>
<path d="M515.098 309.98H512.161V311.96H515.098V309.98Z" fill="#B6BCCC"/>
<path d="M505.741 314.247H502.805V316.227H505.741V314.247Z" fill="#B6BCCC"/>
<path d="M510.419 314.247H507.483V316.227H510.419V314.247Z" fill="#B6BCCC"/>
<path d="M515.098 314.247H512.161V316.227H515.098V314.247Z" fill="#B6BCCC"/>
<path d="M505.741 318.548H502.805V320.528H505.741V318.548Z" fill="#B6BCCC"/>
<path d="M510.419 318.548H507.483V320.528H510.419V318.548Z" fill="#B6BCCC"/>
<path d="M515.098 318.548H512.161V320.528H515.098V318.548Z" fill="#B6BCCC"/>
<path d="M505.741 322.849H502.805V324.829H505.741V322.849Z" fill="#B6BCCC"/>
<path d="M510.419 322.849H507.483V324.829H510.419V322.849Z" fill="#B6BCCC"/>
<path d="M515.098 322.849H512.161V324.829H515.098V322.849Z" fill="#B6BCCC"/>
<path d="M401.698 327.867H401.254V287.554H406.034V294.62H423.756V295.063H405.59V287.997H401.698V327.867Z" fill="#DBE0EA"/>
<path d="M385.819 270.145H384.624V327.321H385.819V270.145Z" fill="#B6BCCC"/>
<path d="M383.6 270.145H382.405V327.321H383.6V270.145Z" fill="#B6BCCC"/>
<path d="M381.381 270.145H380.185V327.321H381.381V270.145Z" fill="#B6BCCC"/>
<path d="M379.161 270.145H377.966V327.321H379.161V270.145Z" fill="#B6BCCC"/>
<path d="M376.941 270.145H375.746V327.321H376.941V270.145Z" fill="#B6BCCC"/>
<path d="M374.756 270.145H373.561V327.321H374.756V270.145Z" fill="#B6BCCC"/>
<path d="M411.361 297.214H405.795V305.782H411.361V297.214Z" fill="#DBE0EA"/>
<path d="M410.712 298.784H407.4V304.894H410.712V298.784Z" fill="#ECEEF3"/>
<path d="M419.215 297.214H413.649V305.782H419.215V297.214Z" fill="#DBE0EA"/>
<path d="M418.532 298.784H415.22V304.894H418.532V298.784Z" fill="#ECEEF3"/>
<path d="M427.068 297.214H421.502V305.782H427.068V297.214Z" fill="#DBE0EA"/>
<path d="M426.385 298.784H423.073V304.894H426.385V298.784Z" fill="#ECEEF3"/>
<path d="M411.361 308.001H405.795V316.569H411.361V308.001Z" fill="#DBE0EA"/>
<path d="M410.712 309.571H407.4V315.681H410.712V309.571Z" fill="#ECEEF3"/>
<path d="M419.215 308.001H413.649V316.569H419.215V308.001Z" fill="#DBE0EA"/>
<path d="M418.532 309.571H415.22V315.681H418.532V309.571Z" fill="#ECEEF3"/>
<path d="M427.068 308.001H421.502V316.569H427.068V308.001Z" fill="#DBE0EA"/>
<path d="M426.385 309.571H423.073V315.681H426.385V309.571Z" fill="#ECEEF3"/>
<path d="M411.361 318.787H405.795V327.355H411.361V318.787Z" fill="#DBE0EA"/>
<path d="M410.712 320.392H407.4V326.502H410.712V320.392Z" fill="#ECEEF3"/>
<path d="M419.215 318.787H413.649V327.355H419.215V318.787Z" fill="#DBE0EA"/>
<path d="M418.532 320.392H415.22V326.502H418.532V320.392Z" fill="#ECEEF3"/>
<path d="M427.068 318.787H421.502V327.355H427.068V318.787Z" fill="#DBE0EA"/>
<path d="M426.385 320.392H423.073V326.502H426.385V320.392Z" fill="#ECEEF3"/>
<path d="M469.649 268.438C469.649 268.438 455.854 272.295 450.39 284.755H445.951V287.758H482.624V284.789H469.649V268.438Z" fill="#DBE0EA"/>
<path d="M479.585 288.475H448.615V327.355H479.585V288.475Z" fill="#DBE0EA"/>
<path d="M454.932 300.252H451.141V299.159H456.059C456.024 299.774 455.546 300.252 454.932 300.252Z" fill="#B6BCCC"/>
<path d="M452.098 290.66C452.268 290.455 452.473 290.318 452.712 290.216C451.79 290.353 451.073 291.138 451.073 292.094V298.067H451.585V292.025C451.619 292.025 451.585 291.24 452.098 290.66ZM454.829 291.411C454.454 290.455 453.156 290.182 452.473 290.967C452.063 291.411 452.098 292.059 452.098 292.059V298.101H454.966V292.128C454.966 291.855 454.897 291.616 454.829 291.411Z" fill="#B6BCCC"/>
<path d="M462.171 300.252H458.38V299.159H463.297C463.263 299.774 462.785 300.252 462.171 300.252Z" fill="#B6BCCC"/>
<path d="M459.337 290.66C459.507 290.455 459.712 290.318 459.951 290.216C459.029 290.353 458.312 291.138 458.312 292.094V298.067H458.824V292.025C458.859 292.025 458.824 291.24 459.337 290.66ZM462.068 291.411C461.693 290.455 460.395 290.182 459.712 290.967C459.302 291.411 459.337 292.059 459.337 292.059V298.101H462.205V292.128C462.205 291.855 462.137 291.616 462.068 291.411Z" fill="#B6BCCC"/>
<path d="M469.41 300.252H465.619V299.159H470.536C470.502 299.774 470.024 300.252 469.41 300.252Z" fill="#B6BCCC"/>
<path d="M466.61 290.66C466.78 290.455 466.985 290.318 467.224 290.216C466.302 290.353 465.585 291.138 465.585 292.094V298.067H466.098V292.025C466.098 292.025 466.063 291.24 466.61 290.66ZM469.307 291.411C468.932 290.455 467.634 290.182 466.951 290.967C466.541 291.411 466.576 292.059 466.576 292.059V298.101H469.444V292.128C469.444 291.855 469.41 291.616 469.307 291.411Z" fill="#B6BCCC"/>
<path d="M476.649 300.252H472.858V299.159H477.775C477.741 299.774 477.263 300.252 476.649 300.252Z" fill="#B6BCCC"/>
<path d="M473.849 290.66C474.019 290.455 474.224 290.318 474.463 290.216C473.541 290.353 472.824 291.138 472.824 292.094V298.067H473.337V292.025C473.371 292.025 473.302 291.24 473.849 290.66ZM476.546 291.411C476.171 290.455 474.873 290.182 474.19 290.967C473.78 291.411 473.815 292.059 473.815 292.059V298.101H476.683V292.128C476.683 291.855 476.649 291.616 476.546 291.411Z" fill="#B6BCCC"/>
<path d="M454.932 312.916H451.141V311.823H456.059C456.024 312.438 455.546 312.916 454.932 312.916Z" fill="#B6BCCC"/>
<path d="M452.098 303.324C452.268 303.119 452.473 302.983 452.712 302.88C451.79 303.017 451.073 303.802 451.073 304.758V310.731H451.585V304.689C451.619 304.689 451.585 303.904 452.098 303.324ZM454.829 304.041C454.454 303.085 453.156 302.812 452.473 303.597C452.063 304.041 452.098 304.689 452.098 304.689V310.731H454.966V304.758C454.966 304.519 454.897 304.28 454.829 304.041Z" fill="#B6BCCC"/>
<path d="M462.171 312.916H458.38V311.823H463.297C463.263 312.438 462.785 312.916 462.171 312.916Z" fill="#B6BCCC"/>
<path d="M459.337 303.324C459.507 303.119 459.712 302.983 459.951 302.88C459.029 303.017 458.312 303.802 458.312 304.758V310.731H458.824V304.689C458.859 304.689 458.824 303.904 459.337 303.324ZM462.068 304.041C461.693 303.085 460.395 302.812 459.712 303.597C459.302 304.041 459.337 304.689 459.337 304.689V310.731H462.205V304.758C462.205 304.519 462.137 304.28 462.068 304.041Z" fill="#B6BCCC"/>
<path d="M469.41 312.916H465.619V311.823H470.536C470.502 312.438 470.024 312.916 469.41 312.916Z" fill="#B6BCCC"/>
<path d="M466.61 303.324C466.78 303.119 466.985 302.983 467.224 302.88C466.302 303.017 465.585 303.802 465.585 304.758V310.731H466.098V304.689C466.098 304.689 466.063 303.904 466.61 303.324ZM469.307 304.041C468.932 303.085 467.634 302.812 466.951 303.597C466.541 304.041 466.576 304.689 466.576 304.689V310.731H469.444V304.758C469.444 304.519 469.41 304.28 469.307 304.041Z" fill="#B6BCCC"/>
<path d="M476.649 312.916H472.858V311.823H477.775C477.741 312.438 477.263 312.916 476.649 312.916Z" fill="#B6BCCC"/>
<path d="M473.849 303.324C474.019 303.119 474.224 302.983 474.463 302.88C473.541 303.017 472.824 303.802 472.824 304.758V310.731H473.337V304.689C473.371 304.689 473.302 303.904 473.849 303.324ZM476.546 304.041C476.171 303.085 474.873 302.812 474.19 303.597C473.78 304.041 473.815 304.689 473.815 304.689V310.731H476.683V304.758C476.683 304.519 476.649 304.28 476.546 304.041Z" fill="#B6BCCC"/>
<path d="M454.932 325.58H451.141V324.488H456.059C456.024 325.102 455.546 325.58 454.932 325.58Z" fill="#B6BCCC"/>
<path d="M452.098 315.988C452.268 315.783 452.473 315.647 452.712 315.544C451.79 315.681 451.073 316.466 451.073 317.422V323.395H451.585V317.354C451.619 317.354 451.585 316.568 452.098 315.988ZM454.829 316.705C454.454 315.749 453.156 315.476 452.473 316.261C452.063 316.705 452.098 317.354 452.098 317.354V323.395H454.966V317.422C454.966 317.183 454.897 316.944 454.829 316.705Z" fill="#B6BCCC"/>
<path d="M462.171 325.58H458.38V324.488H463.297C463.263 325.102 462.785 325.58 462.171 325.58Z" fill="#B6BCCC"/>
<path d="M459.337 315.988C459.507 315.783 459.712 315.647 459.951 315.544C459.029 315.681 458.312 316.466 458.312 317.422V323.395H458.824V317.354C458.859 317.354 458.824 316.568 459.337 315.988ZM462.068 316.705C461.693 315.749 460.395 315.476 459.712 316.261C459.302 316.705 459.337 317.354 459.337 317.354V323.395H462.205V317.422C462.205 317.183 462.137 316.944 462.068 316.705Z" fill="#B6BCCC"/>
<path d="M469.41 325.58H465.619V324.488H470.536C470.502 325.102 470.024 325.58 469.41 325.58Z" fill="#B6BCCC"/>
<path d="M466.61 315.988C466.78 315.783 466.985 315.647 467.224 315.544C466.302 315.681 465.585 316.466 465.585 317.422V323.395H466.098V317.354C466.098 317.354 466.063 316.568 466.61 315.988ZM469.307 316.705C468.932 315.749 467.634 315.476 466.951 316.261C466.541 316.705 466.576 317.354 466.576 317.354V323.395H469.444V317.422C469.444 317.183 469.41 316.944 469.307 316.705Z" fill="#B6BCCC"/>
<path d="M476.649 325.58H472.858V324.488H477.775C477.741 325.102 477.263 325.58 476.649 325.58Z" fill="#B6BCCC"/>
<path d="M473.849 315.988C474.019 315.783 474.224 315.647 474.463 315.544C473.541 315.681 472.824 316.466 472.824 317.422V323.395H473.337V317.354C473.371 317.354 473.302 316.568 473.849 315.988ZM476.546 316.705C476.171 315.749 474.873 315.476 474.19 316.261C473.78 316.705 473.815 317.354 473.815 317.354V323.395H476.683V317.422C476.683 317.183 476.649 316.944 476.546 316.705Z" fill="#B6BCCC"/>
<path d="M453.566 284.789C453.566 284.789 457.766 275.538 469.444 270.827C469.444 270.861 458.551 275.811 453.566 284.789Z" fill="#ECEEF3"/>
<path d="M460.805 284.788H464.254V280.624C464.254 279.668 463.468 278.883 462.512 278.883C461.556 278.883 460.771 279.668 460.771 280.624V284.788H460.805Z" fill="#B6BCCC"/>
<path d="M396.78 316.773H388.517V287.008H388.961V316.33H396.337V287.212H396.78V316.773Z" fill="#DBE0EA"/>
<path d="M443.356 312.711H438.985V284.994H433.693V274.89H423.756V274.446H434.137V284.55H439.429V312.267H442.912V301.959H448.615V302.402H443.356V312.711Z" fill="#DBE0EA"/>
<path d="M480.541 260.041H480.098V287.759H480.541V260.041Z" fill="#DBE0EA"/>
<path d="M499.493 299.296H488.258V260.041H488.702V298.852H499.049V268.199H505.605V262.26H510.624V268.438H510.18V262.669H506.049V268.643H499.493V299.296Z" fill="#DBE0EA"/>
<path d="M490.888 299.535H490V277.211C490 276.733 490.41 276.323 490.888 276.323V299.535Z" fill="#B6BCCC"/>
<path d="M493.107 299.535H492.219V277.211C492.219 276.733 492.629 276.323 493.107 276.323V299.535Z" fill="#B6BCCC"/>
<path d="M495.361 299.535H494.473V277.211C494.473 276.733 494.883 276.323 495.361 276.323V299.535Z" fill="#B6BCCC"/>
<path d="M497.615 299.535H496.727V277.211C496.727 276.733 497.137 276.323 497.615 276.323V299.535Z" fill="#B6BCCC"/>
<path d="M408.254 274.685H398.829V287.008H408.254V274.685Z" fill="#DBE0EA"/>
<path d="M439.395 284.55H430.585V327.355H439.395V284.55Z" fill="#DBE0EA"/>
<path d="M307.385 207.131C307.385 204.025 309.537 201.363 312.576 200.714L317.424 199.656C321.01 198.871 323.571 195.696 323.571 192.044V189.449H327.702L337.195 198.939V243.417H307.419V207.131H307.385Z" fill="#9DA3AF"/>
<path d="M210.819 318.617H232.024V213.481H220.005C222.737 254.682 226.219 294.005 210.819 318.617Z" fill="#9DA3AF"/>
<path d="M265.488 199.28H236.737V175.522L265.488 182.384V199.28Z" fill="#B6BCCC"/>
<path d="M296.527 319.948H226.459V195.355L296.527 194.843V319.948Z" fill="#B6BCCC"/>
<path d="M243.839 204.674H236.737V219.591H243.839V204.674Z" fill="#DBE0EA"/>
<path d="M243.839 215.87H236.737V219.591H243.839V215.87Z" fill="#9DA3AF"/>
<path d="M258.215 204.674H251.112V219.591H258.215V204.674Z" fill="#DBE0EA"/>
<path d="M258.215 215.87H251.112V219.591H258.215V215.87Z" fill="#9DA3AF"/>
<path d="M272.59 204.674H265.488V219.591H272.59V204.674Z" fill="#DBE0EA"/>
<path d="M272.59 215.87H265.488V219.591H272.59V215.87Z" fill="#9DA3AF"/>
<path d="M286.966 204.674H279.863V219.591H286.966V204.674Z" fill="#DBE0EA"/>
<path d="M286.966 215.87H279.863V219.591H286.966V215.87Z" fill="#9DA3AF"/>
<path d="M297.654 223.004H225.366V226.247H297.654V223.004Z" fill="#9DA3AF"/>
<path d="M243.839 230.377H236.737V245.294H243.839V230.377Z" fill="#DBE0EA"/>
<path d="M243.839 241.574H236.737V245.294H243.839V241.574Z" fill="#9DA3AF"/>
<path d="M272.59 230.377H265.488V245.294H272.59V230.377Z" fill="#DBE0EA"/>
<path d="M272.59 241.574H265.488V245.294H272.59V241.574Z" fill="#9DA3AF"/>
<path d="M286.966 230.377H279.863V245.294H286.966V230.377Z" fill="#DBE0EA"/>
<path d="M286.966 241.574H279.863V245.294H286.966V241.574Z" fill="#9DA3AF"/>
<path d="M297.654 248.708H225.366V251.951H297.654V248.708Z" fill="#9DA3AF"/>
<path d="M243.839 256.115H236.737V271.032H243.839V256.115Z" fill="#DBE0EA"/>
<path d="M243.839 267.312H236.737V271.033H243.839V267.312Z" fill="#9DA3AF"/>
<path d="M258.215 256.115H251.112V271.032H258.215V256.115Z" fill="#DBE0EA"/>
<path d="M258.215 267.312H251.112V271.033H258.215V267.312Z" fill="#9DA3AF"/>
<path d="M272.59 256.115H265.488V271.032H272.59V256.115Z" fill="#DBE0EA"/>
<path d="M272.59 267.312H265.488V271.033H272.59V267.312Z" fill="#9DA3AF"/>
<path d="M286.966 256.115H279.863V271.032H286.966V256.115Z" fill="#DBE0EA"/>
<path d="M286.966 267.312H279.863V271.033H286.966V267.312Z" fill="#9DA3AF"/>
<path d="M297.654 274.446H225.366V277.689H297.654V274.446Z" fill="#9DA3AF"/>
<path d="M243.839 281.819H236.737V296.736H243.839V281.819Z" fill="#DBE0EA"/>
<path d="M243.839 293.015H236.737V296.736H243.839V293.015Z" fill="#9DA3AF"/>
<path d="M258.215 281.819H251.112V296.736H258.215V281.819Z" fill="#DBE0EA"/>
<path d="M258.215 293.015H251.112V296.736H258.215V293.015Z" fill="#9DA3AF"/>
<path d="M272.59 281.819H265.488V296.736H272.59V281.819Z" fill="#DBE0EA"/>
<path d="M272.59 293.015H265.488V296.736H272.59V293.015Z" fill="#9DA3AF"/>
<path d="M286.966 281.819H279.863V296.736H286.966V281.819Z" fill="#DBE0EA"/>
<path d="M286.966 293.015H279.863V296.736H286.966V293.015Z" fill="#9DA3AF"/>
<path d="M297.654 300.15H225.366V303.392H297.654V300.15Z" fill="#9DA3AF"/>
<path d="M297.654 194.843H225.366V201.84H297.654V194.843Z" fill="#9DA3AF"/>
<path d="M225.366 169.378V177.332L268.015 187.401V179.311L225.366 169.378Z" fill="#DBE0EA"/>
<path d="M236.737 180.028V181.701L265.488 189.449V186.821L236.737 180.028Z" fill="#9DA3AF"/>
<path d="M225.366 169.378C225.366 169.378 257.02 178.39 268.015 179.311L225.366 169.378Z" fill="white"/>
<path d="M225.366 194.843V201.84C225.366 201.84 226.185 196.788 225.366 194.843Z" fill="white"/>
<path d="M226.459 201.841V222.97C226.459 223.004 227.278 207.712 226.459 201.841Z" fill="white"/>
<path d="M226.459 226.213V248.708C226.459 248.708 227.278 232.46 226.459 226.213Z" fill="white"/>
<path d="M226.459 251.951V274.446C226.459 274.446 227.278 258.163 226.459 251.951Z" fill="white"/>
<path d="M226.459 277.654V300.149C226.459 300.149 227.278 283.901 226.459 277.654Z" fill="white"/>
<path d="M226.459 303.392V319.948C226.459 319.948 227.278 307.966 226.459 303.392Z" fill="white"/>
<path d="M362.566 244.373H329.205V184.978L362.566 184.739V244.373Z" fill="#B6BCCC"/>
<path d="M335.18 192.863H331.8V241.027H335.18V192.863Z" fill="#DBE0EA"/>
<path d="M335.18 228.978H331.8V241.027H335.18V228.978Z" fill="#9DA3AF"/>
<path d="M340.166 192.863H336.785V241.027H340.166V192.863Z" fill="#DBE0EA"/>
<path d="M340.166 228.978H336.785V241.027H340.166V228.978Z" fill="#9DA3AF"/>
<path d="M345.117 192.863H341.737V241.027H345.117V192.863Z" fill="#DBE0EA"/>
<path d="M345.117 228.978H341.737V241.027H345.117V228.978Z" fill="#9DA3AF"/>
<path d="M350.102 192.863H346.722V241.027H350.102V192.863Z" fill="#DBE0EA"/>
<path d="M350.102 228.978H346.722V241.027H350.102V228.978Z" fill="#9DA3AF"/>
<path d="M355.054 192.863H351.673V241.027H355.054V192.863Z" fill="#DBE0EA"/>
<path d="M355.054 228.978H351.673V241.027H355.054V228.978Z" fill="#9DA3AF"/>
<path d="M360.039 192.863H356.659V241.027H360.039V192.863Z" fill="#DBE0EA"/>
<path d="M360.039 228.978H356.659V241.027H360.039V228.978Z" fill="#9DA3AF"/>
<path d="M363.112 184.739H328.659V188.084H363.112V184.739Z" fill="#9DA3AF"/>
<path d="M328.659 184.739V188.084C328.659 188.084 329.034 185.66 328.659 184.739Z" fill="white"/>
<path d="M366.971 318.173H323.093V240.14L366.971 239.833V318.173Z" fill="#B6BCCC"/>
<path d="M333.951 245.977H329.512V255.33H333.951V245.977Z" fill="#DBE0EA"/>
<path d="M333.951 253.009H329.512V255.33H333.951V253.009Z" fill="#9DA3AF"/>
<path d="M342.966 245.977H338.527V255.33H342.966V245.977Z" fill="#DBE0EA"/>
<path d="M342.966 253.009H338.527V255.33H342.966V253.009Z" fill="#9DA3AF"/>
<path d="M351.98 245.977H347.541V255.33H351.98V245.977Z" fill="#DBE0EA"/>
<path d="M351.98 253.009H347.541V255.33H351.98V253.009Z" fill="#9DA3AF"/>
<path d="M360.961 245.977H356.522V255.33H360.961V245.977Z" fill="#DBE0EA"/>
<path d="M360.961 253.009H356.522V255.33H360.961V253.009Z" fill="#9DA3AF"/>
<path d="M367.654 257.447H322.41V259.461H367.654V257.447Z" fill="#9DA3AF"/>
<path d="M333.951 262.089H329.512V271.442H333.951V262.089Z" fill="#DBE0EA"/>
<path d="M333.951 269.087H329.512V271.408H333.951V269.087Z" fill="#9DA3AF"/>
<path d="M342.966 262.089H338.527V271.442H342.966V262.089Z" fill="#DBE0EA"/>
<path d="M342.966 269.087H338.527V271.408H342.966V269.087Z" fill="#9DA3AF"/>
<path d="M351.98 262.089H347.541V271.442H351.98V262.089Z" fill="#DBE0EA"/>
<path d="M351.98 269.087H347.541V271.408H351.98V269.087Z" fill="#9DA3AF"/>
<path d="M360.961 262.089H356.522V271.442H360.961V262.089Z" fill="#DBE0EA"/>
<path d="M360.961 269.087H356.522V271.408H360.961V269.087Z" fill="#9DA3AF"/>
<path d="M367.654 273.558H322.41V275.572H367.654V273.558Z" fill="#9DA3AF"/>
<path d="M333.951 278.201H329.512V287.554H333.951V278.201Z" fill="#DBE0EA"/>
<path d="M333.951 285.198H329.512V287.52H333.951V285.198Z" fill="#9DA3AF"/>
<path d="M342.966 278.201H338.527V287.554H342.966V278.201Z" fill="#DBE0EA"/>
<path d="M342.966 285.198H338.527V287.52H342.966V285.198Z" fill="#9DA3AF"/>
<path d="M351.98 278.201H347.541V287.554H351.98V278.201Z" fill="#DBE0EA"/>
<path d="M351.98 285.198H347.541V287.52H351.98V285.198Z" fill="#9DA3AF"/>
<path d="M360.961 278.201H356.522V287.554H360.961V278.201Z" fill="#DBE0EA"/>
<path d="M360.961 285.198H356.522V287.52H360.961V285.198Z" fill="#9DA3AF"/>
<path d="M367.654 289.67H322.41V291.684H367.654V289.67Z" fill="#9DA3AF"/>
<path d="M333.951 294.312H329.512V303.665H333.951V294.312Z" fill="#DBE0EA"/>
<path d="M333.951 301.31H329.512V303.631H333.951V301.31Z" fill="#9DA3AF"/>
<path d="M342.966 294.312H338.527V303.665H342.966V294.312Z" fill="#DBE0EA"/>
<path d="M342.966 301.31H338.527V303.631H342.966V301.31Z" fill="#9DA3AF"/>
<path d="M351.98 294.312H347.541V303.665H351.98V294.312Z" fill="#DBE0EA"/>
<path d="M351.98 301.31H347.541V303.631H351.98V301.31Z" fill="#9DA3AF"/>
<path d="M360.961 294.312H356.522V303.665H360.961V294.312Z" fill="#DBE0EA"/>
<path d="M360.961 301.31H356.522V303.631H360.961V301.31Z" fill="#9DA3AF"/>
<path d="M367.654 305.781H322.41V307.795H367.654V305.781Z" fill="#9DA3AF"/>
<path d="M367.654 239.833H322.41V244.236H367.654V239.833Z" fill="#9DA3AF"/>
<path d="M322.41 239.833V244.236C322.41 244.236 322.922 241.062 322.41 239.833Z" fill="white"/>
<path d="M323.093 244.236V257.481C323.093 257.447 323.605 247.889 323.093 244.236Z" fill="white"/>
<path d="M323.093 259.495V273.592C323.093 273.558 323.605 263.386 323.093 259.495Z" fill="white"/>
<path d="M323.093 275.572V289.67C323.093 289.67 323.605 279.498 323.093 275.572Z" fill="white"/>
<path d="M323.093 291.684V305.782C323.093 305.782 323.605 295.609 323.093 291.684Z" fill="white"/>
<path d="M323.093 307.796V318.173C323.093 318.173 323.605 310.663 323.093 307.796Z" fill="white"/>
<path d="M327.668 213.481V207.132H262.517V213.481H263.507V232.528H262.517V235.43H263.507V255.706H262.517V258.641H263.507V278.918H262.517V281.819H263.507V302.095H262.517V304.997H263.507V319.948H326.678V304.997H327.668V302.095H326.678V281.819H327.668V278.918H326.678V258.641H327.668V255.706H326.678V235.43H327.668V232.528H326.678V213.481H327.668Z" fill="#9DA3AF"/>
<path d="M332.176 319.948H269.005V207.609L332.176 207.132V319.948Z" fill="#ECEEF3"/>
<path d="M284.678 216.007H278.259V229.456H284.678V216.007Z" fill="#B6BCCC"/>
<path d="M284.678 226.11H278.259V229.49H284.678V226.11Z" fill="#DBE0EA"/>
<path d="M297.654 232.528H268.015V235.43H297.654V232.528Z" fill="#DBE0EA"/>
<path d="M284.678 239.219H278.259V252.668H284.678V239.219Z" fill="#B6BCCC"/>
<path d="M284.678 249.288H278.259V252.668H284.678V249.288Z" fill="#DBE0EA"/>
<path d="M333.166 255.706H268.015V258.607H333.166V255.706Z" fill="#DBE0EA"/>
<path d="M284.678 262.396H278.259V275.846H284.678V262.396Z" fill="#B6BCCC"/>
<path d="M284.678 272.5H278.259V275.88H284.678V272.5Z" fill="#DBE0EA"/>
<path d="M297.654 262.396H291.234V275.846H297.654V262.396Z" fill="#B6BCCC"/>
<path d="M297.654 272.5H291.234V275.88H297.654V272.5Z" fill="#DBE0EA"/>
<path d="M310.629 262.396H304.21V275.846H310.629V262.396Z" fill="#B6BCCC"/>
<path d="M310.629 272.5H304.21V275.88H310.629V272.5Z" fill="#DBE0EA"/>
<path d="M323.571 262.396H317.151V275.846H323.571V262.396Z" fill="#B6BCCC"/>
<path d="M323.571 272.5H317.151V275.88H323.571V272.5Z" fill="#DBE0EA"/>
<path d="M333.166 278.918H268.015V281.819H333.166V278.918Z" fill="#DBE0EA"/>
<path d="M284.678 285.574H278.259V299.023H284.678V285.574Z" fill="#B6BCCC"/>
<path d="M284.678 295.678H278.259V299.057H284.678V295.678Z" fill="#DBE0EA"/>
<path d="M297.654 285.574H291.234V299.023H297.654V285.574Z" fill="#B6BCCC"/>
<path d="M297.654 295.678H291.234V299.057H297.654V295.678Z" fill="#DBE0EA"/>
<path d="M310.629 285.574H304.21V299.023H310.629V285.574Z" fill="#B6BCCC"/>
<path d="M310.629 295.678H304.21V299.057H310.629V295.678Z" fill="#DBE0EA"/>
<path d="M323.571 285.574H317.151V299.023H323.571V285.574Z" fill="#B6BCCC"/>
<path d="M323.571 295.678H317.151V299.057H323.571V295.678Z" fill="#DBE0EA"/>
<path d="M333.166 302.095H268.015V304.997H333.166V302.095Z" fill="#DBE0EA"/>
<path d="M333.166 207.132H268.015V213.447H333.166V207.132Z" fill="#DBE0EA"/>
<path d="M205.868 325.273C205.868 325.273 216.59 309.605 218.571 299.876C218.571 299.876 225.024 307.079 225.024 313.018C225.024 313.018 229.839 309.946 235.302 312.028C235.302 312.028 237.146 308.683 244.795 309.332C252.444 309.98 260.673 315.476 260.673 315.476C260.673 315.476 273.717 310.526 281.946 313.018C290.176 315.51 299.771 308.717 307.317 309.366C314.863 310.014 320.361 312.609 325.858 313.018C331.356 313.428 334.771 309.468 336.819 309.741C338.868 310.014 343 310.936 345.049 311.175C347.097 311.414 356.727 304.928 359.458 306.089C362.19 307.284 367.005 311.175 367.005 311.175L373.356 309.366C373.356 309.366 377.932 305.304 380.356 308.001C382.78 310.697 393.537 310.39 395.005 312.609C396.507 314.828 404.737 319.231 404.737 319.231L205.868 325.273Z" fill="#DBE0EA"/>
<path d="M390.941 257.071H389.371V318.412H390.941V257.071Z" fill="#9DA3AF"/>
<path d="M391.556 318.412H388.756V281.853C388.756 281.068 389.371 280.454 390.156 280.454C390.941 280.454 391.556 281.068 391.556 281.853V318.412Z" fill="#9DA3AF"/>
<path d="M394.766 260.348H394.083V259.188C394.083 258.676 393.707 258.198 393.195 258.129L385.785 256.832C385.478 256.764 385.137 256.866 384.898 257.071C384.659 257.276 384.522 257.583 384.522 257.925V259.153H383.839V257.925C383.839 257.412 384.078 256.9 384.488 256.559C384.898 256.218 385.41 256.081 385.922 256.184L393.332 257.481C394.185 257.651 394.8 258.368 394.8 259.222V260.348H394.766Z" fill="#9DA3AF"/>
<path d="M384.283 261.372C385.282 261.372 386.093 260.715 386.093 259.904C386.093 259.094 385.282 258.436 384.283 258.436C383.283 258.436 382.473 259.094 382.473 259.904C382.473 260.715 383.283 261.372 384.283 261.372Z" fill="#9DA3AF"/>
<path d="M384.283 261.372C385.273 261.372 386.093 260.724 386.093 259.904H382.473C382.473 260.724 383.293 261.372 384.283 261.372Z" fill="#FAC600"/>
<path d="M394.424 262.055C395.254 262.055 395.927 261.505 395.927 260.826C395.927 260.147 395.254 259.597 394.424 259.597C393.595 259.597 392.922 260.147 392.922 260.826C392.922 261.505 393.595 262.055 394.424 262.055Z" fill="#9DA3AF"/>
<path d="M394.424 262.055C395.244 262.055 395.927 261.509 395.927 260.826H392.922C392.922 261.509 393.605 262.055 394.424 262.055Z" fill="#FAC600"/>
<path d="M616.273 379.548C623.376 366.747 631.298 350.942 638.332 333.363C463.502 310.595 291.302 318.651 205.902 325.273C197.332 334.967 184.629 341.487 166.02 343.638C71.5024 354.697 45.2439 412.829 45.2439 412.829H559.795C583.254 412.863 604.902 400.097 616.273 379.548Z" fill="#ECEEF3"/>
<path d="M483.341 318.719C468.454 318.446 473.576 318.856 459.405 318.856C321.078 364.324 136.141 412.761 136.141 412.761L135.902 412.829H302.741C374.551 384.019 515.951 319.572 515.951 319.572L483.341 318.719Z" fill="#DBE0EA"/>
<path d="M464.049 318.617C464.049 318.617 436.493 317.832 382.507 318.173C382.439 318.173 149.527 357.701 42.3073 380.742C-7.03416 391.358 0.409737 412.795 0.409737 412.795C0.409737 412.795 184.424 412.727 184.766 412.625C194.122 409.791 332.244 366.508 464.049 318.617Z" fill="#B6BCCC"/>
<path d="M411.498 318.514L0.273132 412.386C0.341425 412.659 0.409718 412.83 0.409718 412.83C0.409718 412.83 1.12679 412.83 2.4585 412.83L415.629 318.514C414.298 318.514 412.898 318.514 411.498 318.514Z" fill="white"/>
<path d="M603.605 278.644H533.537V154.051L603.605 153.539V278.644Z" fill="#B6BCCC"/>
<path d="M550.917 163.37H543.815V178.287H550.917V163.37Z" fill="#DBE0EA"/>
<path d="M550.917 174.567H543.815V178.287H550.917V174.567Z" fill="#9DA3AF"/>
<path d="M565.293 163.37H558.19V178.287H565.293V163.37Z" fill="#DBE0EA"/>
<path d="M565.293 174.567H558.19V178.287H565.293V174.567Z" fill="#9DA3AF"/>
<path d="M579.668 163.37H572.566V178.287H579.668V163.37Z" fill="#DBE0EA"/>
<path d="M579.668 174.567H572.566V178.287H579.668V174.567Z" fill="#9DA3AF"/>
<path d="M594.044 163.37H586.941V178.287H594.044V163.37Z" fill="#DBE0EA"/>
<path d="M594.044 174.567H586.941V178.287H594.044V174.567Z" fill="#9DA3AF"/>
<path d="M604.732 181.701H532.444V184.944H604.732V181.701Z" fill="#9DA3AF"/>
<path d="M550.917 189.108H543.815V204.025H550.917V189.108Z" fill="#DBE0EA"/>
<path d="M550.917 200.305H543.815V204.025H550.917V200.305Z" fill="#9DA3AF"/>
<path d="M565.293 189.108H558.19V204.025H565.293V189.108Z" fill="#DBE0EA"/>
<path d="M565.293 200.305H558.19V204.025H565.293V200.305Z" fill="#9DA3AF"/>
<path d="M579.668 189.108H572.566V204.025H579.668V189.108Z" fill="#DBE0EA"/>
<path d="M579.668 200.305H572.566V204.025H579.668V200.305Z" fill="#9DA3AF"/>
<path d="M594.044 189.108H586.941V204.025H594.044V189.108Z" fill="#DBE0EA"/>
<path d="M594.044 200.305H586.941V204.025H594.044V200.305Z" fill="#9DA3AF"/>
<path d="M604.732 207.439H532.444V210.682H604.732V207.439Z" fill="#9DA3AF"/>
<path d="M550.917 214.812H543.815V229.729H550.917V214.812Z" fill="#DBE0EA"/>
<path d="M550.917 226.008H543.815V229.729H550.917V226.008Z" fill="#9DA3AF"/>
<path d="M565.293 214.812H558.19V229.729H565.293V214.812Z" fill="#DBE0EA"/>
<path d="M565.293 226.008H558.19V229.729H565.293V226.008Z" fill="#9DA3AF"/>
<path d="M579.668 214.812H572.566V229.729H579.668V214.812Z" fill="#DBE0EA"/>
<path d="M579.668 226.008H572.566V229.729H579.668V226.008Z" fill="#9DA3AF"/>
<path d="M594.044 214.812H586.941V229.729H594.044V214.812Z" fill="#DBE0EA"/>
<path d="M594.044 226.008H586.941V229.729H594.044V226.008Z" fill="#9DA3AF"/>
<path d="M604.732 233.142H532.444V236.385H604.732V233.142Z" fill="#9DA3AF"/>
<path d="M550.917 240.55H543.815V255.467H550.917V240.55Z" fill="#DBE0EA"/>
<path d="M550.917 251.746H543.815V255.467H550.917V251.746Z" fill="#9DA3AF"/>
<path d="M565.293 240.55H558.19V255.467H565.293V240.55Z" fill="#DBE0EA"/>
<path d="M565.293 251.746H558.19V255.467H565.293V251.746Z" fill="#9DA3AF"/>
<path d="M579.668 240.55H572.566V255.467H579.668V240.55Z" fill="#DBE0EA"/>
<path d="M579.668 251.746H572.566V255.467H579.668V251.746Z" fill="#9DA3AF"/>
<path d="M594.044 240.55H586.941V255.467H594.044V240.55Z" fill="#DBE0EA"/>
<path d="M594.044 251.746H586.941V255.467H594.044V251.746Z" fill="#9DA3AF"/>
<path d="M604.732 258.88H532.444V262.123H604.732V258.88Z" fill="#9DA3AF"/>
<path d="M604.732 153.539H532.444V160.537H604.732V153.539Z" fill="#9DA3AF"/>
<path d="M532.444 153.539V160.537C532.444 160.571 533.263 155.485 532.444 153.539Z" fill="white"/>
<path d="M533.537 160.571V181.701C533.537 181.701 534.356 166.443 533.537 160.571Z" fill="white"/>
<path d="M533.537 184.944V207.439C533.537 207.439 534.356 191.156 533.537 184.944Z" fill="white"/>
<path d="M533.537 210.647V233.142C533.537 233.142 534.356 216.894 533.537 210.647Z" fill="white"/>
<path d="M533.537 236.385V258.88C533.537 258.88 534.356 242.598 533.537 236.385Z" fill="white"/>
<path d="M533.537 262.089V278.645C533.537 278.645 534.356 266.697 533.537 262.089Z" fill="white"/>
<path d="M597.39 132.41V209.453L654.005 210.067C649.395 191.122 637.546 160.435 597.39 132.41Z" fill="#B6BCCC"/>
<path d="M655.883 219.249H512.434V323.054H642.258C653.971 290.831 661.722 253.896 655.883 219.249Z" fill="#DBE0EA"/>
<path d="M548.424 248.606L532.956 286.803L544.907 248.708L538.283 248.879L519.605 302.027V307.967L555.493 307.898L555.424 248.401L548.424 248.606ZM533.741 249.015L519.639 288.1V295.849L536.985 248.947L533.741 249.015ZM519.639 249.391V282.809L529.78 249.118L519.639 249.391Z" fill="#F9FAFB"/>
<path d="M555.732 312.233H521.244V250.62L555.663 249.732L555.732 312.233ZM521.654 311.824H555.322L555.254 250.142L521.654 250.995V311.824Z" fill="#B6BCCC"/>
<path d="M553.273 250.005H552.863V312.029H553.273V250.005Z" fill="#B6BCCC"/>
<path d="M592.234 247.445L576.254 286.359L588.58 247.548L581.717 247.718L562.424 301.856V307.898L599.644 307.83L599.507 247.24L592.234 247.445ZM577.005 247.855L562.424 287.622V295.507L580.351 247.752L577.005 247.855ZM562.356 248.23L562.39 282.263L572.873 247.957L562.356 248.23Z" fill="#F9FAFB"/>
<path d="M599.883 312.234H564.132L564.063 249.527L599.746 248.606L599.883 312.234ZM564.541 311.824H599.439L599.302 249.015L564.439 249.903L564.541 311.824Z" fill="#B6BCCC"/>
<path d="M597.322 312.029H596.912L596.776 248.879L597.185 248.845L597.322 312.029Z" fill="#B6BCCC"/>
<path d="M637.649 246.25L621.088 285.881L633.859 246.353L626.756 246.558L606.815 301.686V307.83L645.434 307.762L645.229 246.046L637.649 246.25ZM621.839 246.66L606.746 287.178L606.78 295.2L625.322 246.558L621.839 246.66ZM606.678 247.07L606.746 281.717L617.605 246.797L606.678 247.07Z" fill="#F9FAFB"/>
<path d="M645.639 312.234H608.556L608.419 248.367L645.434 247.411L645.639 312.234ZM609 311.824H645.229L645.024 247.855L608.863 248.777L609 311.824Z" fill="#B6BCCC"/>
<path d="M643.01 312.029H642.566L642.361 247.684H642.805L643.01 312.029Z" fill="#B6BCCC"/>
<path d="M467.498 295.132V342.306L630.785 350.943C638.093 335.07 645.059 317.081 650.146 298.204L467.498 295.132Z" fill="#DBE0EA"/>
<path d="M464.049 292.435V295.098L650.112 298.17C650.42 296.975 650.727 295.78 651.034 294.586L464.049 292.435Z" fill="#ECEEF3"/>
<path d="M467.498 295.132V296.395L642.463 302.095C651.034 303.29 630.751 350.977 630.751 350.977C640.859 329.745 648.985 302.266 648.985 302.266C649.361 300.935 649.737 299.569 650.112 298.238L467.498 295.132Z" fill="#B6BCCC"/>
<path d="M467.498 295.132V342.306C467.498 342.306 470.195 315.852 467.498 295.132Z" fill="white"/>
<path d="M467.498 342.306L630.785 350.943C630.785 350.943 474.259 344.901 467.498 342.306Z" fill="#B6BCCC"/>
<path d="M493.517 222.424V241.813L657.727 237.239C657.351 228.159 656.19 219.113 654.039 210.306L493.517 222.424Z" fill="#DBE0EA"/>
<path d="M657.761 237.273L493.517 241.847V240.891L657.59 234.508L657.761 237.273Z" fill="#B6BCCC"/>
<path d="M493.517 222.424V241.847L494.337 223.209L657.863 210.033L493.517 222.424Z" fill="#F9FAFB"/>
<path d="M643.01 200.202L631.093 193.034L597.322 196.686L592.507 200.202L638.332 205.527L652.707 205.083C652.229 203.445 651.717 201.807 651.171 200.202H643.01Z" fill="#DBE0EA"/>
<path d="M638.332 205.527L631.434 196.413L592.507 200.202L585.576 210.033L499.083 217.85L493.517 222.458L654.039 210.34C653.629 208.599 653.151 206.859 652.673 205.118L638.332 205.527Z" fill="#ECEEF3"/>
<path d="M592.507 200.202L631.4 196.413L638.332 205.527L652.673 205.084L654.073 210.34L652.263 206.005L608.419 207.985L637.307 205.698L631.229 197.471L592.507 200.202Z" fill="white"/>
<path d="M500.517 240.653L497.546 240.755L497.649 229.422L500.62 229.217L500.517 240.653Z" fill="#B6BCCC"/>
<path d="M505.332 240.516L502.327 240.618L502.429 229.08L505.434 228.876L505.332 240.516Z" fill="#B6BCCC"/>
<path d="M510.283 240.345L507.176 240.448L507.278 228.773L510.385 228.568L510.283 240.345Z" fill="#B6BCCC"/>
<path d="M515.336 240.174L512.161 240.277L512.263 228.432L515.439 228.193L515.336 240.174Z" fill="#B6BCCC"/>
<path d="M520.493 240.004L517.249 240.106L517.351 228.091L520.595 227.852L520.493 240.004Z" fill="#B6BCCC"/>
<path d="M525.751 239.833L522.439 239.936L522.576 227.715L525.854 227.51L525.751 239.833Z" fill="#B6BCCC"/>
<path d="M531.146 239.662L527.766 239.765L527.868 227.374L531.249 227.135L531.146 239.662Z" fill="#B6BCCC"/>
<path d="M536.644 239.458L533.195 239.594L533.332 226.998L536.781 226.759L536.644 239.458Z" fill="#B6BCCC"/>
<path d="M542.278 239.287L538.761 239.389L538.898 226.623L542.415 226.384L542.278 239.287Z" fill="#B6BCCC"/>
<path d="M548.049 239.082L544.463 239.219L544.566 226.213L548.185 225.974L548.049 239.082Z" fill="#B6BCCC"/>
<path d="M553.956 238.911L550.268 239.014L550.405 225.838L554.093 225.565L553.956 238.911Z" fill="#B6BCCC"/>
<path d="M560 238.707L556.21 238.809L556.346 225.428L560.137 225.155L560 238.707Z" fill="#B6BCCC"/>
<path d="M566.215 238.502L562.322 238.604L562.459 225.018L566.317 224.745L566.215 238.502Z" fill="#B6BCCC"/>
<path d="M572.532 238.297L568.571 238.399L568.707 224.575L572.668 224.302L572.532 238.297Z" fill="#B6BCCC"/>
<path d="M579.02 238.058L574.956 238.195L575.093 224.131L579.156 223.858L579.02 238.058Z" fill="#B6BCCC"/>
<path d="M585.678 237.853L581.512 237.99L581.649 223.687L585.815 223.414L585.678 237.853Z" fill="#B6BCCC"/>
<path d="M592.507 237.614L588.239 237.751L588.376 223.243L592.644 222.936L592.507 237.614Z" fill="#B6BCCC"/>
<path d="M599.507 237.375L595.137 237.546L595.273 222.765L599.644 222.458L599.507 237.375Z" fill="#B6BCCC"/>
<path d="M606.712 237.136L602.205 237.307L602.341 222.287L606.849 221.98L606.712 237.136Z" fill="#B6BCCC"/>
<path d="M614.054 236.898L609.444 237.068L609.58 221.81L614.224 221.469L614.054 236.898Z" fill="#B6BCCC"/>
<path d="M621.634 236.659L616.888 236.829L617.025 221.298L621.771 220.956L621.634 236.659Z" fill="#B6BCCC"/>
<path d="M629.385 236.42L624.537 236.556L624.673 220.752L629.556 220.444L629.385 236.42Z" fill="#B6BCCC"/>
<path d="M637.376 236.146L632.39 236.317L632.527 220.239L637.546 219.898L637.376 236.146Z" fill="#B6BCCC"/>
<path d="M645.571 235.874L640.449 236.044L640.585 219.693L645.741 219.318L645.571 235.874Z" fill="#B6BCCC"/>
<path d="M654.005 235.6L648.712 235.771L648.883 219.113L654.176 218.772L654.005 235.6Z" fill="#B6BCCC"/>
<path d="M482.454 307.557L475.658 307.352C475.146 307.352 474.771 306.943 474.771 306.431V304.758C474.771 304.246 475.215 303.836 475.727 303.836L482.522 304.041C483.034 304.041 483.41 304.451 483.41 304.963V306.635C483.41 307.148 482.966 307.557 482.454 307.557Z" fill="#B6BCCC"/>
<path d="M486.039 303.597L479.244 303.393C478.732 303.393 478.356 302.983 478.356 302.471V300.798C478.356 300.286 478.8 299.877 479.312 299.877L486.107 300.082C486.619 300.082 486.995 300.491 486.995 301.003V302.676C486.961 303.188 486.551 303.632 486.039 303.597Z" fill="#B6BCCC"/>
<path d="M491.776 307.933L484.98 307.728C484.468 307.728 484.093 307.318 484.093 306.806V305.134C484.093 304.622 484.537 304.212 485.049 304.212L491.844 304.417C492.356 304.417 492.732 304.826 492.732 305.338V307.011C492.732 307.523 492.288 307.933 491.776 307.933Z" fill="#B6BCCC"/>
<path d="M577.893 345.652L571.097 345.447C570.585 345.447 570.21 345.037 570.21 344.525V342.853C570.21 342.341 570.654 341.931 571.166 341.931L577.961 342.136C578.473 342.136 578.849 342.545 578.849 343.057V344.73C578.815 345.242 578.405 345.652 577.893 345.652Z" fill="#B6BCCC"/>
<path d="M581.444 341.692L574.649 341.487C574.136 341.487 573.761 341.077 573.761 340.565V338.893C573.761 338.381 574.205 337.971 574.717 337.971L581.512 338.176C582.024 338.176 582.4 338.586 582.4 339.098V340.77C582.4 341.282 581.956 341.692 581.444 341.692Z" fill="#B6BCCC"/>
<path d="M587.18 346.027L580.385 345.822C579.873 345.822 579.497 345.413 579.497 344.901V343.228C579.497 342.716 579.941 342.306 580.454 342.306L587.249 342.511C587.761 342.511 588.136 342.921 588.136 343.433V345.105C588.136 345.617 587.727 346.027 587.18 346.027Z" fill="#B6BCCC"/>
<path d="M551.532 311.209L544.737 311.005C544.224 311.005 543.849 310.595 543.849 310.083V308.41C543.849 307.898 544.293 307.489 544.805 307.489L551.6 307.694C552.112 307.694 552.488 308.103 552.488 308.615V310.288C552.488 310.8 552.044 311.209 551.532 311.209Z" fill="#B6BCCC"/>
<path d="M555.117 307.25L548.322 307.045C547.81 307.045 547.434 306.635 547.434 306.123V304.451C547.434 303.939 547.878 303.529 548.39 303.529L555.185 303.734C555.697 303.734 556.073 304.143 556.073 304.656V306.328C556.039 306.84 555.629 307.25 555.117 307.25Z" fill="#B6BCCC"/>
<path d="M560.854 311.585L554.058 311.38C553.546 311.38 553.171 310.971 553.171 310.459V308.786C553.171 308.274 553.615 307.864 554.127 307.864L560.922 308.069C561.434 308.069 561.81 308.479 561.81 308.991V310.663C561.81 311.175 561.366 311.585 560.854 311.585Z" fill="#B6BCCC"/>
<path d="M621.293 318.822L614.498 318.617C613.985 318.617 613.61 318.207 613.61 317.695V316.022C613.61 315.51 614.054 315.101 614.566 315.101L621.361 315.306C621.873 315.306 622.249 315.715 622.249 316.227V317.9C622.249 318.412 621.805 318.822 621.293 318.822Z" fill="#B6BCCC"/>
<path d="M624.878 314.862L618.083 314.657C617.571 314.657 617.195 314.247 617.195 313.735V312.063C617.195 311.551 617.639 311.141 618.151 311.141L624.946 311.346C625.459 311.346 625.834 311.756 625.834 312.268V313.94C625.834 314.452 625.39 314.896 624.878 314.862Z" fill="#B6BCCC"/>
<path d="M630.615 319.197L623.819 318.992C623.307 318.992 622.932 318.583 622.932 318.071V316.398C622.932 315.886 623.376 315.476 623.888 315.476L630.683 315.681C631.195 315.681 631.571 316.091 631.571 316.603V318.275C631.571 318.787 631.127 319.197 630.615 319.197Z" fill="#B6BCCC"/>
<path d="M612.346 335.07L605.551 334.865C605.039 334.865 604.663 334.455 604.663 333.943V332.271C604.663 331.759 605.107 331.349 605.62 331.349L612.415 331.554C612.927 331.554 613.302 331.964 613.302 332.476V334.148C613.268 334.66 612.859 335.104 612.346 335.07Z" fill="#B6BCCC"/>
<path d="M615.898 331.11L609.102 330.905C608.59 330.905 608.215 330.496 608.215 329.984V328.311C608.215 327.799 608.658 327.389 609.171 327.389L615.966 327.594C616.478 327.594 616.854 328.004 616.854 328.516V330.188C616.854 330.735 616.41 331.144 615.898 331.11Z" fill="#B6BCCC"/>
<path d="M621.634 335.445L614.839 335.241C614.327 335.241 613.951 334.831 613.951 334.319V332.646C613.951 332.134 614.395 331.725 614.907 331.725L621.703 331.929C622.215 331.929 622.59 332.339 622.59 332.851V334.524C622.59 335.07 622.181 335.479 621.634 335.445Z" fill="#B6BCCC"/>
<path d="M499.561 332.919L492.766 332.715C492.254 332.715 491.878 332.305 491.878 331.793V330.12C491.878 329.608 492.322 329.199 492.834 329.199L499.629 329.403C500.141 329.403 500.517 329.813 500.517 330.325V331.998C500.517 332.51 500.073 332.919 499.561 332.919Z" fill="#B6BCCC"/>
<path d="M503.146 328.96L496.351 328.755C495.839 328.755 495.463 328.345 495.463 327.833V326.161C495.463 325.649 495.907 325.239 496.419 325.239L503.214 325.444C503.727 325.444 504.102 325.853 504.102 326.365V328.038C504.068 328.55 503.658 328.96 503.146 328.96Z" fill="#B6BCCC"/>
<path d="M508.883 333.295L502.088 333.09C501.575 333.09 501.2 332.68 501.2 332.168V330.496C501.2 329.984 501.644 329.574 502.156 329.574L508.951 329.779C509.463 329.779 509.839 330.188 509.839 330.701V332.373C509.805 332.885 509.395 333.295 508.883 333.295Z" fill="#B6BCCC"/>
<path d="M199.893 221.844H196.683V345.822H199.893V221.844Z" fill="#9DA3AF"/>
<path d="M201.122 345.822H195.488V271.92C195.488 270.35 196.751 269.087 198.322 269.087C199.893 269.087 201.156 270.35 201.156 271.92V345.822H201.122Z" fill="#9DA3AF"/>
<path d="M207.576 228.5H206.21V226.145C206.21 225.087 205.458 224.165 204.4 223.994L189.444 221.332C188.795 221.195 188.146 221.4 187.634 221.81C187.122 222.219 186.849 222.834 186.849 223.516V226.042H185.483V223.516C185.483 222.458 185.961 221.468 186.78 220.786C187.6 220.103 188.658 219.83 189.717 220.001L204.673 222.663C206.38 222.97 207.61 224.438 207.61 226.179V228.5H207.576Z" fill="#9DA3AF"/>
<path d="M186.405 230.548C188.423 230.548 190.059 229.219 190.059 227.579C190.059 225.938 188.423 224.609 186.405 224.609C184.387 224.609 182.751 225.938 182.751 227.579C182.751 229.219 184.387 230.548 186.405 230.548Z" fill="#9DA3AF"/>
<path d="M186.405 230.548C188.419 230.548 190.059 229.217 190.059 227.578H182.751C182.717 229.217 184.356 230.548 186.405 230.548Z" fill="#FAC600"/>
<path d="M206.893 231.914C208.571 231.914 209.932 230.798 209.932 229.422C209.932 228.046 208.571 226.93 206.893 226.93C205.214 226.93 203.854 228.046 203.854 229.422C203.854 230.798 205.214 231.914 206.893 231.914Z" fill="#9DA3AF"/>
<path d="M206.893 231.914C208.566 231.914 209.932 230.787 209.932 229.422H203.854C203.854 230.821 205.219 231.914 206.893 231.914Z" fill="#FAC600"/>
<path d="M315.034 240.55H312.78V327.867H315.034V240.55Z" fill="#9DA3AF"/>
<path d="M315.888 327.867H311.927V275.845C311.927 274.753 312.815 273.865 313.907 273.865C315 273.865 315.888 274.753 315.888 275.845V327.867Z" fill="#9DA3AF"/>
<path d="M320.429 245.26H319.473V243.588C319.473 242.837 318.927 242.188 318.21 242.052L307.693 240.174C307.249 240.106 306.771 240.208 306.429 240.516C306.088 240.823 305.883 241.232 305.883 241.71V243.485H304.927V241.71C304.927 240.959 305.268 240.243 305.849 239.765C306.429 239.287 307.18 239.082 307.898 239.219L318.415 241.096C319.61 241.301 320.463 242.359 320.463 243.554V245.26H320.429Z" fill="#9DA3AF"/>
<path d="M305.507 246.66C306.922 246.66 308.068 245.728 308.068 244.578C308.068 243.428 306.922 242.495 305.507 242.495C304.093 242.495 302.946 243.428 302.946 244.578C302.946 245.728 304.093 246.66 305.507 246.66Z" fill="#9DA3AF"/>
<path d="M305.507 246.694C306.941 246.694 308.068 245.738 308.068 244.612H302.912C302.946 245.738 304.107 246.694 305.507 246.694Z" fill="#FAC600"/>
<path d="M319.951 247.65C321.139 247.65 322.102 246.87 322.102 245.909C322.102 244.948 321.139 244.168 319.951 244.168C318.763 244.168 317.8 244.948 317.8 245.909C317.8 246.87 318.763 247.65 319.951 247.65Z" fill="#9DA3AF"/>
<path d="M319.951 247.65C321.146 247.65 322.102 246.865 322.102 245.909H317.8C317.8 246.865 318.79 247.65 319.951 247.65Z" fill="#FAC600"/>
<path d="M297.517 149.75L297.824 198.256L278.122 200.577L271.839 206.141L274.741 215.119L273.478 225.018L256.2 229.763V238.775L358.4 238.16L357.82 148.283L297.517 149.75Z" fill="#F9FAFB"/>
<path d="M420.785 394.021C420.785 394.021 416.073 392.655 416.893 387.262C417.746 381.869 417.439 380.537 414.024 375.11C410.644 369.717 410.61 366.576 414.366 362.924C418.122 359.271 423.756 361.968 423.756 367.703C423.756 373.437 421.332 377.056 426.658 379.787C431.985 382.517 433.932 388.866 431.917 391.973C429.902 395.045 424.439 397.537 420.785 394.021Z" fill="#9DA3AF"/>
<path d="M472.893 384.087C472.893 384.087 478.971 377.329 485.732 378.694C485.732 378.694 481.976 384.634 481.668 389.071C481.668 389.071 486.756 386.545 489.112 383.78C489.112 383.78 488.088 390.812 485.732 395.215C485.732 395.215 487.405 393.543 493.141 397.229C493.141 397.229 487.405 398.902 487.063 400.95C487.063 400.95 489.078 400.404 491.776 405.9H463.093C463.127 405.9 458.688 393.202 472.893 384.087Z" fill="#B6BCCC"/>
<path d="M451.551 382.108C451.551 382.108 463.639 378.353 465.654 371.731C467.668 365.143 469.751 357.701 477.81 358.008C485.902 358.316 478.834 368.351 477.81 374.53C476.785 380.708 484.366 384.668 477.776 390.232C471.185 395.796 463.093 399.073 463.093 405.934H451.517V382.108H451.551Z" fill="#DBE0EA"/>
<path d="M457.049 405.9C457.049 405.9 457.288 396.547 463.127 390.471C468.966 384.395 466.678 366.952 477.81 359.613C477.81 359.613 473.507 363.06 471.22 372.209C468.932 381.357 468.181 388.696 463.878 393.27C459.576 397.844 460.088 405.9 460.088 405.9H457.049Z" fill="#B6BCCC"/>
<path d="M451.551 325.717H431.883C431.883 325.717 431.883 245.431 431.883 225.325C431.883 220.41 451.551 219.488 451.551 224.404C451.551 243.792 451.551 325.717 451.551 325.717Z" fill="#615D5C"/>
<path d="M460.088 405.9H423.346C423.346 405.9 423.346 299.672 423.346 262.089C423.346 252.907 460.088 253.385 460.088 262.601C460.088 298.784 460.088 405.9 460.088 405.9Z" fill="#9DA3AF"/>
<path d="M423.346 262.123V262.942C423.346 253.76 460.088 254.238 460.088 263.454V262.635C460.088 253.419 423.346 252.907 423.346 262.123Z" fill="white"/>
<path d="M429.629 272.739C429.629 269.223 432.463 266.39 435.981 266.39C437.585 266.39 439.02 266.97 440.146 267.926C438.985 266.561 437.244 265.707 435.332 265.707C431.815 265.707 428.98 268.54 428.98 272.056V405.9H429.629V272.739V272.739Z" fill="white"/>
<path d="M426.146 261.611V405.934H428.98V272.056C428.98 269.326 430.688 267.004 433.112 266.117V259.461C430.312 259.904 427.888 260.621 426.146 261.611Z" fill="#B6BCCC"/>
<path d="M503.932 225.633L304.005 231.197V65.7782L503.932 0V225.633Z" fill="#B6BCCC"/>
<path d="M496.59 217.611L308.034 224.95V70.5571L496.59 10.616V217.611Z" fill="white"/>
<path d="M494.405 215.256L309.366 223.038V71.9909L494.405 13.7906V215.256Z" fill="#5C1331" fill-opacity="0.83"/>
<path d="M519.264 228.125L503.932 225.633V0L519.264 4.06207V228.125Z" fill="#DBE0EA"/>
<path d="M304.005 231.197L319.337 233.688L519.263 228.124L503.932 225.633L304.005 231.197Z" fill="#B6BCCC"/>
<path d="M519.263 4.06195L527.219 13.7904V224.95L519.263 228.124V4.06195Z" fill="#615D5C"/>
<path d="M519.264 102.712L504.615 86.2593L519.264 66.7682V64.959L504.581 42.9419L519.264 23.4166V21.6075L504.717 0.20481L503.932 0V0.921646L518.615 22.5291L503.932 42.0544V43.8635L518.615 65.8806L503.932 85.4059V87.0444L518.581 103.532L503.932 123.023V124.866L518.615 148.385L503.932 167.432V169.071L518.581 186.582L503.932 206.551V208.326L518.512 228.022L519.264 228.125V227.271L504.581 207.439L519.264 187.436V185.729L504.615 168.252L519.264 149.273V147.429L504.581 123.91L519.264 104.385V102.712Z" fill="#B6BCCC"/>
<path d="M417.507 104.761C417.507 104.761 432.873 114.967 434.888 117.595C436.902 120.224 440.044 170.744 440.966 176.205C440.966 176.205 434.102 183.544 430.79 178.731C427.478 173.918 417.507 124.286 417.507 124.286L400.912 117.595L417.507 104.761Z" fill="#F6B5BB"/>
<path d="M340.61 143.743C340.61 143.743 339.073 149.341 338.698 155.144C338.322 160.947 329.41 168.866 324.629 167.194C319.849 165.521 318.107 160.435 317.766 154.222C317.424 148.01 327.429 138.827 327.429 138.827L340.61 143.743Z" fill="#F6B5BB"/>
<path d="M330.127 139.851L327.054 141.695L324.151 147.156C324.151 147.156 330.229 152.311 333.2 151.935C337.946 151.355 338.834 148.453 338.834 148.453L330.127 139.851Z" fill="#FA9D1C"/>
<path d="M330.912 95.6123C330.912 95.6123 326.439 97.2849 324.39 105.648C322.341 114.045 318.551 135.789 315.068 141.695C315.068 141.695 321.761 148.658 331.971 148.897C342.215 149.102 348.566 145.108 348.566 145.108C348.566 145.108 347.063 129.611 347.337 124.456C347.61 119.336 341.976 99.2306 330.912 95.6123Z" fill="#F56161"/>
<path d="M344.434 147.395L330.571 116.435C328.795 121.965 331.561 135.448 333.439 143.162L329.99 142.821C329.99 142.821 324.493 145.654 327.839 148.01C329.273 148.999 332.722 148.965 334.873 148.829C337.878 148.897 344.434 147.395 344.434 147.395Z" fill="#5C1331"/>
<path d="M337.673 139.851C360.585 175.42 354.746 193.375 349.659 208.463C347.917 213.651 351.912 218.976 357.376 218.772L405.659 216.894C417.029 216.45 423.893 204.059 418.19 194.229C418.156 194.16 418.088 194.058 418.054 193.99C413.512 186.377 395.927 150.194 392.137 126.197C388.346 102.2 399.888 78.2376 371.546 82.5045C354.541 85.0646 329.956 91.3113 329.239 101.176C327.805 119.439 332.312 131.522 337.673 139.851Z" fill="#F56161"/>
<path d="M379.093 130.055C378.239 130.259 378.034 133.297 378.649 136.847C379.263 140.363 380.459 143.06 381.312 142.855C382.166 142.65 382.371 139.612 381.756 136.062C381.176 132.512 379.946 129.816 379.093 130.055Z" fill="#FA9D1C"/>
<path d="M375.985 112.543C375.132 112.748 374.927 115.786 375.541 119.336C376.156 122.852 377.385 125.549 378.239 125.31C379.093 125.105 379.298 122.067 378.683 118.517C378.068 115.001 376.839 112.339 375.985 112.543Z" fill="#FA9D1C"/>
<path d="M374.517 155.827C373.663 156.031 373.424 159.07 374.039 162.585C374.654 166.101 375.815 168.798 376.702 168.593C377.556 168.388 377.795 165.35 377.181 161.834C376.566 158.319 375.371 155.622 374.517 155.827Z" fill="#FA9D1C"/>
<path d="M384.488 116.81C383.634 117.015 383.429 120.087 384.044 123.603C384.659 127.153 385.888 129.816 386.741 129.611C387.595 129.406 387.8 126.334 387.185 122.818C386.571 119.268 385.341 116.571 384.488 116.81Z" fill="#FA9D1C"/>
<path d="M381.346 99.2648C380.493 99.5037 380.288 102.542 380.937 106.058C381.585 109.574 382.78 112.27 383.634 112.065C384.488 111.861 384.693 108.788 384.044 105.273C383.429 101.723 382.234 99.06 381.346 99.2648Z" fill="#FA9D1C"/>
<path d="M387.595 134.356C386.741 134.56 386.537 137.598 387.151 141.149C387.766 144.699 388.961 147.395 389.815 147.156C390.668 146.951 390.873 143.913 390.259 140.363C389.644 136.813 388.449 134.117 387.595 134.356Z" fill="#FA9D1C"/>
<path d="M372.844 95.0662C371.99 95.3051 371.785 98.309 372.434 101.859C373.083 105.375 374.278 108.072 375.132 107.833C375.985 107.628 376.19 104.59 375.541 101.04C374.927 97.5239 373.698 94.8272 372.844 95.0662Z" fill="#FA9D1C"/>
<path d="M362.122 85.9863C361.268 86.2252 361.063 89.2291 361.712 92.745C362.361 96.2609 363.556 98.9235 364.444 98.6845C365.298 98.4456 365.502 95.4417 364.854 91.9258C364.205 88.4099 362.976 85.7473 362.122 85.9863Z" fill="#FA9D1C"/>
<path d="M390.634 151.901C389.781 152.106 389.542 155.144 390.156 158.694C390.771 162.244 391.966 164.941 392.82 164.736C393.673 164.531 393.912 161.493 393.298 157.943C392.683 154.393 391.488 151.696 390.634 151.901Z" fill="#FA9D1C"/>
<path d="M371.478 138.35C370.624 138.554 370.42 141.592 371.034 145.108C371.649 148.624 372.844 151.321 373.698 151.116C374.551 150.911 374.79 147.873 374.176 144.357C373.561 140.807 372.332 138.111 371.478 138.35Z" fill="#FA9D1C"/>
<path d="M356.761 99.2307C355.907 99.4697 355.702 102.474 356.351 105.989C357 109.505 358.195 112.168 359.049 111.929C359.902 111.724 360.107 108.686 359.459 105.17C358.844 101.654 357.649 98.9918 356.761 99.2307Z" fill="#FA9D1C"/>
<path d="M359.902 116.64C359.049 116.844 358.844 119.883 359.459 123.398C360.073 126.914 361.268 129.577 362.156 129.372C363.01 129.167 363.215 126.129 362.6 122.613C361.985 119.097 360.79 116.401 359.902 116.64Z" fill="#FA9D1C"/>
<path d="M368.405 120.872C367.551 121.077 367.346 124.115 367.961 127.631C368.576 131.147 369.771 133.844 370.659 133.605C371.512 133.4 371.717 130.362 371.102 126.846C370.488 123.33 369.259 120.633 368.405 120.872Z" fill="#FA9D1C"/>
<path d="M363.01 134.049C362.156 134.253 361.951 137.291 362.566 140.807C363.18 144.323 364.376 146.986 365.229 146.781C366.083 146.576 366.288 143.538 365.707 140.022C365.058 136.506 363.863 133.844 363.01 134.049Z" fill="#FA9D1C"/>
<path d="M365.298 103.429C364.444 103.668 364.239 106.672 364.888 110.188C365.502 113.704 366.732 116.366 367.585 116.162C368.439 115.957 368.644 112.919 368.029 109.403C367.381 105.853 366.151 103.19 365.298 103.429Z" fill="#FA9D1C"/>
<path d="M340.712 103.361C339.859 103.6 339.654 106.604 340.302 110.086C340.917 113.567 342.146 116.23 343 116.025C343.854 115.82 344.059 112.782 343.444 109.3C342.795 105.785 341.566 103.156 340.712 103.361Z" fill="#FA9D1C"/>
<path d="M397.771 150.433C398.385 153.983 399.58 156.68 400.434 156.475C400.571 156.441 400.673 156.339 400.776 156.202C399.615 153.096 398.454 149.921 397.429 146.815C397.429 147.873 397.566 149.102 397.771 150.433Z" fill="#FA9D1C"/>
<path d="M349.215 107.56C348.361 107.764 348.156 110.802 348.805 114.284C349.419 117.766 350.649 120.428 351.502 120.224C352.356 120.019 352.561 116.981 351.946 113.499C351.298 109.983 350.068 107.321 349.215 107.56Z" fill="#FA9D1C"/>
<path d="M351.878 131.659C352.493 135.175 353.688 137.838 354.576 137.599C355.429 137.394 355.634 134.356 355.02 130.874C354.405 127.358 353.21 124.696 352.322 124.934C351.468 125.139 351.263 128.143 351.878 131.659Z" fill="#FA9D1C"/>
<path d="M401.254 161.22C400.4 161.425 400.161 164.463 400.776 168.013C401.39 171.563 402.551 174.294 403.439 174.055C404.293 173.85 404.532 170.812 403.917 167.228C403.337 163.746 402.141 161.015 401.254 161.22Z" fill="#FA9D1C"/>
<path d="M369.259 84.3819C369.907 87.8978 371.137 90.5604 371.99 90.3555C372.844 90.1166 373.049 87.0786 372.4 83.5627C372.332 83.1872 372.263 82.8117 372.161 82.4362C371.956 82.4704 371.751 82.5045 371.512 82.5386C370.693 82.6752 369.873 82.7776 369.054 82.9482C369.088 83.392 369.156 83.8699 369.259 84.3819Z" fill="#FA9D1C"/>
<path d="M407.161 196.516C406.307 196.721 406.068 199.759 406.649 203.309C407.229 206.859 408.39 209.589 409.278 209.385C410.132 209.18 410.371 206.142 409.79 202.558C409.21 199.042 408.015 196.311 407.161 196.516Z" fill="#FA9D1C"/>
<path d="M412.181 190.132C412.761 193.682 413.956 196.413 414.81 196.208C415.663 196.003 415.903 192.965 415.322 189.381C415.288 189.211 415.254 189.006 415.22 188.835C414.4 187.231 413.478 185.422 412.488 183.373C411.805 183.954 411.634 186.821 412.181 190.132Z" fill="#FA9D1C"/>
<path d="M355.02 185.49C355.873 185.285 356.112 182.281 355.532 178.765C354.951 175.25 353.756 172.587 352.902 172.792C352.868 172.792 352.834 172.826 352.8 172.826C353.824 177.264 354.268 181.326 354.302 185.046C354.542 185.388 354.815 185.558 355.02 185.49Z" fill="#FA9D1C"/>
<path d="M352.083 168.115C352.937 167.91 353.176 164.906 352.561 161.39C351.946 157.875 350.751 155.212 349.898 155.417C349.044 155.622 348.805 158.626 349.419 162.141C349.419 162.176 349.419 162.21 349.454 162.244C350.205 164.155 350.854 165.965 351.4 167.74C351.639 168.013 351.878 168.149 352.083 168.115Z" fill="#FA9D1C"/>
<path d="M357.58 155.007C358.434 154.802 358.673 151.764 358.059 148.283C357.444 144.767 356.249 142.104 355.395 142.309C354.541 142.514 354.337 145.552 354.917 149.034C355.532 152.55 356.727 155.212 357.58 155.007Z" fill="#FA9D1C"/>
<path d="M360.551 172.45C361.405 172.245 361.644 169.242 361.029 165.726C360.415 162.21 359.254 159.547 358.366 159.752C357.512 159.957 357.273 162.961 357.888 166.477C358.502 169.958 359.698 172.655 360.551 172.45Z" fill="#FA9D1C"/>
<path d="M346.073 90.1849C345.22 90.4238 345.015 93.4277 345.663 96.9095C346.312 100.391 347.507 103.054 348.395 102.849C349.249 102.61 349.454 99.6062 348.805 96.1244C348.156 92.6085 346.927 89.9801 346.073 90.1849Z" fill="#FA9D1C"/>
<path d="M343.819 120.702C342.966 120.907 342.761 123.945 343.376 127.426C343.99 130.908 345.185 133.571 346.073 133.366C346.927 133.161 347.132 130.157 346.517 126.641C345.902 123.125 344.673 120.463 343.819 120.702Z" fill="#FA9D1C"/>
<path d="M346.893 138.042C346.039 138.247 345.834 141.251 346.449 144.767C347.063 148.249 348.259 150.945 349.112 150.706C349.966 150.501 350.205 147.498 349.59 143.982C348.976 140.5 347.746 137.837 346.893 138.042Z" fill="#FA9D1C"/>
<path d="M402.073 210.784C401.493 207.234 400.332 204.503 399.444 204.708C398.59 204.913 398.351 207.951 398.932 211.501C399.341 214.027 400.059 216.143 400.741 217.065L402.039 217.031C402.483 215.973 402.517 213.549 402.073 210.784Z" fill="#FA9D1C"/>
<path d="M333.132 111.656C332.278 111.861 332.073 114.865 332.688 118.346C333.302 121.828 334.532 124.491 335.385 124.252C336.239 124.047 336.444 121.043 335.829 117.561C335.215 114.079 333.985 111.417 333.132 111.656Z" fill="#FA9D1C"/>
<path d="M329.41 99.9815C329.444 100.323 329.512 100.698 329.58 101.074C330.229 104.556 331.424 107.184 332.278 106.979C333.132 106.774 333.337 103.771 332.688 100.289C332.415 98.7527 332.005 97.3873 331.595 96.3632C330.537 97.4897 329.751 98.7185 329.41 99.9815Z" fill="#FA9D1C"/>
<path d="M338.663 141.456C339.346 140.807 339.449 138.042 338.902 134.902C338.288 131.42 337.093 128.757 336.205 128.962C335.351 129.167 335.146 132.171 335.761 135.653C335.863 136.233 336 136.813 336.102 137.325C336.615 138.213 337.127 139.066 337.639 139.851C338.015 140.397 338.356 140.909 338.663 141.456Z" fill="#FA9D1C"/>
<path d="M388.039 86.1227C388.073 86.1227 388.141 86.0886 388.176 86.0545C387.698 85.4742 387.185 84.928 386.571 84.4843C387.083 85.6107 387.595 86.2593 388.039 86.1227Z" fill="#FA9D1C"/>
<path d="M337.127 92.7791C337.776 96.2608 338.971 98.9234 339.859 98.6844C340.712 98.4455 340.917 95.4416 340.268 91.9598C340.2 91.5843 340.132 91.2088 340.029 90.8675C338.971 91.3454 337.98 91.8574 337.059 92.3694C337.093 92.506 337.127 92.6425 337.127 92.7791Z" fill="#FA9D1C"/>
<path d="M350.205 210.989C351.024 210.818 351.298 208.121 350.82 204.879C350.444 206.108 350.034 207.302 349.624 208.463C349.42 209.077 349.283 209.692 349.249 210.272C349.59 210.818 349.932 211.057 350.205 210.989Z" fill="#FA9D1C"/>
<path d="M353.21 88.5807C353.859 92.0966 355.054 94.725 355.941 94.5201C356.795 94.2812 357 91.2773 356.351 87.7614C356.215 87.0104 356.044 86.2936 355.873 85.6109C354.883 85.8498 353.893 86.1229 352.937 86.3619C352.971 87.0787 353.073 87.8297 353.21 88.5807Z" fill="#FA9D1C"/>
<path d="M377.761 88.5464C378.41 92.0623 379.605 94.759 380.493 94.52C381.346 94.2811 381.551 91.2431 380.902 87.7272C380.424 85.0305 379.571 82.8459 378.82 82.0607C378.512 82.0607 378.171 82.0266 377.829 82.0266C377.283 82.88 377.215 85.5425 377.761 88.5464Z" fill="#FA9D1C"/>
<path d="M350.99 215.7C350.956 215.7 350.922 215.734 350.888 215.734C351.298 216.28 351.81 216.758 352.356 217.167C351.878 216.177 351.4 215.597 350.99 215.7Z" fill="#FA9D1C"/>
<path d="M418.429 208.804C418.361 208.258 418.293 207.678 418.224 207.097C417.644 203.513 416.483 200.782 415.595 200.987C414.741 201.192 414.502 204.23 415.083 207.814C415.356 209.487 415.732 210.955 416.176 212.013C417.063 211.057 417.815 209.965 418.429 208.804Z" fill="#FA9D1C"/>
<path d="M385.922 214.437C385.341 210.887 384.18 208.19 383.293 208.395C382.439 208.6 382.2 211.603 382.746 215.153C382.883 216.075 383.088 216.963 383.327 217.748L386.229 217.645C386.195 216.69 386.093 215.597 385.922 214.437Z" fill="#FA9D1C"/>
<path d="M406.376 191.737C407.229 191.532 407.468 188.494 406.888 184.91C406.307 181.36 405.112 178.629 404.259 178.834C403.405 179.038 403.166 182.076 403.746 185.626C404.327 189.245 405.488 191.941 406.376 191.737Z" fill="#FA9D1C"/>
<path d="M357.922 202.933C358.776 202.728 359.015 199.724 358.434 196.208C357.854 192.692 356.658 190.03 355.805 190.201C354.951 190.405 354.712 193.409 355.293 196.925C355.873 200.441 357.068 203.138 357.922 202.933Z" fill="#FA9D1C"/>
<path d="M361.302 213.651C360.722 210.135 359.561 207.439 358.673 207.644C357.82 207.848 357.58 210.852 358.127 214.368C358.4 216.109 358.844 217.611 359.288 218.703L361.507 218.601C361.712 217.372 361.644 215.597 361.302 213.651Z" fill="#FA9D1C"/>
<path d="M369.771 218.089C369.19 214.573 368.029 211.876 367.176 212.081C366.322 212.286 366.083 215.085 366.595 218.43L369.839 218.294C369.771 218.226 369.771 218.157 369.771 218.089Z" fill="#FA9D1C"/>
<path d="M393.093 213.105C393.946 212.901 394.185 209.863 393.639 206.312C393.059 202.762 391.898 200.066 391.01 200.236C390.156 200.441 389.917 203.479 390.498 207.029C391.044 210.579 392.239 213.276 393.093 213.105Z" fill="#FA9D1C"/>
<path d="M376.941 216.723C377.795 216.519 378.068 213.515 377.488 209.965C376.907 206.449 375.746 203.718 374.859 203.923C374.005 204.128 373.766 207.131 374.312 210.682C374.893 214.232 376.054 216.928 376.941 216.723Z" fill="#FA9D1C"/>
<path d="M374.073 199.212C374.927 199.007 375.166 196.004 374.585 192.454C374.005 188.938 372.81 186.241 371.956 186.446C371.102 186.651 370.863 189.654 371.444 193.204C372.024 196.72 373.22 199.417 374.073 199.212Z" fill="#FA9D1C"/>
<path d="M379.639 186.104C380.493 185.9 380.732 182.862 380.151 179.346C379.571 175.83 378.376 173.133 377.522 173.338C376.668 173.543 376.429 176.581 377.01 180.097C377.59 183.613 378.751 186.309 379.639 186.104Z" fill="#FA9D1C"/>
<path d="M368.2 164.258C369.054 164.053 369.293 161.015 368.678 157.499C368.063 153.983 366.868 151.287 366.015 151.526C365.161 151.73 364.922 154.768 365.537 158.284C366.151 161.766 367.346 164.463 368.2 164.258Z" fill="#FA9D1C"/>
<path d="M371.171 181.735C372.024 181.53 372.263 178.492 371.683 174.976C371.102 171.46 369.907 168.764 369.019 168.969C368.166 169.173 367.927 172.211 368.541 175.727C369.122 179.243 370.317 181.94 371.171 181.735Z" fill="#FA9D1C"/>
<path d="M388.893 90.8676C388.039 91.1066 387.834 94.1446 388.483 97.6947C389.132 101.245 390.327 103.907 391.215 103.702C391.249 103.702 391.317 103.668 391.351 103.634C391.419 100.357 391.385 97.3192 391.078 94.5884C390.463 92.2672 389.576 90.697 388.893 90.8676Z" fill="#FA9D1C"/>
<path d="M382.542 203.65C383.395 203.445 383.634 200.407 383.054 196.891C382.473 193.341 381.278 190.644 380.424 190.849C379.571 191.054 379.332 194.092 379.912 197.608C380.493 201.158 381.654 203.855 382.542 203.65Z" fill="#FA9D1C"/>
<path d="M366.39 207.336C367.244 207.132 367.483 204.128 366.902 200.612C366.322 197.096 365.161 194.399 364.273 194.604C363.42 194.809 363.181 197.813 363.761 201.329C364.341 204.845 365.502 207.541 366.39 207.336Z" fill="#FA9D1C"/>
<path d="M395.756 182.315C396.61 182.111 396.849 179.073 396.268 175.523C395.688 171.973 394.493 169.276 393.605 169.481C392.751 169.685 392.512 172.723 393.127 176.274C393.707 179.824 394.902 182.52 395.756 182.315Z" fill="#FA9D1C"/>
<path d="M398.659 199.963C399.512 199.758 399.751 196.72 399.171 193.17C398.59 189.62 397.395 186.889 396.541 187.094C395.688 187.299 395.449 190.337 396.029 193.887C396.644 197.437 397.805 200.134 398.659 199.963Z" fill="#FA9D1C"/>
<path d="M363.488 189.893C364.341 189.689 364.58 186.685 364 183.169C363.42 179.653 362.224 176.956 361.371 177.161C360.517 177.366 360.278 180.37 360.859 183.886C361.439 187.402 362.634 190.064 363.488 189.893Z" fill="#FA9D1C"/>
<path d="M390.224 195.492C391.078 195.287 391.317 192.249 390.737 188.699C390.156 185.149 388.961 182.452 388.107 182.657C387.254 182.862 387.015 185.9 387.595 189.45C388.176 193 389.371 195.696 390.224 195.492Z" fill="#FA9D1C"/>
<path d="M384.351 160.367C385.205 160.162 385.444 157.124 384.829 153.574C384.215 150.024 383.02 147.361 382.166 147.566C381.312 147.771 381.107 150.809 381.688 154.359C382.268 157.875 383.463 160.571 384.351 160.367Z" fill="#FA9D1C"/>
<path d="M387.288 177.912C388.141 177.707 388.38 174.669 387.766 171.119C387.185 167.569 385.99 164.872 385.102 165.077C384.249 165.282 384.01 168.32 384.624 171.87C385.239 175.42 386.434 178.117 387.288 177.912Z" fill="#FA9D1C"/>
<path d="M349.59 150.229C349.59 150.229 353.824 145.245 358.024 144.767C358.024 144.767 350.888 143.163 347.678 143.948C347.678 143.948 362.668 136.984 382.473 146.986C382.507 146.952 367.859 140.5 349.59 150.229Z" fill="#5C1331"/>
<path d="M322.717 40.5524C322.717 40.5524 317.254 45.1948 317.322 50.7247C317.459 63.0133 332.38 76.4284 330.332 82.5385C328.283 88.6487 329.615 96.4315 329.615 96.4315C329.615 96.4315 332.79 106.979 337.571 107.867L349.727 86.1569L322.717 40.5524Z" fill="#88645F"/>
<path d="M340.439 77.5891C340.439 77.5891 347.883 84.7575 345.117 94.5884C345.117 94.5884 339.381 105.136 352.459 103.463C365.537 101.791 366.766 83.2555 366.766 83.2555C366.766 83.2555 361.132 78.3401 358.776 68.9188C358.81 68.9188 341.805 73.766 340.439 77.5891Z" fill="#F6B5BB"/>
<path d="M358.81 68.9188C358.81 68.9188 341.839 73.766 340.439 77.5891C340.439 77.5891 344.741 81.0709 345.254 86.2594C345.254 86.2594 346.005 88.3417 351.298 87.2152C354.712 86.4984 359.732 81.8219 362.327 77.5209C360.961 75.1655 359.629 72.2641 358.81 68.9188Z" fill="#FA9D1C"/>
<path d="M322.82 49.3252C321.967 54.2066 327.737 60.2143 330.606 70.1476C333.679 80.866 345.22 84.894 345.22 84.894C348.874 84.7233 353.245 80.7636 359.425 70.5231C365.606 60.2826 362.737 47.5844 355.362 38.5727C348.396 30.1072 326.371 28.7418 322.82 49.3252Z" fill="#F6B5BB"/>
<path d="M325.449 58.0638C325.449 58.0638 325.312 55.572 325.449 53.7969C325.449 53.7969 334.532 62.0235 345.868 60.8288L347.2 53.7969C347.2 53.7969 357.546 60.3509 359.459 70.5914C359.459 70.5914 362.122 62.6038 357.512 56.3571C352.902 50.0762 341.771 45.7752 341.771 45.7752H323.707C323.707 45.7752 321.761 49.5301 323.229 53.046C324.698 56.5619 325.449 58.0638 325.449 58.0638Z" fill="#FA9D1C"/>
<path d="M337.229 76.599C337.229 76.599 344.468 77.0428 349.59 74.6192C349.59 74.6192 348.737 79.2616 344.639 80.9342C340.541 82.6068 337.229 76.599 337.229 76.599Z" fill="#F9FAFB"/>
<path d="M334.259 62.8769C334.259 62.8769 336.82 69.2601 335.146 74.6193L339.893 73.5612C339.927 73.5612 337.4 66.3587 334.259 62.8769Z" fill="#FA9D1C"/>
<path d="M305.405 104.76C305.405 104.76 301.717 108.071 301.956 108.413C302.195 108.754 302.502 110.154 302.81 113.328C303.117 116.503 308.581 119.541 309.639 119.677C310.698 119.814 313.942 119.916 313.942 119.916L315.103 110.427L309.981 104.999L305.405 104.76Z" fill="#FA9D1C"/>
<path d="M323.639 76.5307C323.639 76.5307 328.044 75.1312 329.615 77.4182C331.185 79.7052 335.112 89.0924 327.054 91.9256L323.639 76.5307Z" fill="#E7B500"/>
<path d="M305.166 95.3052C305.166 95.3052 309.024 112.168 305.644 121.282C302.878 128.655 310.868 123.774 313.976 119.917C321.761 110.222 316.878 92.7792 316.878 92.7792C316.878 92.7792 307.215 93.3595 305.166 95.3052Z" fill="#FAC600"/>
<path d="M269.551 66.0513C269.551 66.0513 280.478 74.5168 290.756 77.0769C303.322 80.2173 308.137 75.5408 319.917 73.4586C328.215 71.9908 333.917 96.3632 322.58 97.319C314.18 98.0358 298.2 96.4656 279.283 118.653L269.551 66.0513Z" fill="#FAC600"/>
<path d="M269.75 123.535C283.335 120.514 291.424 104.923 287.817 88.7113C284.21 72.4994 270.273 61.8057 256.688 64.8262C243.103 67.8467 235.014 83.4376 238.621 99.6495C242.228 115.861 256.165 126.555 269.75 123.535Z" fill="#FCDA5C"/>
<path d="M273.866 110.468C282.094 108.638 286.995 99.2043 284.813 89.3962C282.631 79.5881 274.192 73.1202 265.963 74.9497C257.735 76.7792 252.834 86.2133 255.016 96.0214C257.198 105.83 265.638 112.297 273.866 110.468Z" fill="#E7B500"/>
<path d="M252.751 87.5906C252.751 87.5906 258.898 87.2833 268.015 83.1871C271.19 81.7535 274.98 82.7775 276.927 85.6449C278.907 88.5805 281.4 94.1786 279.317 99.0258C277.815 102.542 275.049 104.931 271.259 104.692C267.059 104.419 261.902 102.337 255.824 104.795L252.751 87.5906Z" fill="#FAC600"/>
<path d="M255.936 105.542C260.207 104.781 262.931 100.027 262.021 94.9233C261.112 89.8193 256.913 86.2982 252.642 87.0587C248.372 87.8193 245.648 92.5734 246.557 97.6774C247.467 102.781 251.666 106.303 255.936 105.542Z" fill="#FAC600"/>
<path d="M255.26 101.745C257.785 101.295 259.397 98.4929 258.861 95.4862C258.325 92.4794 255.844 90.4066 253.319 90.8563C250.794 91.306 249.182 94.108 249.717 97.1147C250.253 100.121 252.735 102.194 255.26 101.745Z" fill="#E7B500"/>
<path d="M296.834 78.0668C299.976 82.6068 303.459 90.3896 301.58 101.21C307.898 98.5137 313.395 97.8993 317.766 97.6262C317.424 92.5401 315.956 84.1087 310.493 75.848C305.985 77.2134 302.059 78.4082 296.834 78.0668Z" fill="#E7B500"/>
<path d="M311.278 98.0358C311.278 98.0358 310.39 100.664 315.956 103.634C315.956 103.634 317.288 108.037 317.39 110.666C317.493 113.294 313.941 119.916 313.941 119.916C313.941 119.916 312.132 142.753 313.532 152.481C315.444 165.657 320.907 168.559 324.527 168.183C334.429 167.125 333.371 157.84 331.083 147.327C328.556 135.687 326.166 136.131 324.015 118.005C323.502 113.567 320.259 102.576 319.063 100.63C317.868 98.6844 311.278 98.0358 311.278 98.0358Z" fill="#F6B5BB"/>
<path d="M303.322 105.136C303.322 105.136 303.937 101.176 306.942 101.142C309.946 101.108 314.181 103.259 314.624 104.692C315.068 106.126 309.434 106.365 307.59 106.57C305.815 106.74 303.834 106.979 303.322 105.136Z" fill="#F6B5BB"/>
<path d="M313.737 103.6C313.737 104.248 313.088 104.829 312.098 105.033C310.937 105.307 307.215 105.409 305.405 104.76C303.561 104.112 303.834 103.497 303.834 103.497C303.459 104.351 303.322 105.136 303.322 105.136C303.834 106.979 305.815 106.74 307.624 106.57C309.434 106.399 315.103 106.126 314.659 104.692C314.556 104.351 314.215 103.975 313.737 103.6Z" fill="#FA9D1C"/>
<path d="M301.785 107.935C301.785 107.935 302.4 103.975 305.405 103.941C308.41 103.907 312.644 106.058 313.088 107.491C313.532 108.925 307.898 109.164 306.054 109.369C304.244 109.539 302.263 109.778 301.785 107.935Z" fill="#F6B5BB"/>
<path d="M312.2 106.399C312.2 107.047 311.551 107.628 310.561 107.832C309.4 108.105 305.678 108.208 303.868 107.559C302.024 106.911 302.298 106.296 302.298 106.296C301.922 107.15 301.785 107.935 301.785 107.935C302.298 109.778 304.278 109.539 306.088 109.368C307.898 109.198 313.566 108.925 313.122 107.491C312.985 107.15 312.644 106.774 312.2 106.399Z" fill="#FA9D1C"/>
<path d="M302.946 111.929C302.946 111.929 303.015 108.822 305.541 108.242C308.068 107.662 311.859 108.515 312.371 109.539C312.917 110.529 308.205 111.758 306.702 112.236C305.2 112.68 303.561 113.226 302.946 111.929Z" fill="#F6B5BB"/>
<path d="M311.517 108.857C311.585 109.335 311.107 109.881 310.288 110.256C309.332 110.666 306.259 111.451 304.62 111.28C303.015 111.11 303.185 110.632 303.185 110.632C302.946 111.349 302.946 111.963 302.946 111.963C303.561 113.26 305.2 112.714 306.702 112.27C308.205 111.792 312.917 110.564 312.371 109.574C312.268 109.266 311.961 109.062 311.517 108.857Z" fill="#FA9D1C"/>
<path d="M303.219 112.646C303.219 112.646 303.527 115.445 305.849 115.786C308.171 116.128 311.551 115.104 311.961 114.182C312.371 113.26 308 112.475 306.6 112.134C305.2 111.827 303.663 111.451 303.219 112.646Z" fill="#F6B5BB"/>
<path d="M311.21 114.865C311.244 114.421 310.766 113.943 310.015 113.704C309.127 113.397 306.258 112.919 304.824 113.158C303.39 113.397 303.561 113.841 303.561 113.841C303.254 113.192 303.219 112.646 303.219 112.646C303.698 111.417 305.2 111.792 306.6 112.134C308 112.475 312.371 113.26 311.961 114.182C311.858 114.421 311.585 114.66 311.21 114.865Z" fill="#FA9D1C"/>
<path d="M400.571 155.587C400.571 155.587 389.132 141.012 388.073 135.004C385.956 122.852 380.766 98.0016 380.766 98.0016L394.868 116.435C393.571 133.912 400.571 155.587 400.571 155.587Z" fill="#5C1331"/>
<path d="M372.981 82.5728C372.981 82.5728 381.688 81.4464 389.781 84.4161C397.873 87.42 406.273 95.6124 416.961 101.211C416.961 101.211 422.22 108.174 418.941 114.865C414.946 122.989 407.298 121.794 407.298 121.794C407.298 121.794 388.585 117.561 384.181 114.865C379.81 112.168 369.805 93.7691 372.981 82.5728Z" fill="#F56161"/>
<path d="M428.946 174.021C428.946 174.021 429.39 180.438 429.322 185.558C429.288 190.644 429.8 200.612 434.034 204.196C438.234 207.814 434.171 201.363 433.659 198.086C433.146 194.809 434.034 192.044 434.034 192.044C434.034 192.044 433.761 197.164 435.912 200.612C438.063 204.059 438.541 205.425 440.01 205.493C441.512 205.561 437.688 199.281 437.824 198.086C437.927 196.891 438.371 191.464 438.371 191.464C438.371 191.464 440.044 198.53 441.341 200.27C442.639 202.011 444.585 203.957 445.439 203.343C446.293 202.728 443.015 199.144 442.707 197.369C442.4 195.594 442.093 191.498 442.093 191.498C442.093 191.498 444.005 193.819 445.439 196.038C446.873 198.291 447.966 201.192 448.615 200.27C449.263 199.349 448.068 194.058 446.941 192.351C445.815 190.644 445.439 182.452 440.932 176.239C439.327 173.986 432.805 171.392 428.946 174.021Z" fill="#F6B5BB"/>
<path d="M429.117 176.922C429.117 176.922 427.102 179.755 425.805 181.701C424.507 183.647 424.746 190.064 425.805 194.365C426.863 198.7 428.537 194.468 427.956 192.351C427.376 190.201 429.151 187.504 430.346 184.671C431.507 181.838 429.219 178.595 429.117 176.922Z" fill="#F6B5BB"/>
<path d="M345.288 88.7852C345.288 88.7852 355.429 93.7007 364.41 80.627L366.766 83.2553L364.41 96.2949C364.068 100.698 360.21 104.795 348.6 105.546C345.185 105.75 340.302 101.791 340.439 98.07C340.576 94.281 345.288 88.7852 345.288 88.7852Z" fill="#E7B500"/>
<path d="M325.585 51.9877C329.239 56.1522 335.761 59.9412 345.834 60.7946C345.834 60.7946 345.22 55.8791 346.005 52.1584C346.005 52.1584 359.322 59.8047 359.424 70.5572C359.424 70.5572 359.049 95.7147 366.902 100.698C366.902 100.698 364.171 89.1608 372.981 82.5727L383.702 82.88C383.702 82.88 374.449 78.7838 372.4 69.9769C370.351 61.1701 367.995 49.9055 364.751 40.6549C361.507 31.4043 355.395 22.4951 344.366 23.8263C330.024 25.5672 313.463 38.163 325.585 51.9877Z" fill="#88645F"/>
<path d="M343.956 100.084C343.956 100.084 341.839 95.2708 341.702 91.8915C341.6 88.5462 344.024 87.6246 346.995 87.5222C349.966 87.4198 355.361 87.0102 356.317 88.1025C356.317 88.1025 359.663 101.483 356.693 102.507C353.722 103.566 345.049 103.02 343.956 100.084Z" fill="#FAC600"/>
<path d="M345.971 96.2949C345.971 96.2949 337.263 110.802 339.073 122.272C340.917 133.775 351.298 142.582 351.298 142.582C351.298 142.582 351.776 106.467 349.863 101.21C347.985 95.9877 345.971 96.2949 345.971 96.2949Z" fill="#FAC600"/>
<path d="M345.971 96.2949C345.971 96.2949 348.532 100.801 348.6 106.501C348.668 112.202 351.366 143.401 351.366 143.401C351.366 143.401 350.956 106.706 350.41 103.975C349.898 101.21 350 96.7728 345.971 96.2949Z" fill="#E7B500"/>
<path d="M351.298 97.3189C351.298 97.3189 347.507 111.144 351.639 120.087C355.771 129.03 366.288 133.843 366.288 133.843C366.288 133.843 358.366 104.282 355.634 100.425C352.868 96.602 351.298 97.3189 351.298 97.3189Z" fill="#FAC600"/>
<path d="M351.298 97.319C351.298 97.319 354.439 100.425 355.805 105.034C357.171 109.642 366.527 134.492 366.527 134.492C366.527 134.492 357.751 104.658 356.693 102.542C355.634 100.425 354.712 96.7729 351.298 97.319Z" fill="#E7B500"/>
<path d="M346.995 87.5564C346.995 87.5564 343.273 89.5362 347.849 95.6122C347.849 95.6122 344.4 88.7511 350.41 87.3857L346.995 87.5564Z" fill="#E7B500"/>
<path d="M417.302 101.279C415.732 100.46 414.229 99.572 412.727 98.6845L412.522 98.7186C412.522 98.7186 415.015 105.477 413.717 110.939C412.863 114.455 409.176 118.995 406.649 121.76C407.229 121.896 407.571 121.965 407.571 121.965C407.571 121.965 415.254 123.159 419.283 115.001C422.595 108.276 417.302 101.279 417.302 101.279Z" fill="#5C1331"/>
<path d="M527.288 230.139L263.132 236.351C261.595 236.385 260.332 235.156 260.263 233.62C260.229 232.084 261.458 230.821 262.995 230.753L527.151 224.54L527.288 230.139Z" fill="#615D5C"/>
<path d="M276.585 206.415L279.078 204.844L299.429 203.411L301.922 217.508L300.351 218.43L294.068 206.927L276.585 206.415Z" fill="#B6BCCC"/>
<path d="M276.585 206.415L279.727 219.727L300.351 218.43L297.756 204.844L276.585 206.415Z" fill="#9DA3AF"/>
<path d="M279.215 211.057C278.429 212.32 277.302 214.47 276.824 217.269C276.483 219.215 278.054 220.956 280.034 220.854L294.888 219.932C296.561 219.83 297.824 218.293 297.551 216.621L296.629 211.398C296.356 209.896 295.024 208.872 293.522 208.94L281.571 209.726C280.546 209.76 279.693 210.272 279.215 211.057Z" fill="#B6BCCC"/>
<path d="M282.424 235.191C281.741 235.191 281.127 234.713 280.956 234.03L279.044 226.008C278.976 225.701 279.01 225.394 279.112 225.121L283.824 212.661C284.132 211.876 284.985 211.467 285.771 211.774C286.556 212.081 286.966 212.934 286.659 213.72L282.117 225.735L283.927 233.313C284.132 234.132 283.62 234.952 282.8 235.156C282.663 235.191 282.527 235.191 282.424 235.191Z" fill="#615D5C"/>
<path d="M421.4 200.748L424.063 199.076L445.917 197.54L448.58 212.661L446.907 213.651L440.181 201.294L421.4 200.748Z" fill="#B6BCCC"/>
<path d="M421.4 200.748L424.746 215.051L446.907 213.651L444.107 199.076L421.4 200.748Z" fill="#9DA3AF"/>
<path d="M424.2 205.732C423.346 207.063 422.151 209.385 421.639 212.388C421.263 214.471 422.971 216.348 425.088 216.212L441 215.256C442.81 215.153 444.141 213.481 443.834 211.706L442.844 206.073C442.571 204.469 441.137 203.343 439.498 203.445L426.659 204.298C425.668 204.367 424.746 204.879 424.2 205.732Z" fill="#B6BCCC"/>
<path d="M427.649 231.538C426.966 231.538 426.351 231.06 426.18 230.377L424.132 221.741C424.063 221.434 424.098 221.127 424.2 220.854L429.254 207.507C429.561 206.722 430.415 206.312 431.2 206.619C431.985 206.927 432.395 207.78 432.088 208.565L427.205 221.502L429.151 229.661C429.356 230.48 428.844 231.299 428.024 231.504C427.888 231.504 427.751 231.538 427.649 231.538Z" fill="#615D5C"/>
<path d="M342.59 203.206L345.254 201.533L367.141 199.963L369.805 215.119L368.098 216.075L361.371 203.752L342.59 203.206Z" fill="#B6BCCC"/>
<path d="M342.59 203.206L345.971 217.474L368.098 216.075L365.298 201.533L342.59 203.206Z" fill="#9DA3AF"/>
<path d="M345.424 208.19C344.571 209.521 343.376 211.842 342.863 214.846C342.488 216.928 344.195 218.806 346.312 218.669L362.224 217.713C364.034 217.611 365.366 215.938 365.059 214.163L364.068 208.531C363.795 206.927 362.361 205.8 360.722 205.903L347.883 206.756C346.859 206.824 345.937 207.336 345.424 208.19Z" fill="#B6BCCC"/>
<path d="M348.873 233.996C348.19 233.996 347.576 233.518 347.405 232.835L345.356 224.199C345.288 223.892 345.322 223.585 345.424 223.311L350.478 209.965C350.785 209.18 351.639 208.77 352.424 209.077C353.21 209.384 353.62 210.238 353.312 211.023L348.429 223.96L350.342 232.118C350.546 232.938 350.034 233.757 349.215 233.962C349.078 233.962 348.976 233.996 348.873 233.996Z" fill="#615D5C"/>
<path d="M397.293 405.9C397.293 405.9 398.966 400.268 406.41 394.533C406.41 394.533 404.737 382.722 397.293 378.66C397.293 378.66 406.41 376.988 409.449 389.106C409.449 389.106 408.766 377.192 415.185 372.175C415.185 372.175 411.088 383.542 417.2 389.037C417.2 389.037 420.922 382.688 419.898 377.978C419.898 377.978 426.385 384.054 423.312 394.84C423.312 394.84 427.273 393.475 431.849 398.22C431.849 398.22 437.244 392.997 435.298 389.037C435.298 389.037 439.122 393.168 438.098 397.196C438.098 397.196 441.478 391.802 446.873 395.182C446.873 395.182 441.478 400.063 445.2 405.866H397.293V405.9Z" fill="#B6BCCC"/>
<path d="M399.819 401.258C399.819 401.258 390.702 401.599 388.176 405.9C385.649 410.201 432.361 413.751 440.146 412.727L437.278 407.061L446.907 412.898C446.907 412.898 490.444 413.751 496.522 409.177C502.6 404.637 490.444 400.848 484.366 401.223C478.322 401.633 399.819 401.258 399.819 401.258Z" fill="#B6BCCC"/>
<path d="M415.527 401.326C415.527 401.326 416.21 384.053 405.385 373.779C405.42 373.779 413.171 388.867 415.527 401.326Z" fill="#9DA3AF"/>
<path d="M467.395 401.975C467.395 401.975 476.273 374.359 495.941 370.912C495.941 370.878 473.371 385.146 467.395 401.975Z" fill="#9DA3AF"/>
<path d="M415.458 404.773C415.458 404.773 425.259 395.284 420.341 386.409C420.341 386.409 414.127 395.42 414.776 400.097C414.776 400.097 411.361 388.525 404.258 387.911C404.258 387.911 404.907 395.762 409.858 400.268C409.858 400.268 407.776 396.649 401.288 400.097C401.322 400.097 407.093 406.378 415.458 404.773Z" fill="#9DA3AF"/>
<path d="M466.473 404.842C466.473 404.842 458.824 397.435 462.649 390.471C462.649 390.471 467.498 397.503 466.985 401.155C466.985 401.155 469.649 392.109 475.215 391.632C475.215 391.632 474.702 397.776 470.844 401.292C470.844 401.292 472.483 398.459 477.537 401.155C477.537 401.189 473.029 406.105 466.473 404.842Z" fill="#9DA3AF"/>
<path d="M460.088 263.42V401.394H449.4C449.4 401.394 453.634 321.825 453.668 282.536C453.634 275.675 455.922 268.95 460.088 263.42Z" fill="#615D5C"/>
<path d="M401.493 43.0444C401.493 43.0444 403.063 57.8249 416.551 61.0336C416.551 61.0336 416.961 77.0429 430.654 83.2214C444.346 89.3998 461.01 78.9886 461.01 78.9886C461.01 78.9886 472.62 87.5907 494.302 82.3339L494.439 13.8248L401.493 43.0444Z" fill="#5C1331"/>
</svg>
