<svg width="510" height="380" viewBox="0 0 510 380" fill="none" xmlns="http://www.w3.org/2000/svg">
<path d="M510 333.938H0V334.193H510V333.938Z" fill="#B5BBCB"/>
<path d="M458.898 350.35H425.116V350.605H458.898V350.35Z" fill="#B5BBCB"/>
<path d="M337.844 353.124H328.981V353.379H337.844V353.124Z" fill="#B5BBCB"/>
<path d="M424.096 340.884H404.522V341.139H424.096V340.884Z" fill="#B5BBCB"/>
<path d="M97.563 342.598H53.5092V342.853H97.563V342.598Z" fill="#B5BBCB"/>
<path d="M113.108 342.598H106.651V342.853H113.108V342.598Z" fill="#B5BBCB"/>
<path d="M229.653 346.902H134.099V347.157H229.653V346.902Z" fill="#B5BBCB"/>
<path d="M241.74 288.448H44.7882C41.5752 288.437 38.9742 285.836 38.9742 282.624V5.77303C39.0048 2.58052 41.5956 0.0101997 44.7882 0H241.74C244.953 0 247.564 2.61112 247.564 5.82403V282.624C247.564 285.836 244.953 288.448 241.74 288.448ZM44.7882 0.203994C41.718 0.214194 39.2292 2.70292 39.2292 5.77303V282.624C39.2292 285.694 41.718 288.182 44.7882 288.193H241.74C244.81 288.182 247.299 285.694 247.309 282.624V5.77303C247.299 2.70292 244.81 0.214194 241.74 0.203994H44.7882Z" fill="#B5BBCB"/>
<path d="M462.376 288.448H265.414C262.201 288.437 259.6 285.836 259.59 282.624V5.77303C259.621 2.58052 262.222 0.0101997 265.414 0H462.376C465.569 0.0101997 468.149 2.58052 468.18 5.77303V282.624C468.18 285.836 465.589 288.437 462.376 288.448ZM265.414 0.203994C262.344 0.214194 259.855 2.70292 259.845 5.77303V282.624C259.855 285.694 262.344 288.182 265.414 288.193H462.376C465.446 288.182 467.935 285.694 467.945 282.624V5.77303C467.935 2.70292 465.446 0.214194 462.376 0.203994H265.414Z" fill="#B5BBCB"/>
<path d="M445.342 19.6958H64.668V223.751H445.342V19.6958Z" fill="#FAFAFA"/>
<path d="M334.489 81.3221C337.844 75.7633 346.596 71.2652 354.113 71.2652C355.705 71.2448 357.286 71.4896 358.795 71.9996C364.201 67.7361 370.831 65.329 377.706 65.125C385.601 65.125 389.762 69.2049 388.161 74.7127C395.362 75.0697 398.534 79.6494 395.219 85.2388C391.772 91.073 382.612 95.7955 374.758 95.7955H329.521C323.962 95.7955 321.422 92.45 323.87 88.3191C325.757 85.1266 330.062 82.4033 334.489 81.3221Z" fill="white"/>
<path d="M243.229 54.9256C245.269 51.5291 250.624 48.8057 255.204 48.8057C256.173 48.7853 257.142 48.9383 258.06 49.2545C261.365 46.6536 265.414 45.1746 269.617 45.0522C274.431 45.0522 276.971 47.5614 275.992 50.9069C280.388 51.1211 282.326 53.9668 280.306 57.3327C278.287 60.6986 272.605 63.7789 267.811 63.7789H240.2C236.803 63.7789 235.253 61.739 236.742 59.2094C238.292 57.0165 240.608 55.4865 243.229 54.9256Z" fill="white"/>
<path d="M110.639 75.0087C112.679 71.6122 118.034 68.8888 122.614 68.8888C123.583 68.8786 124.542 69.0316 125.46 69.358C128.755 66.7571 132.804 65.2782 137.006 65.1558C141.821 65.1558 144.361 67.6547 143.381 71.0104C147.778 71.2246 149.716 74.0703 147.696 77.4362C145.676 80.8021 139.995 83.8722 135.201 83.8722H107.61C104.213 83.8722 102.663 81.8323 104.162 79.3129C105.713 77.12 108.018 75.5798 110.639 75.0087Z" fill="white"/>
<path d="M167.239 59.9844H135.762V205.055H167.239V59.9844Z" fill="#E6E6E6"/>
<path d="M192.107 205.065H163.71V89.1045L192.107 117.388V205.065Z" fill="#E6E6E6"/>
<path d="M126.052 107.903H94.5744V205.055H126.052V107.903Z" fill="#E6E6E6"/>
<path d="M217.219 95.7954H201.175V205.065H217.219V95.7954Z" fill="#E6E6E6"/>
<path d="M240.088 123.702H224.043V205.055H240.088V123.702Z" fill="#E6E6E6"/>
<path d="M252.226 150.425H236.181V205.055H252.226V150.425Z" fill="#E6E6E6"/>
<path d="M318.811 150.425H302.767V205.055H318.811V150.425Z" fill="#E6E6E6"/>
<path d="M303.46 167.673H287.416V205.065H303.46V167.673Z" fill="#E6E6E6"/>
<path d="M90.168 150.425H74.1234V205.055H90.168V150.425Z" fill="#E6E6E6"/>
<path d="M228.582 141.348H83.334V205.065H228.582V141.348Z" fill="#E6E6E6"/>
<path d="M318.811 179.525H173.563V205.065H318.811V179.525Z" fill="#E6E6E6"/>
<path d="M348.238 78.6807H299.482V223.751H348.238V78.6807Z" fill="#F0F0F0"/>
<path d="M260.947 223.751H304.949V107.801L260.947 136.074V223.751Z" fill="#F0F0F0"/>
<path d="M412.049 126.599H363.293V223.751H412.049V126.599Z" fill="#F0F0F0"/>
<path d="M246.911 114.481H222.054V223.751H246.911V114.481Z" fill="#F0F0F0"/>
<path d="M211.466 150.843H186.609V223.751H211.466V150.843Z" fill="#F0F0F0"/>
<path d="M192.688 169.121H167.831V223.751H192.688V169.121Z" fill="#F0F0F0"/>
<path d="M89.5254 169.121H64.668V223.751H89.5254V169.121Z" fill="#F0F0F0"/>
<path d="M113.302 186.359H88.4442V223.751H113.302V186.359Z" fill="#F0F0F0"/>
<path d="M443.741 169.121H418.883V223.751H443.741V169.121Z" fill="#F0F0F0"/>
<path d="M429.461 160.043H204.449V223.761H429.461V160.043Z" fill="#F0F0F0"/>
<path d="M289.68 198.221H64.668V223.761H289.68V198.221Z" fill="#F0F0F0"/>
<path d="M445.342 19.6958H443.741V223.751H445.342V19.6958Z" fill="#B5BBCB"/>
<path d="M92.973 307.327C92.4426 307.327 91.9326 307.144 91.5144 306.817C90.5046 306.012 90.3312 304.533 91.137 303.513C92.4732 301.83 89.2296 297.933 85.8024 293.802C78.489 285.021 67.4424 271.73 82.5282 256.502C92.0448 246.884 91.8408 242.906 91.3104 241.641C90.372 239.418 86.0268 238.928 84.507 238.928C83.2014 238.928 82.1508 237.867 82.1508 236.572C82.1508 235.277 83.2014 234.226 84.507 234.216C85.3842 234.216 93.381 234.287 95.727 239.805C97.767 244.589 94.5642 251.127 85.9656 259.817C73.8888 272.006 82.1916 281.991 89.5152 290.794C94.197 296.434 98.6238 301.758 94.911 306.43C94.452 307.021 93.7278 307.358 92.973 307.327Z" fill="#DBE0E9"/>
<path d="M58.9254 286.122H109.13L98.0118 333.938H70.0434L58.9254 286.122Z" fill="#C0C8D8"/>
<path d="M58.4052 288.254H109.65C110.833 288.254 111.782 287.305 111.792 286.122C111.782 284.939 110.833 283.99 109.65 283.98H58.4052C57.222 283.99 56.2734 284.939 56.2632 286.122C56.2734 287.305 57.222 288.254 58.4052 288.254Z" fill="#B5BBCB"/>
<path d="M101.674 235.756L54.2334 251.422C54.2334 251.422 37.0464 239.815 49.5312 234.593C43.5948 224.465 42.84 204.718 61.9446 198.986C81.0492 193.253 79.713 221.17 79.713 221.17C79.713 221.17 103.265 196.252 102.153 225.852C106.651 224.618 125.715 229.126 101.674 235.756Z" fill="#DBE0E9"/>
<path d="M62.0772 257.206H119.605C119.605 257.206 134.783 246.496 118.891 247.006C122.043 233.349 113.149 218.386 93.075 217.815C73.0014 217.243 80.0598 239.509 80.0598 239.509C80.0598 239.509 46.3386 231.472 56.5998 248.077C39.831 248.873 48.4806 253.187 62.0772 257.206Z" fill="#E6E6E6"/>
<path d="M108.008 260.297L62.8218 261.928C60.4248 261.959 58.1808 260.755 56.8752 258.736C55.1616 256.308 54.723 253.3 61.9752 252.412C59.6598 245.272 64.77 232.819 83.4564 231.86C102.143 230.901 92.769 248.179 92.769 248.179C92.769 248.179 121.033 235.838 111.384 254.187C115.709 254.024 131.345 259.46 108.008 260.297Z" fill="#DBE0E9"/>
<path d="M399.473 246.884H162.425V251.423H399.473V246.884Z" fill="#F0F0F0"/>
<path d="M425.116 246.884H399.473V251.423H425.116V246.884Z" fill="#E6E6E6"/>
<path d="M421.158 251.422H165.995V253.697H421.158V251.422Z" fill="#DBE0E9"/>
<path d="M168.494 252.565H165.985V333.938H168.494V252.565Z" fill="#DBE0E9"/>
<path d="M399.463 252.555H396.953V333.928H399.463V252.555Z" fill="#DBE0E9"/>
<path d="M421.148 252.565H418.639V333.938H421.148V252.565Z" fill="#DBE0E9"/>
<path d="M190.169 252.565H187.66V333.938H190.169V252.565Z" fill="#DBE0E9"/>
<path d="M255 380C364.224 380 452.768 374.83 452.768 368.454C452.768 362.077 364.224 356.908 255 356.908C145.776 356.908 57.2322 362.077 57.2322 368.454C57.2322 374.83 145.776 380 255 380Z" fill="#C0C8D8"/>
<path d="M402.502 203.566H248.186V207.931H402.502V203.566Z" fill="#F35822"/>
<path opacity="0.2" d="M402.502 203.566H366.69V207.931H402.502V203.566Z" fill="black"/>
<path d="M371.117 371.004L363.059 207.921H365.078L373.136 371.004H371.117Z" fill="#F35822"/>
<path opacity="0.7" d="M371.117 371.004L363.059 207.921H365.078L373.136 371.004H371.117Z" fill="white"/>
<path d="M406.929 371.004L398.861 207.921H400.891L408.949 371.004H406.929Z" fill="#F35822"/>
<path d="M406.929 371.004L398.861 207.921H400.891L408.949 371.004H406.929Z" fill="#F35822"/>
<path opacity="0.7" d="M406.929 371.004L398.861 207.921H400.891L408.949 371.004H406.929Z" fill="white"/>
<path d="M279.562 371.004L287.63 207.921H285.6L277.542 371.004H279.562Z" fill="#F35822"/>
<path opacity="0.7" d="M279.562 371.004L287.63 207.921H285.6L277.542 371.004H279.562Z" fill="white"/>
<path d="M243.76 371.004L251.818 207.921H249.798L241.73 371.004H243.76Z" fill="#F35822"/>
<path opacity="0.7" d="M243.76 371.004L251.818 207.921H249.798L241.73 371.004H243.76Z" fill="white"/>
<path d="M339.048 170.335H388.62C389.977 170.294 391.099 171.365 391.129 172.712C391.129 172.895 391.119 173.069 391.088 173.252L386.917 200.689C386.631 202.332 385.223 203.545 383.561 203.607H333.989C332.632 203.637 331.5 202.566 331.469 201.21C331.469 201.036 331.48 200.863 331.51 200.689L335.682 173.252C335.978 171.61 337.375 170.396 339.048 170.335Z" fill="#F35822"/>
<path d="M338.283 170.335H387.896C389.252 170.294 390.374 171.365 390.405 172.712C390.405 172.895 390.395 173.069 390.364 173.252L386.192 200.689C385.907 202.332 384.499 203.545 382.837 203.607H333.224C331.867 203.637 330.735 202.566 330.704 201.21C330.704 201.036 330.715 200.863 330.745 200.689L334.917 173.252C335.213 171.61 336.61 170.386 338.283 170.335Z" fill="#F35822"/>
<path opacity="0.2" d="M338.283 170.335H387.896C389.252 170.294 390.374 171.365 390.405 172.712C390.405 172.895 390.395 173.069 390.364 173.252L386.192 200.689C385.907 202.332 384.499 203.545 382.837 203.607H333.224C331.867 203.637 330.735 202.566 330.704 201.21C330.704 201.036 330.715 200.863 330.745 200.689L334.917 173.252C335.213 171.61 336.61 170.386 338.283 170.335Z" fill="white"/>
<path opacity="0.8" d="M333.224 202.689C332.744 202.699 332.285 202.505 331.969 202.148C331.653 201.771 331.52 201.271 331.612 200.781L335.784 173.395C336.019 172.181 337.049 171.284 338.283 171.223H387.896C388.375 171.212 388.834 171.406 389.15 171.763C389.467 172.141 389.589 172.651 389.497 173.13L385.336 200.567C385.101 201.781 384.071 202.678 382.837 202.74L333.224 202.689Z" fill="white"/>
<path d="M318.74 202.474H384.54C385.05 202.464 385.468 202.862 385.489 203.362C385.489 203.433 385.489 203.494 385.468 203.566H317.475C317.587 202.954 318.118 202.495 318.74 202.474Z" fill="#F35822"/>
<path d="M264.445 357.785L257.948 361.447L249.91 345.882L256.408 342.22L264.445 357.785Z" fill="#FFB573"/>
<path d="M257.162 360.162L264.731 356.439C264.986 356.296 265.312 356.388 265.455 356.643C265.455 356.643 265.455 356.643 265.455 356.653L268.76 362.457C269.086 363.11 268.831 363.905 268.178 364.242C265.516 365.486 264.18 365.955 260.855 367.587C258.815 368.607 253.929 371.106 251.104 372.503C248.278 373.901 247.024 371.055 248.044 370.209C252.858 366.435 255.02 363.579 256.204 361.141C256.397 360.713 256.744 360.366 257.162 360.162Z" fill="#5C1331"/>
<path opacity="0.2" d="M256.408 342.22L249.91 345.882L254.051 353.909L260.753 350.625L256.408 342.22Z" fill="black"/>
<path d="M251.114 189.643C251.114 189.643 230.132 231.819 223.839 252.412C216.954 274.964 249.665 351.288 249.665 351.288L261.61 346.055C261.61 346.055 240.19 270.466 243.913 262.081C254.113 238.928 277.94 190.133 277.94 190.133L251.114 189.643Z" fill="#5C1331"/>
<path opacity="0.3" d="M259.009 214.928C253.286 224.526 250.849 241.825 250.492 253.075C253.725 246.119 257.193 238.877 260.437 232.145C262.619 225.73 264.741 219.549 266.72 214.255C266.281 210.593 263.344 207.636 259.009 214.928Z" fill="black"/>
<path d="M263.15 346.943L250.104 353.777L246.361 349.36L261.803 341.139L263.15 346.943Z" fill="#F35822"/>
<path d="M255.347 362.508C255.938 362.191 256.499 361.814 257.02 361.386C257.081 361.345 257.101 361.273 257.081 361.202C257.06 361.131 257.009 361.09 256.938 361.08C256.652 361.029 254.102 360.661 253.439 361.396C253.286 361.559 253.225 361.794 253.286 362.018C253.348 362.355 253.582 362.64 253.909 362.773C254.408 362.865 254.918 362.773 255.347 362.508ZM256.479 361.365C255.388 362.202 254.49 362.599 254.021 362.446C253.807 362.355 253.664 362.161 253.633 361.936C253.603 361.834 253.623 361.712 253.694 361.63C254.051 361.243 255.449 361.253 256.479 361.365Z" fill="#F35822"/>
<path d="M257.04 361.406C257.06 361.396 257.081 361.375 257.101 361.355C257.142 361.304 257.142 361.233 257.101 361.182C257.101 361.1 256.275 359.091 255.265 358.764C255.01 358.683 254.725 358.724 254.5 358.877C254.225 359.019 254.082 359.336 254.164 359.631C254.368 360.437 256.061 361.355 256.928 361.426L257.04 361.406ZM254.776 359.132C254.908 359.07 255.051 359.07 255.184 359.132C255.785 359.325 256.377 360.406 256.673 361.049C255.847 360.845 254.633 360.111 254.521 359.57C254.521 359.468 254.521 359.336 254.704 359.203L254.776 359.132Z" fill="#F35822"/>
<path d="M265.302 133.096C263.996 135.738 262.681 138.063 261.222 140.45C259.763 142.837 258.284 145.132 256.652 147.396C255.857 148.538 255.01 149.65 254.184 150.772C253.358 151.894 252.45 152.985 251.512 154.056C249.676 156.27 247.697 158.361 245.606 160.329C245.096 160.839 244.494 161.349 243.943 161.808C243.392 162.318 242.811 162.798 242.209 163.246L240.363 164.613C240.159 164.746 240.21 164.736 239.588 165.144C239.098 165.45 238.578 165.705 238.037 165.898C235.824 166.684 233.376 166.429 231.377 165.195C230.877 164.878 230.408 164.511 229.99 164.093C229.786 163.879 229.592 163.654 229.408 163.42C229.255 163.236 229.123 163.053 229 162.849C228.531 162.053 228.123 161.227 227.776 160.37C227.185 158.901 226.705 157.382 226.348 155.841C225.736 153.057 225.318 150.221 225.114 147.376C224.9 144.601 224.849 141.817 224.951 139.043C225.022 137.227 226.542 135.809 228.358 135.881C229.816 135.932 231.061 136.941 231.418 138.359V138.471C232.56 143.377 234.019 148.192 235.793 152.904C236.181 153.903 236.66 154.872 237.211 155.801C237.415 156.158 237.65 156.504 237.905 156.821C237.976 156.923 237.905 156.729 237.793 156.647C237.721 156.545 237.64 156.443 237.548 156.351C237.364 156.158 237.16 155.984 236.936 155.852C236.518 155.576 236.048 155.403 235.549 155.342C235.069 155.28 234.58 155.331 234.121 155.474C233.692 155.566 232.988 156.107 233.458 155.709L234.682 154.546C235.487 153.75 236.303 152.894 237.089 152.027C240.281 148.263 243.199 144.285 245.83 140.113C247.177 137.992 248.513 135.83 249.798 133.657C251.083 131.485 252.389 129.2 253.531 127.139L253.613 126.997C255.306 123.784 259.284 122.539 262.497 124.233C265.71 125.926 266.954 129.904 265.261 133.116L265.302 133.096Z" fill="#5C1331"/>
<path opacity="0.3" d="M247.289 150.956C246.656 153.975 246.32 157.055 246.269 160.135C246.605 159.809 246.922 159.483 247.238 159.116C249.747 156.555 252.083 153.832 254.225 150.956C255.112 149.783 255.969 148.6 256.795 147.386C257.305 146.09 257.815 144.795 258.203 143.479C258.346 143.041 258.478 142.623 258.611 142.184C255.296 140.532 249.278 142.153 247.289 150.956Z" fill="black"/>
<path d="M230.581 135.727L229.755 130.454L223.196 133.514C223.696 135.258 224.359 136.941 225.175 138.553C225.838 139.868 227.44 140.409 228.755 139.746C229.01 139.624 229.245 139.45 229.449 139.256C230.387 138.338 230.816 137.023 230.581 135.727Z" fill="#FFB573"/>
<path d="M226.063 126.915L221.167 130.291L223.196 133.473L229.755 130.454L226.063 126.915Z" fill="#FFB573"/>
<path d="M243.617 367.679L236.303 366.006L239.241 348.84L246.554 350.513L243.617 367.679Z" fill="#FFB573"/>
<path d="M236.11 365.068L244.331 366.955C244.616 367.006 244.81 367.281 244.759 367.566C244.759 367.566 244.759 367.567 244.759 367.577L243.668 374.176C243.515 374.89 242.801 375.349 242.087 375.196C239.241 374.482 237.915 374.002 234.294 373.156C232.07 372.646 225.889 371.473 222.819 370.769C219.749 370.065 220.534 367.046 221.901 367.067C228.021 367.179 232.315 366.373 234.753 365.221C235.171 365.017 235.651 364.966 236.11 365.068Z" fill="#5C1331"/>
<path opacity="0.2" d="M246.554 350.523L239.231 348.84L237.721 357.693L245.045 359.366L246.554 350.523Z" fill="black"/>
<path d="M265.771 189.908C265.771 189.908 253.684 240.193 250.063 261.418C246.106 284.653 235.069 354.868 235.069 354.868L248.472 357.928C248.472 357.928 265.2 290.987 271.208 268.456C277.736 243.977 291.261 214.398 291.261 190.377C283.162 190.377 265.771 189.908 265.771 189.908Z" fill="#5C1331"/>
<path d="M249.013 358.06L232.672 354.317L233.039 349.044L250.696 353.93L249.013 358.06Z" fill="#F35822"/>
<path d="M233.223 365.751C233.896 365.884 234.58 365.945 235.263 365.935C235.334 365.935 235.396 365.894 235.426 365.833C235.467 365.772 235.467 365.7 235.426 365.639C235.232 365.425 233.488 363.538 232.509 363.681C232.285 363.721 232.091 363.864 231.999 364.078C231.826 364.374 231.826 364.752 231.999 365.047C232.315 365.425 232.744 365.67 233.223 365.751ZM234.824 365.578C233.458 365.578 232.499 365.282 232.234 364.864C232.121 364.66 232.121 364.425 232.234 364.221C232.274 364.119 232.366 364.048 232.478 364.027C233.019 363.946 234.1 364.843 234.824 365.578Z" fill="#F35822"/>
<path d="M235.202 365.935H235.283C235.345 365.925 235.385 365.884 235.406 365.823C235.406 365.741 236.079 363.67 235.498 362.763C235.355 362.538 235.11 362.385 234.835 362.365C234.529 362.304 234.223 362.457 234.1 362.742C233.743 363.497 234.488 365.272 235.12 365.874L235.202 365.935ZM234.875 362.732C235.018 362.763 235.141 362.844 235.212 362.967C235.467 363.762 235.467 364.609 235.212 365.404C234.651 364.701 234.376 363.793 234.467 362.895C234.467 362.804 234.59 362.691 234.845 362.722L234.875 362.732Z" fill="#F35822"/>
<path d="M255.388 128.71C256.224 126.17 258.386 124.283 261.018 123.794C262.874 123.386 264.761 123.1 266.659 122.937C272.35 122.713 278.042 122.815 283.723 123.243C286.691 123.447 289.721 123.865 292.138 124.263H292.22C294.831 124.691 296.596 127.149 296.167 129.761C296.157 129.812 296.147 129.852 296.137 129.903C294.056 139.919 292.638 150.068 291.883 160.268C291.026 175.108 291.608 186.787 291.261 190.367L251.114 189.633C249.329 153.342 252.787 136.921 255.388 128.71Z" fill="white"/>
<path d="M282.591 122.519C280.551 130.342 267.658 144.204 266.098 165.98C266.669 177.924 266.189 186.073 267.658 194.07L292.24 193.417C292.618 189.633 289.833 177.465 291.659 165.133C293.434 153.179 295.953 136.921 297.381 129.659C297.901 126.895 296.075 124.222 293.311 123.702H293.301H293.209C290.659 123.284 287.467 122.835 284.335 122.631L282.591 122.519Z" fill="#5C1331"/>
<path opacity="0.2" d="M288.323 181.657C288.242 181.657 288.17 181.616 288.119 181.555C285.569 178.179 283.56 174.425 282.183 170.427C282.132 170.294 282.203 170.151 282.336 170.1C282.336 170.1 282.336 170.1 282.346 170.1C282.489 170.06 282.632 170.141 282.673 170.274C284.029 174.221 286.008 177.924 288.527 181.249C288.609 181.361 288.589 181.524 288.476 181.606C288.436 181.636 288.374 181.657 288.323 181.657Z" fill="white"/>
<path opacity="0.3" d="M291.404 138.808C289.649 145.947 290.251 155.831 291.71 164.847C293.209 154.729 295.239 141.592 296.677 133.453C294.974 132.29 292.791 133.116 291.404 138.808Z" fill="black"/>
<path d="M253.327 128.853C254.255 126.017 256.601 123.885 259.508 123.233C262.191 122.855 264.894 122.631 267.597 122.549C265.312 129.954 266.648 151.629 267.658 168.734C264.598 177.362 264.833 183.697 264.782 194.07L247.962 192.601C246.126 154.546 250.808 135.768 253.327 128.853Z" fill="#5C1331"/>
<path d="M267.464 122.886C272.452 121.805 273.38 118.806 273.105 115.379C273.044 114.532 272.932 113.696 272.758 112.859L279.072 107.76L283.703 104.057C282.336 109.524 280.724 119.52 284.376 123.253C284.376 123.253 281.204 128.261 272.728 127.649C265.557 127.18 267.464 122.886 267.464 122.886Z" fill="#FFB573"/>
<path d="M274.91 126.436L273.503 127.741L277.848 129.383L277.328 127.721L274.91 126.436Z" fill="#DBE0E9"/>
<path d="M276.491 131.627C276.491 131.627 276.491 127.353 274.91 126.435C278.154 125.66 281.122 124.039 283.529 121.733L286.11 122.753C286.11 122.753 285.161 127.69 276.491 131.627Z" fill="#C0C8D8"/>
<path d="M272.513 126.099L273.503 127.741L268.882 128.139L269.841 126.681L272.513 126.099Z" fill="#DBE0E9"/>
<path d="M268.586 130.75C269.066 128.659 270.524 126.925 272.513 126.099C270.025 125.354 269.953 121.896 269.953 121.896L267.515 122.366C267.515 122.366 265.016 126.976 268.586 130.75Z" fill="#C0C8D8"/>
<path opacity="0.2" d="M272.758 112.86C272.932 113.696 273.044 114.533 273.105 115.379C275.431 114.951 278.572 112.544 278.939 110.177C279.072 109.392 279.113 108.607 279.072 107.811L272.758 112.86Z" fill="black"/>
<path d="M264.241 87.8604C262.762 90.6041 262.895 93.9394 264.588 96.5505L269.586 90.3287L264.241 87.8604Z" fill="#5C1331"/>
<path d="M284.407 94.7655C284.05 102.232 284.223 106.597 280.52 110.606C276.91 114.584 270.769 114.879 266.791 111.269C265.343 109.953 264.323 108.229 263.864 106.322C262.181 99.7124 263.038 88.6151 270.269 85.3002C275.145 82.9135 281.041 84.933 283.427 89.8085C284.182 91.3486 284.519 93.052 284.407 94.7655Z" fill="#FFB573"/>
<path d="M288.997 87.0749C285.773 76.7528 253.633 71.4183 266.098 88.8802L279.766 87.0137L280.276 90.5224C280.969 93.2661 281.908 95.9486 283.07 98.5291L282.499 101.701L283.091 106.862C283.091 106.862 288.772 100.559 291.649 97.5704C295.953 93.1233 291.587 86.8199 288.997 87.0749Z" fill="#5C1331"/>
<path d="M264.506 89.1148C268.076 91.7463 277.409 92.2461 277.409 92.2461C276.767 90.8691 275.788 89.6758 274.564 88.7782C278.307 91.2057 281.632 94.0004 287.885 94.235C286.192 89.5636 282.662 85.7999 278.113 83.8109C270.586 80.4348 257.805 84.1883 264.506 89.1148Z" fill="#5C1331"/>
<path d="M287.497 77.936C287.497 77.936 286.11 78.8744 285.794 82.1383C285.478 85.4022 288.782 89.6147 288.782 89.6147L289.598 87.5237C286.508 83.5357 287.497 77.936 287.497 77.936Z" fill="#5C1331"/>
<path d="M286.498 100.395C285.865 101.885 284.733 103.109 283.295 103.853C281.469 104.751 280.5 103.098 280.969 101.079C281.387 99.2633 282.856 96.6114 284.713 96.5502C286.569 96.489 287.293 98.5187 286.498 100.395Z" fill="#FFB573"/>
<path d="M273.003 97.5399C273.003 98.1417 272.697 98.6517 272.309 98.6721C271.922 98.6925 271.585 98.2131 271.575 97.6011C271.565 96.9891 271.881 96.4893 272.279 96.4689C272.677 96.4485 272.993 96.8973 273.003 97.5399Z" fill="#5C1331"/>
<path d="M266.22 97.9172C266.22 98.5292 265.914 99.029 265.516 99.0494C265.118 99.0698 264.792 98.5904 264.792 98.0294C264.792 97.4684 265.098 96.9177 265.486 96.8973C265.873 96.8769 266.159 97.2644 266.22 97.9172Z" fill="#5C1331"/>
<path d="M268.505 97.917C267.811 99.8141 266.863 101.599 265.69 103.241C266.546 103.802 267.607 103.945 268.586 103.649L268.505 97.917Z" fill="#ED893E"/>
<path d="M271.075 105.159C272.483 104.945 273.737 104.159 274.543 102.997C274.594 102.915 274.574 102.803 274.492 102.752C274.411 102.701 274.309 102.721 274.258 102.803C274.258 102.803 274.258 102.813 274.247 102.813C273.329 104.047 271.901 104.792 270.361 104.853C270.259 104.863 270.188 104.945 270.188 105.047C270.198 105.139 270.28 105.21 270.371 105.21C270.606 105.21 270.841 105.19 271.075 105.159Z" fill="#5C1331"/>
<path d="M276.083 94.9389C276.145 94.9287 276.196 94.9083 276.247 94.8675C276.4 94.7451 276.42 94.5207 276.298 94.3677C275.604 93.4701 274.513 92.9601 273.38 93.0315C273.187 93.0315 273.023 93.1845 273.023 93.3885C273.023 93.5823 273.176 93.7455 273.38 93.7455C273.411 93.7455 273.442 93.7455 273.472 93.7353C274.349 93.6843 275.206 94.0719 275.757 94.7553C275.808 94.8777 275.941 94.9491 276.083 94.9389Z" fill="#5C1331"/>
<path d="M263.16 95.7449C263.272 95.7245 263.374 95.6531 263.425 95.5409C263.792 94.6841 264.557 94.0415 265.465 93.8273C265.659 93.7967 265.781 93.6233 265.751 93.4295V93.4193C265.72 93.2255 265.537 93.0929 265.343 93.1235C264.221 93.3989 263.293 94.1843 262.834 95.2451C262.752 95.4287 262.834 95.6327 263.017 95.7143C263.078 95.7448 263.15 95.7551 263.211 95.7449H263.16Z" fill="#5C1331"/>
<path d="M298.523 128.129C299.207 129.659 299.788 131.046 300.349 132.504C300.91 133.963 301.471 135.411 302.002 136.87C303.022 139.787 304.042 142.755 304.858 145.764C306.694 151.904 307.867 158.207 308.387 164.592C308.734 170.763 308.734 176.934 308.387 183.105C308.091 189.225 307.612 195.212 306.806 201.26C306.561 203.056 304.909 204.32 303.113 204.076C301.624 203.872 300.461 202.688 300.288 201.199C299.625 195.243 299.105 189.266 298.564 183.34C298.299 180.371 298.013 177.424 297.707 174.496C297.432 171.569 297.065 168.662 296.687 165.898C295.708 160.349 294.29 154.893 292.444 149.579C291.526 146.855 290.578 144.122 289.568 141.419C288.558 138.716 287.477 135.942 286.508 133.381L286.447 133.239C285.182 129.822 286.926 126.038 290.343 124.773C293.546 123.59 297.126 125.048 298.585 128.139L298.523 128.129Z" fill="#5C1331"/>
<path d="M300.39 200.75L296.137 202.79L303.348 205.371C303.348 205.371 308.234 203.831 305.939 201.138L304.654 200.73C302.563 200.026 301.532 200.098 300.39 200.75Z" fill="#FFB573"/>
<path d="M293.699 207.36L301.318 208.818L303.348 205.33L296.137 202.75L293.699 207.36Z" fill="#FFB573"/>
<path d="M178.316 30.7109H144.095V31.8533H178.316V30.7109Z" fill="#F35822"/>
<path d="M125.174 36.7188L124.338 35.9334C127.51 32.5573 131.947 30.6499 136.578 30.6805V31.8127C132.263 31.7923 128.122 33.5671 125.174 36.7188Z" fill="#F35822"/>
<path d="M136.619 34.6787H202.042C209.681 34.8011 215.965 40.7169 216.556 48.3361L219.035 87.503L219.83 100.212L206.326 87.5132H139.964C132.335 87.3908 126.052 81.4749 125.46 73.866L123.848 48.3667C123.298 41.3697 128.53 35.2601 135.517 34.7195C135.884 34.6889 136.252 34.6787 136.619 34.6787Z" fill="#F35822"/>
<path d="M140.077 53.3953H201.899C203.072 53.4055 204.031 52.457 204.041 51.2942C204.041 51.233 204.041 51.182 204.031 51.1208C203.929 49.856 202.878 48.8667 201.603 48.8463H139.791C138.618 48.8361 137.659 49.7846 137.649 50.9474C137.649 51.0086 137.649 51.0596 137.659 51.1208C137.761 52.3856 138.802 53.3749 140.077 53.3953Z" fill="white"/>
<path d="M140.76 63.8807H202.582C203.755 63.8909 204.714 62.9423 204.724 61.7796C204.724 61.7184 204.724 61.6674 204.714 61.6062C204.612 60.3312 203.561 59.352 202.286 59.3316H140.454C139.291 59.3214 138.332 60.2496 138.312 61.4124C138.312 61.4736 138.312 61.5348 138.322 61.6062C138.424 62.8811 139.485 63.8705 140.76 63.8807Z" fill="white"/>
<path d="M162.455 74.366H203.255C204.428 74.3762 205.387 73.4276 205.397 72.2648C205.397 72.2036 205.397 72.1424 205.387 72.0812C205.295 70.8063 204.245 69.8271 202.97 69.8067H162.18C161.007 69.7965 160.048 70.7451 160.038 71.9079C160.038 71.9691 160.038 72.0201 160.048 72.0812C160.14 73.3562 161.18 74.3456 162.455 74.366Z" fill="white"/>
<path d="M159.824 100.222H94.401C87.3936 100.14 81.651 105.75 81.5694 112.758C81.5694 113.125 81.5796 113.502 81.6 113.869L83.436 142.592L84.2316 155.29L96.135 142.592H162.496C169.514 142.663 175.256 137.033 175.318 130.026C175.318 129.658 175.307 129.301 175.287 128.934L174.338 113.869C173.747 106.25 167.464 100.344 159.824 100.222Z" fill="#F35822"/>
<path opacity="0.5" d="M159.824 100.222H94.401C87.3936 100.14 81.651 105.75 81.5694 112.758C81.5694 113.125 81.5796 113.502 81.6 113.869L83.436 142.592L84.2316 155.29L96.135 142.592H162.496C169.514 142.663 175.256 137.033 175.318 130.026C175.318 129.658 175.307 129.301 175.287 128.934L174.338 113.869C173.747 106.25 167.464 100.344 159.824 100.222Z" fill="white"/>
<path d="M158.732 118.928H96.9C95.625 118.908 94.5846 117.919 94.4826 116.654C94.401 115.481 95.2782 114.471 96.441 114.39C96.5022 114.39 96.5532 114.379 96.6144 114.379H158.426C159.701 114.4 160.752 115.379 160.854 116.654C160.936 117.827 160.058 118.837 158.896 118.918C158.834 118.928 158.783 118.928 158.732 118.928Z" fill="white"/>
<path d="M138.343 129.434H97.5426C96.2676 129.413 95.217 128.424 95.115 127.159C95.0334 125.986 95.9106 124.977 97.0734 124.895C97.1346 124.895 97.1856 124.885 97.2468 124.885H138.047C139.322 124.895 140.372 125.884 140.464 127.159C140.546 128.332 139.669 129.342 138.506 129.424C138.445 129.434 138.394 129.434 138.343 129.434Z" fill="white"/>
<path d="M144.248 155.29H209.661C217.301 155.412 223.594 161.328 224.176 168.947L226.114 199.547L226.919 212.245L213.415 199.547H147.043C139.403 199.424 133.12 193.508 132.529 185.889L131.458 168.907C130.948 161.91 136.211 155.831 143.208 155.321C143.555 155.3 143.902 155.29 144.248 155.29Z" fill="#F35822"/>
<path d="M173.451 175.802C173.645 178.484 175.858 180.575 178.551 180.606C181.019 180.637 183.039 178.658 183.07 176.19C183.07 176.057 183.07 175.924 183.059 175.802C182.855 173.119 180.642 171.039 177.959 170.998C175.501 170.967 173.471 172.926 173.441 175.394C173.441 175.527 173.441 175.669 173.451 175.802Z" fill="white"/>
<path d="M157.427 177.413C157.621 180.096 159.834 182.187 162.527 182.217C164.985 182.248 167.005 180.279 167.035 177.811C167.035 177.678 167.035 177.546 167.025 177.413C166.821 174.731 164.608 172.65 161.925 172.609C159.467 172.579 157.447 174.547 157.417 177.016C157.417 177.148 157.417 177.281 157.427 177.413Z" fill="white"/>
<path d="M189.822 179.831C190.026 182.513 192.239 184.594 194.922 184.635C197.38 184.665 199.4 182.697 199.43 180.228C199.43 180.096 199.43 179.963 199.42 179.831C199.226 177.148 197.013 175.057 194.32 175.027C191.852 175.006 189.832 176.985 189.812 179.453C189.812 179.576 189.812 179.708 189.822 179.831Z" fill="white"/>
</svg>
