<svg width="303" height="255" viewBox="0 0 303 255" fill="none" xmlns="http://www.w3.org/2000/svg">
<g clip-path="url(#clip0)">
<path d="M301.428 90.4297L285.017 80.4225C283.994 79.8016 282.715 79.7651 281.691 80.3495L5.51917 239.076C3.28962 240.318 3.28962 243.495 5.48262 244.774L21.5646 254.014C23.8307 255.329 26.6451 255.329 28.9112 254.014L301.319 96.0907C303.512 94.8489 303.548 91.7445 301.428 90.4297Z" fill="url(#paint0_linear)"/>
<path d="M6.68875 102.811C2.96064 104.966 -0.0364634 110.261 8.6636e-05 114.608C0.0366367 118.954 3.10684 120.743 6.83495 118.589C10.5631 116.434 13.5602 111.138 13.5236 106.792C13.4871 102.446 10.4169 100.656 6.68875 102.811Z" fill="white"/>
<path d="M6.54255 105.295C3.98404 106.792 1.90069 110.408 1.93724 113.403C1.97379 116.397 4.05715 117.639 6.6522 116.142C9.2107 114.644 11.2941 111.029 11.2575 108.034C11.221 105.039 9.10105 103.797 6.54255 105.295Z" fill="#5C1331"/>
<path d="M8.22386 102.993C3.98405 105.44 0.548345 111.467 0.621446 116.434C0.657996 121.401 4.1668 123.446 8.40661 120.962C12.6464 118.515 16.0821 112.489 16.009 107.522C15.9725 102.555 12.4637 100.51 8.22386 102.993Z" fill="#241815"/>
<path d="M7.82178 126.331V236.374C7.82178 240.866 9.32033 244.007 11.6595 245.395L22.4053 251.64L143.203 173.19C149.38 169.611 154.388 160.078 154.388 151.861L138.05 51.2046L7.82178 126.331Z" fill="#402232"/>
<path d="M18.2385 242.473C18.2385 250.691 23.2459 254.489 29.4228 250.91L153.657 179.289C159.833 175.71 164.841 166.178 164.841 157.96V47.8813L18.2385 132.394V242.473Z" fill="#5C1331"/>
<path d="M15.0952 143.862L169.007 55.5142V32.9067L15.0952 121.291V143.862Z" fill="white"/>
<path d="M15.0952 121.291V133.015L24.5251 138.457L41.4113 128.778L21.7839 117.456L15.0952 121.291Z" fill="#402232"/>
<path d="M39.3645 107.339L58.9919 118.661L75.878 108.983L56.2506 97.6609L39.3645 107.339Z" fill="#402232"/>
<path d="M74.4525 87.2157L94.0799 98.5377L110.966 88.8227L91.3386 77.5007L74.4525 87.2157Z" fill="#402232"/>
<path d="M109.321 67.165L128.949 78.487L145.835 68.8086L126.207 57.4866L109.321 67.165Z" fill="#402232"/>
<path d="M4.67847 115.228L15.0952 121.291L169.008 32.9067L142.216 36.2303L4.67847 115.228Z" fill="#C7D8D8"/>
<path d="M4.67847 137.799L15.0952 143.862V121.291L4.67847 115.228V137.799Z" fill="#E1F2F7"/>
<path d="M63.9993 81.1167L74.4526 87.216L91.3387 77.501L80.9219 71.4382L63.9993 81.1167Z" fill="#241815"/>
<path d="M28.9111 101.277L39.3645 107.339L56.2506 97.661L45.7973 91.5618L28.9111 101.277Z" fill="#241815"/>
<path d="M4.67847 115.228L15.0952 121.291L21.7839 117.493L11.3671 111.43L4.67847 115.228Z" fill="#241815"/>
<path d="M98.868 61.1024L109.321 67.1652L126.207 57.4867L115.791 51.3875L98.868 61.1024Z" fill="#241815"/>
<path d="M4.67847 88.3844L15.0952 94.4471L169.008 6.06273L158.554 0L4.67847 88.3844Z" fill="#C7D8D8"/>
<path d="M114.95 25.0542L125.403 31.1169L145.542 19.5393L135.089 13.4766L114.95 25.0542Z" fill="#241815"/>
<path d="M79.7888 45.2515L90.2421 51.3142L110.381 39.7366L99.9279 33.6738L79.7888 45.2515Z" fill="#241815"/>
<path d="M44.3353 65.5945L54.7886 71.6572L74.9276 60.1161L64.4743 54.0168L44.3353 65.5945Z" fill="#241815"/>
<path d="M9.68579 85.5357L20.1026 91.5985L40.2416 80.0574L29.8249 73.9946L9.68579 85.5357Z" fill="#241815"/>
<path d="M4.67847 110.992L15.0952 117.054V94.447L4.67847 88.3843V110.992Z" fill="#E1F2F7"/>
<path d="M15.0952 117.054L169.007 28.6697V6.06226L15.0952 94.4467V117.054Z" fill="white"/>
<path d="M35.2343 105.477L55.3734 93.9358L74.9277 60.116L54.7886 71.6571L35.2343 105.477Z" fill="#402232"/>
<path d="M15.0952 100.254V117.055L20.7239 113.841L40.2417 80.0208L20.1026 91.5619L15.0952 100.254Z" fill="#402232"/>
<path d="M105.849 64.9375L125.988 53.3599L145.542 19.54L125.403 31.1177L105.849 64.9375Z" fill="#402232"/>
<path d="M70.6879 85.1335L90.827 73.5559L110.381 39.7361L90.2422 51.3137L70.6879 85.1335Z" fill="#402232"/>
<path d="M21.0529 110.663C16.7034 113.183 13.1581 119.246 13.1581 124.25C13.1581 129.253 16.6669 131.262 21.0529 128.742C25.4024 126.222 28.9477 120.159 28.9477 115.156C28.9112 110.189 25.4024 108.18 21.0529 110.663Z" fill="#241815"/>
<path d="M22.588 113.037C18.7502 115.228 15.6435 120.597 15.6435 124.98C15.6435 129.363 18.7502 131.116 22.588 128.924C26.4258 126.733 29.5325 121.364 29.5325 116.982C29.5325 112.599 26.4258 110.809 22.588 113.037Z" fill="white"/>
<path d="M22.7707 115.521C20.1391 117.055 18.0192 120.707 18.0192 123.738C18.0192 126.77 20.1391 127.975 22.7707 126.441C25.4023 124.907 27.5222 121.255 27.5222 118.223C27.5222 115.192 25.4023 113.987 22.7707 115.521Z" fill="#5C1331"/>
<path d="M49.3427 231.078L50.9874 230.128V210.151L49.3427 211.1V231.078Z" fill="#C39978"/>
<path d="M102.34 199.888L103.985 198.938V178.96L102.377 179.91L102.34 199.888Z" fill="#C39978"/>
<path d="M134.066 181.882L135.71 180.933V160.955L134.066 161.904V181.882Z" fill="#C39978"/>
<path d="M27.4857 224.796L155.228 151.093V149.012L27.4857 222.714V224.796Z" fill="#C39978"/>
<path d="M27.2299 202.992L155.484 128.997V127.025L27.2299 200.983V202.992Z" fill="#C39978"/>
<path d="M27.2299 180.567L155.484 106.572V104.6L27.2299 178.558V180.567Z" fill="#C39978"/>
<path d="M27.2299 153.285L155.484 79.2901V77.3179L27.2299 151.276V153.285Z" fill="#C39978"/>
<path d="M129.351 120.232L130.776 119.428V92.8765L129.351 93.68V120.232Z" fill="#C39978"/>
<path d="M98.137 138.274L99.5258 137.471V110.919L98.137 111.722V138.274Z" fill="#C39978"/>
</g>
<defs>
<linearGradient id="paint0_linear" x1="6.86786" y1="250.937" x2="235.971" y2="121.496" gradientUnits="userSpaceOnUse">
<stop offset="0.127" stop-color="#ADA9C6"/>
<stop offset="0.8884" stop-color="white"/>
</linearGradient>
<clipPath id="clip0">
<rect width="303" height="255" fill="white"/>
</clipPath>
</defs>
</svg>
