<svg width="508" height="207" viewBox="0 0 508 207" fill="none" xmlns="http://www.w3.org/2000/svg">
<g clip-path="url(#clip0)">
<path d="M143.358 72.8379H145.798" stroke="#5C1331" stroke-width="0.5" stroke-miterlimit="10"/>
<path d="M154.313 72.8379H175.612" stroke="#5C1331" stroke-width="0.5" stroke-miterlimit="10" stroke-dasharray="1.75 1.75"/>
<path d="M179.881 72.8379H182.321" stroke="#5C1331" stroke-width="0.5" stroke-miterlimit="10"/>
<path d="M71.9476 184.583V182.143" stroke="#88645F" stroke-width="0.5" stroke-miterlimit="10"/>
<path d="M71.9476 173.63V152.359" stroke="#88645F" stroke-width="0.5" stroke-miterlimit="10" stroke-dasharray="1.75 1.75"/>
<path d="M71.9476 148.091V145.651" stroke="#5C1331" stroke-width="0.5" stroke-miterlimit="10"/>
<path d="M325.679 72.8379H328.119" stroke="#5C1331" stroke-width="0.5" stroke-miterlimit="10"/>
<path d="M336.634 72.8379H357.932" stroke="#5C1331" stroke-width="0.5" stroke-miterlimit="10" stroke-dasharray="1.75 1.75"/>
<path d="M362.177 72.8379H364.617" stroke="#5C1331" stroke-width="0.5" stroke-miterlimit="10"/>
<path d="M143.358 21.9539H0V123.673H143.358V21.9539Z" fill="#EEEFF4"/>
<path d="M137.576 18.49C136.942 18.49 136.43 17.9777 136.43 17.3435V5.78117C136.43 5.14695 136.942 4.63469 137.576 4.63469H142.212C142.846 4.63469 143.358 4.12244 143.358 3.48822V1.14648C143.358 0.512255 142.846 0 142.212 0H1.14667C0.512343 0 0 0.512255 0 1.14648V3.46382C0 4.09804 0.512343 4.63469 1.14667 4.63469H5.78215C6.41648 4.63469 6.92883 5.14695 6.92883 5.78117V17.3435C6.92883 17.9777 6.41648 18.49 5.78215 18.49H1.14667C0.512343 18.49 0 19.0266 0 19.6609V21.9538C0 22.588 0.512343 23.1003 1.14667 23.1003H142.212C142.846 23.1003 143.358 22.588 143.358 21.9538V19.6609C143.358 19.0266 142.846 18.5144 142.212 18.5144H137.576V18.49ZM30.0574 17.3435C30.0574 17.9777 29.5451 18.49 28.9108 18.49H21.9575C21.3232 18.49 20.8109 17.9777 20.8109 17.3435V5.78117C20.8109 5.14695 21.3232 4.63469 21.9575 4.63469H28.8864C29.5207 4.63469 30.033 5.14695 30.033 5.78117V17.3435H30.0574ZM53.1861 17.3435C53.1861 17.9777 52.6737 18.49 52.0394 18.49H45.1106C44.4762 18.49 43.9639 17.9777 43.9639 17.3435V5.78117C43.9639 5.14695 44.4762 4.63469 45.1106 4.63469H52.0394C52.6737 4.63469 53.1861 5.14695 53.1861 5.78117V17.3435ZM76.3147 17.3435C76.3147 17.9777 75.8023 18.49 75.168 18.49H68.2392C67.6048 18.49 67.0925 17.9777 67.0925 17.3435V5.78117C67.0925 5.14695 67.6048 4.63469 68.2392 4.63469H75.168C75.8023 4.63469 76.3147 5.14695 76.3147 5.78117V17.3435ZM99.4433 17.3435C99.4433 17.9777 98.9309 18.49 98.2966 18.49H91.3678C90.7335 18.49 90.2211 17.9777 90.2211 17.3435V5.78117C90.2211 5.14695 90.7335 4.63469 91.3678 4.63469H98.2966C98.9309 4.63469 99.4433 5.14695 99.4433 5.78117V17.3435ZM122.548 17.3435C122.548 17.9777 122.035 18.49 121.401 18.49H114.472C113.838 18.49 113.325 17.9777 113.325 17.3435V5.78117C113.325 5.14695 113.838 4.63469 114.472 4.63469H121.401C122.035 4.63469 122.548 5.14695 122.548 5.78117V17.3435Z" fill="#5C1331"/>
<path d="M137.576 141.041C136.942 141.041 136.43 140.529 136.43 139.895V128.308C136.43 127.674 136.942 127.161 137.576 127.161H142.212C142.846 127.161 143.358 126.649 143.358 126.015V123.698C143.358 123.063 142.846 122.551 142.212 122.551H1.14667C0.512343 122.527 0 123.063 0 123.698V126.015C0 126.649 0.512343 127.161 1.14667 127.161H5.78215C6.41648 127.161 6.92883 127.674 6.92883 128.308V139.87C6.92883 140.504 6.41648 141.017 5.78215 141.017H1.14667C0.512343 141.041 0 141.553 0 142.188V144.505C0 145.139 0.512343 145.651 1.14667 145.651H142.212C142.846 145.651 143.358 145.139 143.358 144.505V142.188C143.358 141.553 142.846 141.041 142.212 141.041H137.576ZM30.0574 139.87C30.0574 140.504 29.5451 141.017 28.9108 141.017H21.9575C21.3232 141.017 20.8109 140.504 20.8109 139.87V128.308C20.8109 127.674 21.3232 127.161 21.9575 127.161H28.8864C29.5207 127.161 30.033 127.674 30.033 128.308V139.87H30.0574ZM53.1861 139.87C53.1861 140.504 52.6737 141.017 52.0394 141.017H45.1106C44.4762 141.017 43.9639 140.504 43.9639 139.87V128.308C43.9639 127.674 44.4762 127.161 45.1106 127.161H52.0394C52.6737 127.161 53.1861 127.674 53.1861 128.308V139.87ZM76.3147 139.87C76.3147 140.504 75.8023 141.017 75.168 141.017H68.2392C67.6048 141.017 67.0925 140.504 67.0925 139.87V128.308C67.0925 127.674 67.6048 127.161 68.2392 127.161H75.168C75.8023 127.161 76.3147 127.674 76.3147 128.308V139.87ZM99.4433 139.87C99.4433 140.504 98.9309 141.017 98.2966 141.017H91.3678C90.7335 141.017 90.2211 140.504 90.2211 139.87V128.308C90.2211 127.674 90.7335 127.161 91.3678 127.161H98.2966C98.9309 127.161 99.4433 127.674 99.4433 128.308V139.87ZM122.548 139.87C122.548 140.504 122.035 141.017 121.401 141.017H114.472C113.838 141.017 113.325 140.504 113.325 139.87V128.308C113.325 127.674 113.838 127.161 114.472 127.161H121.401C122.035 127.161 122.548 127.674 122.548 128.308V139.87Z" fill="#5C1331"/>
<path d="M325.679 21.9539H182.321V123.673H325.679V21.9539Z" fill="#EEEFF4"/>
<path d="M319.897 18.49C319.263 18.49 318.75 17.9777 318.75 17.3435V5.78117C318.75 5.14695 319.263 4.63469 319.897 4.63469H324.533C325.167 4.63469 325.679 4.12244 325.679 3.48822V1.14648C325.679 0.512255 325.167 0 324.533 0H183.467C182.833 0 182.321 0.512255 182.321 1.14648V3.46382C182.321 4.09804 182.833 4.6103 183.467 4.6103H188.103C188.737 4.6103 189.25 5.12255 189.25 5.75678V17.3191C189.25 17.9533 188.737 18.4656 188.103 18.4656H183.467C182.833 18.4656 182.321 18.9778 182.321 19.6121V21.9538C182.321 22.588 182.833 23.1003 183.467 23.1003H324.533C325.167 23.1003 325.679 22.588 325.679 21.9538V19.6609C325.679 19.0266 325.167 18.5144 324.533 18.5144H319.897V18.49ZM212.378 17.3435C212.378 17.9777 211.866 18.49 211.232 18.49H204.303C203.668 18.49 203.156 17.9777 203.156 17.3435V5.78117C203.156 5.14695 203.668 4.63469 204.303 4.63469H211.232C211.866 4.63469 212.378 5.14695 212.378 5.78117V17.3435ZM235.507 17.3435C235.507 17.9777 234.995 18.49 234.36 18.49H227.431C226.797 18.49 226.285 17.9777 226.285 17.3435V5.78117C226.285 5.14695 226.797 4.63469 227.431 4.63469H234.36C234.995 4.63469 235.507 5.14695 235.507 5.78117V17.3435ZM258.611 17.3435C258.611 17.9777 258.099 18.49 257.464 18.49H250.536C249.901 18.49 249.389 17.9777 249.389 17.3435V5.78117C249.389 5.14695 249.901 4.63469 250.536 4.63469H257.464C258.099 4.63469 258.611 5.14695 258.611 5.78117V17.3435ZM281.74 17.3435C281.74 17.9777 281.227 18.49 280.593 18.49H273.664C273.03 18.49 272.518 17.9777 272.518 17.3435V5.78117C272.518 5.14695 273.03 4.63469 273.664 4.63469H280.593C281.227 4.63469 281.74 5.14695 281.74 5.78117V17.3435ZM304.868 17.3435C304.868 17.9777 304.356 18.49 303.722 18.49H296.793C296.158 18.49 295.646 17.9777 295.646 17.3435V5.78117C295.646 5.14695 296.158 4.63469 296.793 4.63469H303.722C304.356 4.63469 304.868 5.14695 304.868 5.78117V17.3435Z" fill="#5C1331"/>
<path d="M319.897 141.041C319.263 141.041 318.75 140.529 318.75 139.895V128.308C318.75 127.674 319.263 127.161 319.897 127.161H324.533C325.167 127.161 325.679 126.649 325.679 126.015V123.697C325.679 123.063 325.167 122.551 324.533 122.551H183.467C182.833 122.551 182.321 123.063 182.321 123.697V126.015C182.321 126.649 182.833 127.161 183.467 127.161H188.103C188.737 127.161 189.25 127.674 189.25 128.308V139.87C189.25 140.504 188.737 141.017 188.103 141.017H183.467C182.833 141.017 182.321 141.529 182.321 142.163V144.48C182.321 145.115 182.833 145.627 183.467 145.627H324.533C325.167 145.627 325.679 145.115 325.679 144.48V142.163C325.679 141.529 325.167 141.017 324.533 141.017H319.897V141.041ZM212.378 139.87C212.378 140.504 211.866 141.017 211.232 141.017H204.303C203.668 141.017 203.156 140.504 203.156 139.87V128.308C203.156 127.674 203.668 127.161 204.303 127.161H211.232C211.866 127.161 212.378 127.674 212.378 128.308V139.87ZM235.507 139.87C235.507 140.504 234.995 141.017 234.36 141.017H227.431C226.797 141.017 226.285 140.504 226.285 139.87V128.308C226.285 127.674 226.797 127.161 227.431 127.161H234.36C234.995 127.161 235.507 127.674 235.507 128.308V139.87ZM258.611 139.87C258.611 140.504 258.099 141.017 257.464 141.017H250.536C249.901 141.017 249.389 140.504 249.389 139.87V128.308C249.389 127.674 249.901 127.161 250.536 127.161H257.464C258.099 127.161 258.611 127.674 258.611 128.308V139.87ZM281.74 139.87C281.74 140.504 281.227 141.017 280.593 141.017H273.664C273.03 141.017 272.518 140.504 272.518 139.87V128.308C272.518 127.674 273.03 127.161 273.664 127.161H280.593C281.227 127.161 281.74 127.674 281.74 128.308V139.87ZM304.868 139.87C304.868 140.504 304.356 141.017 303.722 141.017H296.793C296.158 141.017 295.646 140.504 295.646 139.87V128.308C295.646 127.674 296.158 127.161 296.793 127.161H303.722C304.356 127.161 304.868 127.674 304.868 128.308V139.87Z" fill="#5C1331"/>
<path d="M507.976 21.9539H364.617V123.673H507.976V21.9539Z" fill="#EEEFF4"/>
<path d="M502.218 18.49C501.584 18.49 501.072 17.9777 501.072 17.3435V5.78117C501.072 5.14695 501.584 4.63469 502.218 4.63469H506.854C507.488 4.63469 508.001 4.12244 508.001 3.48822V1.14648C508.001 0.512255 507.488 0 506.854 0H365.789C365.155 0 364.642 0.512255 364.642 1.14648V3.46382C364.642 4.09804 365.155 4.6103 365.789 4.6103H370.424C371.059 4.6103 371.571 5.12255 371.571 5.75678V17.3191C371.571 17.9533 371.059 18.4656 370.424 18.4656H365.789C365.155 18.4656 364.642 18.9778 364.642 19.6121V21.9538C364.642 22.588 365.155 23.1003 365.789 23.1003H506.854C507.488 23.1003 508.001 22.588 508.001 21.9538V19.6609C508.001 19.0266 507.488 18.5144 506.854 18.5144H502.218V18.49ZM394.675 17.3435C394.675 17.9777 394.163 18.49 393.529 18.49H386.6C385.965 18.49 385.453 17.9777 385.453 17.3435V5.78117C385.453 5.14695 385.965 4.63469 386.6 4.63469H393.529C394.163 4.63469 394.675 5.14695 394.675 5.78117V17.3435ZM417.804 17.3435C417.804 17.9777 417.292 18.49 416.657 18.49H409.728C409.094 18.49 408.582 17.9777 408.582 17.3435V5.78117C408.582 5.14695 409.094 4.63469 409.728 4.63469H416.657C417.292 4.63469 417.804 5.14695 417.804 5.78117V17.3435ZM440.932 17.3435C440.932 17.9777 440.42 18.49 439.786 18.49H432.857C432.223 18.49 431.71 17.9777 431.71 17.3435V5.78117C431.71 5.14695 432.223 4.63469 432.857 4.63469H439.786C440.42 4.63469 440.932 5.14695 440.932 5.78117V17.3435ZM464.061 17.3435C464.061 17.9777 463.549 18.49 462.914 18.49H455.986C455.351 18.49 454.839 17.9777 454.839 17.3435V5.78117C454.839 5.14695 455.351 4.63469 455.986 4.63469H462.914C463.549 4.63469 464.061 5.14695 464.061 5.78117V17.3435ZM487.19 17.3435C487.19 17.9777 486.677 18.49 486.043 18.49H479.114C478.48 18.49 477.968 17.9777 477.968 17.3435V5.78117C477.968 5.14695 478.48 4.63469 479.114 4.63469H486.043C486.677 4.63469 487.19 5.14695 487.19 5.78117V17.3435Z" fill="#5C1331"/>
<path d="M502.218 141.041C501.584 141.041 501.071 140.529 501.071 139.895V128.308C501.071 127.674 501.584 127.161 502.218 127.161H506.853C507.488 127.161 508 126.649 508 126.015V123.697C508 123.063 507.488 122.551 506.853 122.551H365.788C365.154 122.551 364.642 123.063 364.642 123.697V126.015C364.642 126.649 365.154 127.161 365.788 127.161H370.424C371.058 127.161 371.57 127.674 371.57 128.308V139.87C371.57 140.504 371.058 141.017 370.424 141.017H365.788C365.154 141.017 364.642 141.529 364.642 142.163V144.48C364.642 145.115 365.154 145.627 365.788 145.627H506.853C507.488 145.627 508 145.115 508 144.48V142.163C508 141.529 507.488 141.017 506.853 141.017H502.218V141.041ZM394.675 139.87C394.675 140.504 394.162 141.017 393.528 141.017H386.599C385.965 141.017 385.453 140.504 385.453 139.87V128.308C385.453 127.674 385.965 127.161 386.599 127.161H393.528C394.162 127.161 394.675 127.674 394.675 128.308V139.87ZM417.803 139.87C417.803 140.504 417.291 141.017 416.657 141.017H409.728C409.093 141.017 408.581 140.504 408.581 139.87V128.308C408.581 127.674 409.093 127.161 409.728 127.161H416.657C417.291 127.161 417.803 127.674 417.803 128.308V139.87ZM440.932 139.87C440.932 140.504 440.42 141.017 439.785 141.017H432.856C432.222 141.017 431.71 140.504 431.71 139.87V128.308C431.71 127.674 432.222 127.161 432.856 127.161H439.785C440.42 127.161 440.932 127.674 440.932 128.308V139.87ZM464.061 139.87C464.061 140.504 463.548 141.017 462.914 141.017H455.985C455.351 141.017 454.838 140.504 454.838 139.87V128.308C454.838 127.674 455.351 127.161 455.985 127.161H462.914C463.548 127.161 464.061 127.674 464.061 128.308V139.87ZM487.189 139.87C487.189 140.504 486.677 141.017 486.042 141.017H479.114C478.479 141.017 477.967 140.504 477.967 139.87V128.308C477.967 127.674 478.479 127.161 479.114 127.161H486.042C486.677 127.161 487.189 127.674 487.189 128.308V139.87Z" fill="#5C1331"/>
<path d="M34.3514 66.4227V66.3251C34.3514 57.8363 39.8895 50.2988 49.2093 50.2988C58.5291 50.2988 63.9697 57.7631 63.9697 66.2519V66.3495C63.9697 74.8139 58.4315 82.3758 49.1117 82.3758C39.792 82.3514 34.3514 74.8871 34.3514 66.4227ZM53.7716 66.4227V66.3251C53.7716 62.1051 51.893 59.2023 49.1117 59.2023C46.3548 59.2023 44.5494 62.0075 44.5494 66.2275V66.3251C44.5494 70.5451 46.428 73.4479 49.2093 73.4479C51.9662 73.4479 53.7716 70.6427 53.7716 66.4227Z" fill="#5C1331"/>
<path d="M66.507 63.7883H81.804V71.96H66.507V63.7883Z" fill="#5C1331"/>
<path d="M82.9263 77.3021L88.5865 70.7159C91.2214 72.8137 93.6855 74.0578 96.1741 74.0578C98.6382 74.0578 100.029 72.7893 100.029 71.1062V71.0086C100.029 69.2036 98.5894 68.0571 96.418 68.0571C94.5394 68.0571 93.1732 68.8377 91.7094 69.9841L85.5124 66.9106L86.3908 50.9331H108.568V59.056H94.0271L93.8075 63.0565C95.4421 62.0564 97.2231 61.3978 99.6385 61.3978C104.737 61.3978 109.91 64.642 109.91 71.1062V71.2038C109.91 78.3266 104.079 82.3514 96.2472 82.3514C90.3431 82.3514 86.342 80.3756 82.9263 77.3021Z" fill="#5C1331"/>
<path d="M36.2543 101.402L37.157 100.329C37.9622 101.036 38.7917 101.451 39.8651 101.451C40.7922 101.451 41.3778 101.012 41.3778 100.378V100.353C41.3778 99.7436 41.0362 99.4265 39.4504 99.0362C37.6206 98.5971 36.5959 98.0604 36.5959 96.4749V96.4505C36.5959 94.9869 37.8158 93.9624 39.5236 93.9624C40.7678 93.9624 41.7681 94.3527 42.622 95.0357L41.8169 96.1822C41.0362 95.5967 40.2799 95.304 39.4992 95.304C38.6209 95.304 38.1085 95.7675 38.1085 96.3285V96.3529C38.1085 97.0115 38.4989 97.3043 40.1335 97.6945C41.9389 98.1336 42.8904 98.7922 42.8904 100.207V100.231C42.8904 101.841 41.6217 102.793 39.8407 102.793C38.5233 102.768 37.279 102.305 36.2543 101.402Z" fill="#5C1331"/>
<path d="M44.647 94.1089H50.9903V95.4505H46.1597V97.6703H50.4536V99.0119H46.1597V101.305H51.0635V102.646H44.647V94.1089Z" fill="#5C1331"/>
<path d="M52.4297 98.4019V98.3776C52.4297 95.987 54.2595 93.9624 56.8456 93.9624C58.3339 93.9624 59.261 94.3771 60.1393 95.1333L59.1878 96.2798C58.5291 95.7187 57.8703 95.3528 56.7968 95.3528C55.211 95.3528 54.0156 96.7432 54.0156 98.3776V98.4019C54.0156 100.158 55.1866 101.451 56.9188 101.451C57.7239 101.451 58.4559 101.207 58.9926 100.817V99.2069H56.7968V97.8897H60.432V101.475C59.6025 102.183 58.3827 102.793 56.87 102.793C54.1863 102.793 52.4297 100.89 52.4297 98.4019Z" fill="#5C1331"/>
<path d="M62.2374 99.0119V94.0844H63.7501V98.9387C63.7501 100.524 64.5796 101.378 65.9214 101.378C67.2633 101.378 68.0684 100.573 68.0684 98.9875V94.0601H69.581V98.9143C69.581 101.476 68.1416 102.744 65.897 102.744C63.6525 102.768 62.2374 101.5 62.2374 99.0119Z" fill="#5C1331"/>
<path d="M71.606 94.1089H72.9966L77.5833 100.012V94.1089H79.0715V102.646H77.8273L73.1186 96.5726V102.646H71.6304V94.1089H71.606Z" fill="#5C1331"/>
<path d="M81.2429 94.1089H84.439C87.1227 94.1089 88.9769 95.9628 88.9769 98.3533V98.3777C88.9769 100.793 87.1227 102.646 84.439 102.646H81.2429V94.1089ZM84.439 101.28C86.2444 101.28 87.4154 100.061 87.4154 98.4021V98.3777C87.4154 96.6946 86.2444 95.4749 84.439 95.4749H82.7555V101.28H84.439Z" fill="#5C1331"/>
<path d="M90.4163 98.4019V98.3776C90.4163 95.9626 92.2705 93.9624 94.9054 93.9624C97.5403 93.9624 99.3701 95.9626 99.3701 98.3532V98.3776C99.3701 100.792 97.5159 102.793 94.881 102.793C92.2461 102.793 90.4163 100.792 90.4163 98.4019ZM97.7843 98.4019V98.3776C97.7843 96.7188 96.5644 95.3284 94.881 95.3284C93.1976 95.3284 92.0021 96.6944 92.0021 98.3532V98.3776C92.0021 100.036 93.222 101.427 94.9054 101.427C96.5888 101.402 97.7843 100.061 97.7843 98.4019Z" fill="#5C1331"/>
<path d="M100.517 101.402L101.419 100.329C102.225 101.036 103.054 101.451 104.128 101.451C105.055 101.451 105.64 101.012 105.64 100.378V100.353C105.64 99.7436 105.299 99.4265 103.713 99.0362C101.883 98.5971 100.858 98.0604 100.858 96.4749V96.4505C100.858 94.9869 102.078 93.9624 103.786 93.9624C105.03 93.9624 106.031 94.3527 106.884 95.0357L106.079 96.1822C105.299 95.5967 104.542 95.304 103.762 95.304C102.883 95.304 102.371 95.7675 102.371 96.3285V96.3529C102.371 97.0115 102.761 97.3043 104.396 97.6945C106.201 98.1336 107.153 98.7922 107.153 100.207V100.231C107.153 101.841 105.884 102.793 104.103 102.793C102.786 102.768 101.541 102.305 100.517 101.402Z" fill="#5C1331"/>
<path d="M211.012 78.668C208.694 76.3507 207.108 72.7405 207.108 67.3008V67.2033C207.108 57.5924 212.11 50.2988 222.186 50.2988C226.577 50.2988 229.871 51.3965 233.043 53.6407L228.602 60.3976C226.797 59.1291 224.918 58.2022 222.625 58.2022C219.283 58.2022 217.624 60.5195 217.233 64.2273C218.99 62.7393 221.088 61.4953 224.162 61.4953C228.871 61.4953 233.653 64.9103 233.653 70.8378V70.9354C233.653 78.3509 227.724 82.3514 220.917 82.3514C216.233 82.3514 213.281 80.961 211.012 78.668ZM223.796 71.5696V71.472C223.796 69.6182 222.43 68.057 220.405 68.057C218.38 68.057 217.111 69.5938 217.111 71.4477V71.5452C217.111 73.4235 218.478 75.0091 220.503 75.0091C222.528 75.0091 223.796 73.4479 223.796 71.5696Z" fill="#5C1331"/>
<path d="M236.263 63.7883H251.56V71.96H236.263V63.7883Z" fill="#5C1331"/>
<path d="M258.05 59.7388L253.049 60.8365L251.194 53.2259L260.368 50.7134H268.15V81.6682H258.05V59.7388Z" fill="#5C1331"/>
<path d="M271.298 66.4227V66.3251C271.298 57.8363 276.836 50.2988 286.156 50.2988C295.475 50.2988 300.916 57.7631 300.916 66.2519V66.3495C300.916 74.8139 295.378 82.3758 286.058 82.3758C276.738 82.3514 271.298 74.8871 271.298 66.4227ZM290.718 66.4227V66.3251C290.718 62.1051 288.839 59.2023 286.058 59.2023C283.301 59.2023 281.496 62.0075 281.496 66.2275V66.3251C281.496 70.5451 283.374 73.4479 286.156 73.4479C288.913 73.4479 290.718 70.6427 290.718 66.4227Z" fill="#5C1331"/>
<path d="M218.478 101.402L219.38 100.329C220.185 101.036 221.015 101.451 222.088 101.451C223.015 101.451 223.601 101.012 223.601 100.378V100.353C223.601 99.7436 223.259 99.4265 221.674 99.0362C219.844 98.5971 218.819 98.0604 218.819 96.4749V96.4505C218.819 94.9869 220.039 93.9624 221.747 93.9624C222.991 93.9624 223.991 94.3527 224.845 95.0357L224.04 96.1822C223.259 95.5967 222.503 95.304 221.722 95.304C220.844 95.304 220.332 95.7675 220.332 96.3285V96.3529C220.332 97.0115 220.722 97.3043 222.357 97.6945C224.162 98.1336 225.114 98.7922 225.114 100.207V100.231C225.114 101.841 223.845 102.793 222.064 102.793C220.747 102.768 219.502 102.305 218.478 101.402Z" fill="#5C1331"/>
<path d="M226.87 94.1089H233.213V95.4505H228.358V97.6703H232.652V99.0119H228.358V101.305H233.262V102.646H226.87V94.1089Z" fill="#5C1331"/>
<path d="M234.653 98.4019V98.3776C234.653 95.987 236.483 93.9624 239.069 93.9624C240.557 93.9624 241.484 94.3771 242.362 95.1333L241.411 96.2798C240.752 95.7187 240.094 95.3528 239.02 95.3528C237.434 95.3528 236.239 96.7432 236.239 98.3776V98.4019C236.239 100.158 237.41 101.451 239.142 101.451C239.947 101.451 240.679 101.207 241.216 100.817V99.2069H239.02V97.8897H242.655V101.475C241.826 102.183 240.606 102.793 239.093 102.793C236.41 102.793 234.653 100.89 234.653 98.4019Z" fill="#5C1331"/>
<path d="M244.461 99.0119V94.0844H245.973V98.9387C245.973 100.524 246.803 101.378 248.145 101.378C249.487 101.378 250.292 100.573 250.292 98.9875V94.0601H251.804V98.9143C251.804 101.476 250.365 102.744 248.12 102.744C245.876 102.768 244.461 101.5 244.461 99.0119Z" fill="#5C1331"/>
<path d="M253.829 94.1089H255.22L259.807 100.012V94.1089H261.295V102.646H260.051L255.342 96.5726V102.646H253.854V94.1089H253.829Z" fill="#5C1331"/>
<path d="M263.466 94.1089H266.662C269.346 94.1089 271.2 95.9628 271.2 98.3533V98.3777C271.2 100.793 269.346 102.646 266.662 102.646H263.466V94.1089ZM266.662 101.28C268.468 101.28 269.639 100.061 269.639 98.4021V98.3777C269.639 96.6946 268.468 95.4749 266.662 95.4749H264.979V101.28H266.662Z" fill="#5C1331"/>
<path d="M272.64 98.4019V98.3776C272.64 95.9626 274.494 93.9624 277.129 93.9624C279.763 93.9624 281.593 95.9626 281.593 98.3532V98.3776C281.593 100.792 279.739 102.793 277.104 102.793C274.469 102.793 272.64 100.792 272.64 98.4019ZM280.007 98.4019V98.3776C280.007 96.7188 278.788 95.3284 277.104 95.3284C275.421 95.3284 274.225 96.6944 274.225 98.3532V98.3776C274.225 100.036 275.445 101.427 277.129 101.427C278.812 101.402 280.007 100.061 280.007 98.4019Z" fill="#5C1331"/>
<path d="M282.74 101.402L283.643 100.329C284.448 101.036 285.277 101.451 286.351 101.451C287.278 101.451 287.863 101.012 287.863 100.378V100.353C287.863 99.7436 287.522 99.4265 285.936 99.0362C284.106 98.5971 283.082 98.0604 283.082 96.4749V96.4505C283.082 94.9869 284.301 93.9624 286.009 93.9624C287.253 93.9624 288.254 94.3527 289.108 95.0357L288.303 96.1822C287.522 95.5967 286.766 95.304 285.985 95.304C285.107 95.304 284.594 95.7675 284.594 96.3285V96.3529C284.594 97.0115 284.985 97.3043 286.619 97.6945C288.425 98.1336 289.376 98.7922 289.376 100.207V100.231C289.376 101.841 288.107 102.793 286.326 102.793C285.009 102.768 283.765 102.305 282.74 101.402Z" fill="#5C1331"/>
<path d="M392.869 59.7388L387.868 60.8365L386.014 53.2259L395.187 50.7134H402.97V81.6682H392.869V59.7388Z" fill="#5C1331"/>
<path d="M411.411 59.7388L406.41 60.8365L404.556 53.2259L413.729 50.7134H421.512V81.6682H411.411V59.7388Z" fill="#5C1331"/>
<path d="M424.757 63.7883H440.054V71.96H424.757V63.7883Z" fill="#5C1331"/>
<path d="M446.543 59.7388L441.542 60.8365L439.688 53.2259L448.861 50.7134H456.644V81.6682H446.543V59.7388Z" fill="#5C1331"/>
<path d="M458.4 77.3021L464.061 70.7159C466.695 72.8137 469.16 74.0578 471.648 74.0578C474.112 74.0578 475.503 72.7893 475.503 71.1062V71.0086C475.503 69.2036 474.063 68.0571 471.892 68.0571C470.013 68.0571 468.647 68.8377 467.183 69.9841L460.986 66.9106L461.865 50.9331H484.042V59.056H469.501L469.282 63.0565C470.916 62.0564 472.697 61.3978 475.112 61.3978C480.212 61.3978 485.384 64.642 485.384 71.1062V71.2038C485.384 78.3266 479.553 82.3514 471.721 82.3514C465.817 82.3514 461.816 80.3756 458.4 77.3021Z" fill="#5C1331"/>
<path d="M400.798 101.402L401.701 100.329C402.506 101.036 403.336 101.451 404.409 101.451C405.336 101.451 405.922 101.012 405.922 100.378V100.353C405.922 99.7436 405.58 99.4265 403.994 99.0362C402.165 98.5971 401.14 98.0604 401.14 96.4749V96.4505C401.14 94.9869 402.36 93.9624 404.068 93.9624C405.312 93.9624 406.312 94.3527 407.166 95.0357L406.361 96.1822C405.58 95.5967 404.824 95.304 404.043 95.304C403.165 95.304 402.653 95.7675 402.653 96.3285V96.3529C402.653 97.0115 403.043 97.3043 404.678 97.6945C406.483 98.1336 407.434 98.7922 407.434 100.207V100.231C407.434 101.841 406.166 102.793 404.385 102.793C403.067 102.768 401.823 102.305 400.798 101.402Z" fill="#5C1331"/>
<path d="M409.191 94.1089H415.534V95.4505H410.704V97.6703H414.998V99.0119H410.704V101.305H415.608V102.646H409.215V94.1089H409.191Z" fill="#5C1331"/>
<path d="M416.974 98.4019V98.3776C416.974 95.987 418.804 93.9624 421.39 93.9624C422.878 93.9624 423.805 94.3771 424.683 95.1333L423.732 96.2798C423.073 95.7187 422.414 95.3528 421.341 95.3528C419.755 95.3528 418.56 96.7432 418.56 98.3776V98.4019C418.56 100.158 419.731 101.451 421.463 101.451C422.268 101.451 423 101.207 423.537 100.817V99.2069H421.341V97.8897H424.976V101.475C424.147 102.183 422.927 102.793 421.414 102.793C418.73 102.793 416.974 100.89 416.974 98.4019Z" fill="#5C1331"/>
<path d="M426.781 99.0119V94.0844H428.294V98.9387C428.294 100.524 429.124 101.378 430.465 101.378C431.807 101.378 432.612 100.573 432.612 98.9875V94.0601H434.125V98.9143C434.125 101.476 432.686 102.744 430.441 102.744C428.197 102.768 426.781 101.5 426.781 99.0119Z" fill="#5C1331"/>
<path d="M436.15 94.1089H437.541L442.127 100.012V94.1089H443.616V102.646H442.371L437.663 96.5726V102.646H436.174V94.1089H436.15Z" fill="#5C1331"/>
<path d="M445.787 94.1089H448.983C451.667 94.1089 453.521 95.9628 453.521 98.3533V98.3777C453.521 100.793 451.667 102.646 448.983 102.646H445.787V94.1089ZM448.983 101.28C450.788 101.28 451.959 100.061 451.959 98.4021V98.3777C451.959 96.6946 450.788 95.4749 448.983 95.4749H447.3V101.28H448.983Z" fill="#5C1331"/>
<path d="M454.96 98.4019V98.3776C454.96 95.9626 456.815 93.9624 459.449 93.9624C462.084 93.9624 463.914 95.9626 463.914 98.3532V98.3776C463.914 100.792 462.06 102.793 459.425 102.793C456.79 102.793 454.96 100.792 454.96 98.4019ZM462.304 98.4019V98.3776C462.304 96.7188 461.084 95.3284 459.401 95.3284C457.717 95.3284 456.522 96.6944 456.522 98.3532V98.3776C456.522 100.036 457.742 101.427 459.425 101.427C461.133 101.402 462.304 100.061 462.304 98.4019Z" fill="#5C1331"/>
<path d="M465.061 101.402L465.964 100.329C466.769 101.036 467.598 101.451 468.672 101.451C469.599 101.451 470.184 101.012 470.184 100.378V100.353C470.184 99.7436 469.843 99.4265 468.257 99.0362C466.427 98.5971 465.402 98.0604 465.402 96.4749V96.4505C465.402 94.9869 466.622 93.9624 468.33 93.9624C469.574 93.9624 470.575 94.3527 471.428 95.0357L470.623 96.1822C469.843 95.5967 469.086 95.304 468.306 95.304C467.427 95.304 466.915 95.7675 466.915 96.3285V96.3529C466.915 97.0115 467.305 97.3043 468.94 97.6945C470.745 98.1336 471.697 98.7922 471.697 100.207V100.231C471.697 101.841 470.428 102.793 468.647 102.793C467.33 102.768 466.085 102.305 465.061 101.402Z" fill="#5C1331"/>
<path d="M32.6924 201.731V201.707C32.6924 198.804 34.8881 196.413 38.0354 196.413C39.9627 196.413 41.1094 197.048 42.0853 197.999L40.6459 199.658C39.8652 198.95 39.06 198.511 38.0354 198.511C36.3032 198.511 35.0589 199.95 35.0589 201.707V201.731C35.0589 203.487 36.2788 204.951 38.0354 204.951C39.2064 204.951 39.9139 204.487 40.7191 203.756L42.1585 205.195C41.1094 206.317 39.9383 207.024 37.9622 207.024C34.9369 207 32.6924 204.683 32.6924 201.731Z" fill="#88645F"/>
<path d="M43.9639 196.584H46.2084V200.633H50.356V196.584H52.6005V206.829H50.356V202.707H46.2084V206.829H43.9639V196.584Z" fill="#88645F"/>
<path d="M58.6023 196.511H60.676L65.0675 206.829H62.701L61.7739 204.536H57.4312L56.5041 206.829H54.2108L58.6023 196.511ZM60.9688 202.536L59.6026 199.219L58.2363 202.536H60.9688Z" fill="#88645F"/>
<path d="M66.6534 196.584H69.0931L71.7768 200.926L74.4605 196.584H76.9002V206.829H74.6557V200.146L71.7768 204.512H71.728L68.8735 200.17V206.805H66.6534V196.584Z" fill="#88645F"/>
<path d="M82.8531 196.511H84.9269L89.3184 206.829H86.9519L86.0248 204.536H81.6821L80.755 206.829H78.4616L82.8531 196.511ZM85.2197 202.536L83.8534 199.219L82.4872 202.536H85.2197Z" fill="#88645F"/>
<path d="M90.9042 196.584H94.9054C98.1258 196.584 100.346 198.804 100.346 201.682V201.707C100.346 204.585 98.1258 206.829 94.9054 206.829H90.9042V196.584ZM94.9054 204.805C96.7596 204.805 98.0038 203.561 98.0038 201.756V201.731C98.0038 199.926 96.7596 198.633 94.9054 198.633H93.1732V204.805H94.9054Z" fill="#88645F"/>
<path d="M105.152 196.511H107.226L111.618 206.829H109.251L108.324 204.536H103.981L103.054 206.829H100.761L105.152 196.511ZM107.519 202.536L106.153 199.219L104.786 202.536H107.519Z" fill="#88645F"/>
<path d="M254 184.583V182.143" stroke="#88645F" stroke-width="0.5" stroke-miterlimit="10"/>
<path d="M254 173.63V152.359" stroke="#88645F" stroke-width="0.5" stroke-miterlimit="10" stroke-dasharray="1.75 1.75"/>
<path d="M254 148.091V145.651" stroke="#5C1331" stroke-width="0.5" stroke-miterlimit="10"/>
<path d="M223.699 201.731V201.707C223.699 198.804 225.992 196.413 229.164 196.413C232.335 196.413 234.58 198.755 234.58 201.682V201.707C234.58 204.609 232.286 207 229.115 207C225.943 207 223.699 204.658 223.699 201.731ZM232.213 201.731V201.707C232.213 199.95 230.92 198.487 229.115 198.487C227.309 198.487 226.041 199.926 226.041 201.682V201.707C226.041 203.463 227.334 204.927 229.139 204.927C230.969 204.927 232.213 203.487 232.213 201.731Z" fill="#88645F"/>
<path d="M236.58 196.584H244.387V198.633H238.849V200.804H243.729V202.853H238.849V206.829H236.605V196.584H236.58Z" fill="#88645F"/>
<path d="M246.193 196.584H253.927V198.584H248.437V200.658H253.268V202.658H248.437V204.805H254V206.805H246.193V196.584Z" fill="#88645F"/>
<path d="M256.001 196.584H260.685C261.978 196.584 263.003 196.95 263.661 197.633C264.222 198.194 264.54 198.999 264.54 199.975V199.999C264.54 201.658 263.637 202.683 262.344 203.17L264.857 206.829H262.222L260.026 203.561H258.245V206.829H256.001V196.584ZM260.538 201.56C261.636 201.56 262.271 200.975 262.271 200.121V200.097C262.271 199.121 261.588 198.633 260.49 198.633H258.245V201.585H260.538V201.56Z" fill="#88645F"/>
<path d="M268.955 198.658H265.833V196.584H274.323V198.658H271.2V206.829H268.955V198.658Z" fill="#88645F"/>
<path d="M278.251 196.511H280.325L284.716 206.829H282.35L281.423 204.536H277.08L276.153 206.829H273.859L278.251 196.511ZM280.617 202.536L279.251 199.219L277.885 202.536H280.617Z" fill="#88645F"/>
<path d="M436.321 184.583V182.143" stroke="#88645F" stroke-width="0.5" stroke-miterlimit="10"/>
<path d="M436.321 173.63V152.359" stroke="#88645F" stroke-width="0.5" stroke-miterlimit="10" stroke-dasharray="1.75 1.75"/>
<path d="M436.321 148.091V145.651" stroke="#5C1331" stroke-width="0.5" stroke-miterlimit="10"/>
<path d="M399.871 201.731V201.707C399.871 198.804 402.067 196.413 405.214 196.413C407.142 196.413 408.288 197.048 409.264 197.999L407.825 199.658C407.044 198.95 406.239 198.511 405.214 198.511C403.482 198.511 402.238 199.95 402.238 201.707V201.731C402.238 203.487 403.458 204.951 405.214 204.951C406.385 204.951 407.093 204.487 407.898 203.756L409.337 205.195C408.288 206.317 407.117 207.024 405.141 207.024C402.116 207 399.871 204.683 399.871 201.731Z" fill="#88645F"/>
<path d="M410.387 201.731V201.707C410.387 198.804 412.68 196.413 415.851 196.413C419.023 196.413 421.268 198.755 421.268 201.682V201.707C421.268 204.609 418.974 207 415.803 207C412.655 207 410.387 204.658 410.387 201.731ZM418.901 201.731V201.707C418.901 199.95 417.608 198.487 415.803 198.487C413.997 198.487 412.729 199.926 412.729 201.682V201.707C412.729 203.463 414.022 204.927 415.827 204.927C417.657 204.927 418.901 203.487 418.901 201.731Z" fill="#88645F"/>
<path d="M423.293 196.584H425.366L430.173 202.878V196.584H432.393V206.829H430.465L425.513 200.316V206.829H423.293V196.584Z" fill="#88645F"/>
<path d="M437.224 198.658H434.101V196.584H442.591V198.658H439.468V206.829H437.224V198.658Z" fill="#88645F"/>
<path d="M446.519 196.511H448.593L452.984 206.829H450.618L449.691 204.536H445.348L444.421 206.829H442.127L446.519 196.511ZM448.885 202.536L447.519 199.219L446.153 202.536H448.885Z" fill="#88645F"/>
<path d="M455.643 198.658H452.521V196.584H461.011V198.658H457.888V206.829H455.643V198.658Z" fill="#88645F"/>
<path d="M461.865 201.731V201.707C461.865 198.804 464.158 196.413 467.33 196.413C470.501 196.413 472.746 198.755 472.746 201.682V201.707C472.746 204.609 470.453 207 467.281 207C464.109 207 461.865 204.658 461.865 201.731ZM470.379 201.731V201.707C470.379 199.95 469.086 198.487 467.281 198.487C465.476 198.487 464.207 199.926 464.207 201.682V201.707C464.207 203.463 465.5 204.927 467.305 204.927C469.135 204.927 470.379 203.487 470.379 201.731Z" fill="#88645F"/>
</g>
<defs>
<clipPath id="clip0">
<rect width="508" height="207" fill="white"/>
</clipPath>
</defs>
</svg>
